<?xml version="1.0" encoding="UTF-8"?>
<svg id="Layer_2" data-name="Layer 2" xmlns="http://www.w3.org/2000/svg" viewBox="0 0 207.22 200">
  <g id="Layer_1-2" data-name="Layer 1">
    <g>
      <path d="M175.6,169.31c-1.77,3.08-3.7,5.83-5.86,8.58-2.38,3.01-5.22,5.54-8.38,7.69-2.65,1.81-5.27,3.37-8.1,4.83l-5.24,2.18c-4.25,1.77-8.51,3.27-13.09,3.99l-6.28,1c-3.64.58-7.14,1.1-10.83,1.35l-10.62.74-8.69-.19-3.98.17-1.17.35-2.1-.23c-2.02-.22-3.95-.11-5.93-.62l-9.55-2.47-6.9-2.24-9.18-2.71c-2-.59-3.72-1.59-5.52-2.61l-6.3-3.57c-6.16-3.03-12.32-6.68-16.76-11.95l-2.86-3.39-3.75-5.24c-2.1-2.94-3.66-6.06-5.18-9.32l-1.62-3.47-2.08-4.88-2.56-9.44-1.5-7.25c-.95-4.59-1.75-9.04-2.27-13.7-.39-3.49-.69-6.81-.69-10.3l.24-6.23,1.72-20.57c.24-2.87.72-5.5,1.35-8.28.68-3.01,1.85-5.75,3.23-8.54.13-.25.08-.34-.13-.16l-1.21.19c-1.47.23-2.86-.44-3.53-1.73-3.73-3.03-6.9-7.27-7.93-11.96l-1.36-6.22c-.35-1.6-.54-3.13-.66-4.75C.24,37.22,0,36.11,0,34.96c0-1.81.42-3.52.61-5.28.13-1.26.23-2.43.81-3.59l2.86-5.7c1.69-3.37,5.1-7.78,7.96-10.19,3.46-2.91,7.2-5.23,11.14-7.42,1.97-1.09,3.86-1.95,6.11-2.31,2.53-.41,3.18-.81,6.02,0l4.37,1.27c2.69.78,5.15,1.76,7.57,3.18,2.42,1.42,4.76,2.78,7.01,4.44,1.6,1.18,2.9,2.47,4.01,4.14l4.64,7.04,6.14-2.39c2.88-1.12,5.68-2.19,8.72-2.86,1.59-.35,3.17-.33,4.76-.78,5.85-1.65,11.72-2.76,17.81-3.12l6.69-.55,4.2.14c3.37.29,6.7.3,9.98,1.11l7.72,1.59,4.84,1.07c2.43.54,4.71,1.2,7.02,2.1l6.58,2.57,3.42,1.73c.06-.87.19-1.43.53-2.08,1.95-3.67,4.25-7.11,7.33-9.92,1.45-1.32,2.88-2.6,4.58-3.55l6.07-2.64c1.12-.49,2.33-.82,3.57-.94,2.91-.29,5.75-.45,8.66-.34,2.19.09,4.21.71,6.32,1.21,3.16.74,5.87,2.17,8.21,4.42,2.68,2.56,5.06,5.4,6.47,8.88l3.82,10.8c.91,3.12.77,6.37.43,9.56l-1.17,7.51c-.2,1.27-.65,2.45-1.18,3.62l-2.58,5.67c-.67,1.48-1.3,2.94-2.33,4.2l-2.35,2.29c-.94.92-1.99,1.5-3.31,1.72-.06.04-.26.14-.25.19.2.77,2.62,4.12,3.65,7.31l2.64,8.24,2.05,7.39c.79,2.84,1.09,5.62,1.01,8.6l-.14,5.34-.76,6.3-1.59,8.84c-.38,2.08-1.17,3.92-1.95,5.89l-4.1,10.26-6.18,13.96-3.08,7.1c-1.33,3.06-2.65,5.99-4.31,8.89l-5.42,9.45ZM15.41,58.46c.84.22,1.14.81,1.37,1.53,1.63-2.88,3.3-5.41,5.18-7.98s3.79-4.55,5.98-6.64l5.05-4.83,9.47-7.78c1.57-1.29,3.23-2.27,4.92-3.36l4.2-2.77c2.28-1.5,4.58-2.73,7.05-4.01l-3.99-6.2-2.46-2.92c-2.43-1.79-4.91-3.28-7.52-4.8-2.11-1.22-4.26-2-6.62-2.66l-4.42-1.24c-.97-.27-1.96,0-2.91.19-2.05.41-3.81,1.24-5.62,2.25-4.81,2.7-10.52,6.34-13.64,10.87l-2.14,3.1c-1.24,2.09-3.62,6.23-3.9,8.12l-.56,3.83c-.16,1.09-.04,2.12.07,3.23l.37,3.69,1.9,7.65c.68,2.73,2,5.1,4.02,7.02.88.84,1.58,1.78,2.54,2.53l1.23.33.42.82ZM191.83,58.61c.28-.57.74-1.09,1.33-1.38,2.05-1.02,3.49-2.63,4.44-4.72l2.67-5.87c.44-.97,1.06-1.84,1.32-2.9.69-2.82,1.13-5.62,1.44-8.49.35-3.27-.08-6.36-1.26-9.41-1.15-2.96-1.98-5.93-3.44-8.78-1.67-3.25-4.15-5.97-7.02-8.18-1.78-1.37-6.89-2.7-9.39-2.94l-2.14-.2-2.66.05-1.76.11c-1.76.11-3.45.47-5.06,1.21-1.73.79-3.55,1.32-5.15,2.42-3.96,2.71-7.18,6.5-9.32,10.78-.49.98-.54,2.08-1.77,2.56l3.24,1.89,7.58,4.73c2.49,1.55,4.77,3.14,7.03,5.01l5.24,4.34,4.47,4.82,3.41,4c1.28,1.5,2.06,3.23,3.09,4.9l3.72,6.06ZM107.63,195.13l4.79-.45,5.94-.46c2.7-.21,5.24-.6,7.91-1.04l6.26-1.03,7.83-1.89,6.32-2.35,5.96-2.48c2.7-1.43,5.17-3.04,7.65-4.81,1.9-1.36,3.58-2.84,5.11-4.63,2.18-2.54,4.08-5.21,5.85-8.06l.93-1.7,4.27-7.62c1.94-3.46,3.56-6.9,5.13-10.53l2.42-5.58,4.62-10.01,6.9-17.46c1.12-2.83,1.53-5.79,2.1-8.77.7-3.66.82-7.27,1.08-10.96l-.04-2c-.04-1.79-.09-3.47-.42-5.25-.6-3.2-1.46-6.25-2.4-9.37l-1.68-5.6c-.74-2.47-1.69-4.79-2.99-7l-1.95-3.31-2.66-4.41-2.44-4.09-2-3.24c-1.08-1.75-2.56-3.08-3.98-4.56l-5.82-6.07c-2.68-2.39-5.39-4.59-8.42-6.51l-6.31-4-7.09-4.22-3.44-1.92-5.17-2.25c-5.25-2.29-10.73-3.59-16.44-4.16-1.59-.16-3.02-.72-4.56-1.07-3.32-.75-6.63-.8-10.03-.8h-3.29s-9.79.78-9.79.78l-7.6.99c-3.48.45-6.42,1.95-9.96,2.21-3.07.58-5.91,1.47-8.79,2.67-3.21,1.34-6.39,2.45-9.51,3.99-2.15,1.06-4.18,2.08-6.17,3.42l-9.09,6.13-6.06,4.83-4.95,4.34-4.9,4.82c-1.88,1.85-3.46,3.77-4.99,5.91-3.24,4.53-7.47,11.36-8.76,16.62-.91,3.72-1.44,7.38-1.72,11.2l-1.04,14.07c-.35,4.71-.74,9.29-.16,14.02l1.28,10.44,1.26,6.87c.94,5.14,2.08,10.13,3.55,15.14l1.6,4.24,3.14,6.72c1.13,2.42,2.39,4.63,3.94,6.79l3.76,5.23c1.02,1.41,2,2.79,3.39,3.92,3.28,4.29,8.08,6.72,12.7,9.29l8.11,4.51c2.02,1.13,3.93,2.21,6.16,2.85l8.34,2.41c5.18,1.79,10.27,3.45,15.67,4.45,1.45.27,2.9.51,4.33.31,1.28-.18,2.48-.26,3.65.46.47,0,1.27,0,1.72-.13.91-.26,1.55-.22,2.46,0s1.88.07,2.82.09l5.66.12Z"/>
      <path d="M119.97,181.72c-6.1,1.6-12.18,2.29-18.41,2.22-3.2-.03-6.15-.36-9.24-1.04s-5.8-1.3-8.64-2.41c-3.49-1.37-6.7-3.02-10-4.79-4.09-2.19-9.27-5.12-11.78-8.97-2.53-3.87-4.4-9.76-5.57-14.33l-1.38-5.43c-.38-2.29-.31-4.5-.34-6.83-.05-3.45.09-6.73.48-10.15.25-2.21.72-4.18,1.69-6.18,1.43-2.93,3.11-5.62,5.26-8.09,2.09-2.4,4.1-4.76,6.52-6.8l2.76-1.91,5.28-3.43c4.29-2.47,9-4.01,13.84-5.01l5.87-.56,4.16.4,8.31.54,5.62.75c2.75.37,5.44.6,8.14,1.34l8.6,2.98c2.81.97,5.31,2.43,7.64,4.25,1.43,1.12,2.41,2.52,3.34,4.09,2.27,3.85,4.15,7.82,5.84,11.96l2.11,5.16c1.3,3.18,2.17,6.39,2.5,9.83.2,2.05.5,4.04.2,6.07l-.8,5.47-1.82,8.21-1.61,4.77c-.97,2.86-2.74,5.41-4.86,7.58-3.44,3.51-10.26,5.93-15.02,7.62l-8.7,2.71ZM97.82,179.9c6.86.87,17.26-.56,23.62-2.9l11.34-4.17c2.13-.79,4.03-1.83,5.88-3.12,2.99-2.08,5.01-4.93,6.09-8.44,1.47-4.74,2.62-9.48,3.38-14.42.68-4.46.26-8.99-.97-13.3l-2.8-7.51c-1.51-4.04-3.17-7.89-5.34-11.61-.94-1.62-1.95-3.12-3.49-4.21-1.35-.95-2.72-1.77-4.26-2.43-3.31-1.43-6.62-2.68-10.11-3.63-2.62-.71-5.23-.86-7.91-1.27-3.63-.55-7.16-.79-10.83-1.04l-5.53-.37c-5.84-.4-13.73,2.34-18.69,5.44l-2.47,1.75-4.73,3.24c-2.18,1.88-3.96,4.02-5.82,6.22-2.06,2.44-3.71,5.13-4.99,8.05-1.67,3.78-1.53,10.52-1.56,14.97-.02,2.78.16,5.34.98,8l2.69,8.64,2.4,5.29c.87,1.93,3.52,4.38,5.37,5.52l3.97,2.44c3.76,2.03,7.35,4.16,11.35,5.73s8.1,2.58,12.45,3.14Z"/>
      <path d="M145.5,89.05c-3.78.24-7.86.22-10.54-2.65-.86-.92-1.23-2.14-1.83-3.23-1.71-3.1-1.66-6.08-.23-9.31l.98-2.2c.75-1.68,1.68-3.15,3.29-4.16.3-1.34,1.29-2.17,2.49-2.72l5.16-2.37c1.19-.55,2.48-.54,3.74-.2,1.87.51,3.69,1.15,5.43,1.95,1.9.87,3.03,2.34,4.19,3.97,2.06,2.88,3.05,6.3,1.99,9.8-1.32,4.35-4.59,7.02-8.41,9.26-1.96,1.15-3.99,1.71-6.25,1.85ZM140.43,84.15l-1.49.55c1.06.7,2.42.84,3.75.84,1.93,0,3.88,0,5.72-.68,2-.74,3.69-2.02,5.29-3.39,1.31-1.12,2.26-2.52,2.84-4.1.91-2.48.27-4.8-1.15-6.9-1.23-1.83-2.77-3.27-5.04-3.67l.81,1.26c.37.57.25,1.48.13,2.14l-.32,1.88c2.62,1.95,2.21,5.05.48,7.73-2.32,3.59-6.98,6.08-11.02,4.35ZM142.31,75.21c1.83-1.2,3.53-2.37,5.11-3.79l1.55-.03c-.82-.3-1.3-.34-1.79-.84-1.95-1.97-5.93,1.24-7.36,4.86-.22.55-.12,1.17.14,1.66l2.35-1.85ZM137.98,70.83l-.34-.26c-.47.66-.88,1.18-.99,2.03l1.33-1.76ZM148.97,76.74c.22-.45.22-.87-.04-1.37l-3.97,2.85c-.95.68-1.77,1.41-2.43,2.39,2.47.89,5.37-1.63,6.45-3.86ZM137.14,83.01c-.04-.9-.04-1.4.32-2.13-1.45-1.02-2.12-2.48-2.14-4.35-.62,1.29-.34,2.76.35,3.95l1.47,2.53Z"/>
      <path d="M60.31,85.63c-.89.5-1.88.29-2.79.05-1.21-.32-2.33-1.01-2.76-2.16s-.4-2.16-.07-3.29c.32-1.07.65-2.19,1.75-2.77l2.57-.9c.82-.29,1.44.19,2.12.54,1,.51,1.82,1.18,1.96,2.4,1.28,2.12-.27,5.35-2.77,6.13Z"/>
      <path d="M100.45,152.34l-3.33,3.27c-2.15,2.11-4.48,3.8-7.37,4.79-.52.18-1.05.53-1.42.85-.84.74-1.62.33-2.39-.12-.37-.22-.73-.27-.91-.72-.29-.73-.27-1.6.16-2.25.46-.7,1.25-.82,2.08-1.01,1.31-.3,2.62-.84,3.81-1.49,1.48-.81,2.69-1.92,3.88-3.07l2.45-2.37c.77-.74,1.88-1.58,2.24-2.64.68-2,.76-4.17.7-6.26l-.11-3.48-1.65-.99c-.45-.27-1.02-.29-1.28-.92-.32-.77-.93-1.37-1.37-2.09l-2.33-3.79c-2.07-3.38-3.12-7.29-3.02-11.26-.46-.94-.29-1.88.15-2.81.6-.75,1.49-1.04,2.43-1.22,1.92-.36,3.79-.55,5.76-.3,2.18.28,4.25.66,6.32,1.36l10.69,3.63c.78.26,1.45.33,1.96,1.2,1,1.7,1.16,4.12.1,5.92l-1.84,2.67-2.45,2.92c-.25,1.19-1.15,2.11-2.37,2.4l-2.05,1.72c-1.43,1.2-3.16,1.92-5,2.23.06,3.18-.17,6.19-.64,9.26-.23,1.51.03,2.92.85,4.18,2.69,4.13,7.64,6.63,12.54,7.18l4.94.55c1.01.11,1.56.89,1.57,1.84,0,.8-.73,1.64-1.67,1.59l-2.85-.16c-3.33-.18-6.45-.75-9.51-2.09-3.45-1.52-6.36-3.94-8.36-7.15l-.72-1.38Z"/>
    </g>
  </g>
</svg>