<?xml version="1.0" encoding="UTF-8"?>
<svg id="Layer_2" data-name="Layer 2" xmlns="http://www.w3.org/2000/svg" viewBox="0 0 225.33 200">
  <g id="Layer_1-2" data-name="Layer 1">
    <g>
      <path d="M58.96,169.11l.03,2.94,4,4.21c.13.14.11.58,0,.73-.12.17-.65.24-.81.08l-3.2-3.18-.54,7.07c-.02.23-.47.48-.67.47-.3-.02-.57-.32-.55-.68l.47-8.2-4.99-4.46c-2.22-1.98-4.73-3.45-7.4-4.76-.4-.2-.55-.67-.32-1.02s.71-.33,1.07-.12l5.11,3.08c2.31,1.66,4.32,3.46,6.48,5.46l-.07-3.05-4.95-3.48c-2.1-1.47-3.74-3.32-5.23-5.41l-3.2-4.97c-2.06-1.53-3.87-3.12-5.23-5.32l-4.31-6.94-1.78-3.26c-.94,3.49-1.61,6.81-2.1,10.29-.05.33-.25.57-.56.62-.21.03-.59-.34-.55-.59l.51-3.73,1.89-8.17-1.42-3.05-1.58-4.84c-.48-1.46-1.26-2.72-1.65-4.22l-1.03-3.99c-.46-1.8-.81-3.56-.94-5.43l-.29-4.24c-.16-2.32-.38-4.57-.82-6.84l-5.36,11.38-.99,2.36c-.13.3-.22.66-.44.78-.29.16-.76.11-.95-.07-.21-.21-.35-.75-.23-1.03l1.63-3.67,6.04-12.81c-.21-2.84-.46-5.55-.39-8.42s.56-5.36,1.04-8.05l-4.73-1.07c-3.72-.84-7.68-4.66-10.01-7.66-1.14-1.47-1.84-3.1-2.72-4.72-.72-1.33-1.31-2.61-1.49-4.15-.34-2.89-.52-5.69-.58-8.59L.25,55.53c-.23-.13-.3-.61-.21-.81.1-.24.62-.53.89-.37l4.18,2.36.12-4.43c.05-1.68-.3-3.3.15-4.97.59-2.21,1.24-4.35,2.08-6.49l2.3-5.77c.58-1.46,1.33-2.74,2.34-3.95,3.99-4.78,9.61-10.5,14.77-13.91,1.07-.71,2.19-1.26,3.38-1.74.93-.38,1.89-.25,2.79.2,2.71-1.4,5.67-2.28,8.75-2.51l4.14-.31c3.81-.28,8.26-.28,11.7,1.56l8.21-4.33,3.44-1.71c.3-.15.82.08.92.33.15.39,0,.77-.37,1.02l-.8.2-9.96,5.24c5.55,3.52,8.74,8.51,11.87,14.18l3.01-1.82c1.18-.71,2.44-1.1,3.35-.15,2.67-1.41,5.29-2.64,7.98-3.8-1.36-.58.84-2.69,1.99-3.48l5.68-3.93,7.17-5.63,4.9-3.6-6.95,1.93c-.58.16-1.17-.17-1.36-.65-.16-.39-.03-1.16.53-1.37,2.54-.93,5.11-1.67,7.76-2.34l4.22-1.05c.47-.12,1.04.13,1.27.46.28.41.27,1.12-.14,1.46l-2.85,2.4-5.55,4.13c-.06-.02.11.05.2.09,1.02-.05,2.03-.05,2.97.28l2.76.97c3.43,1.2,6.73,2.51,10.33,3.42,3.69-2.55,8.18-5.74,12.51-6.82.47-.12.97.1,1.12.48.19.48-.06.9-.52,1.17-.35.21-.65.31-1.04.04l-3.33,1.48c-2.32,1.23-4.49,2.56-6.67,4.11,2.95.47,5.71.7,8.65.75,5.5.09,10.86.77,16.11,2.11l2.29-2.85,1.62-1.84,3.05-3.47s.14-.2.1-.21l-.25-.05-1.4-.44c-.3-.09-.51-.62-.38-.9s.52-.45.88-.45c.55,0,.97-.1,1.13.56h1.26c1.88-1.94,3.86-3.67,6.12-5.15,1.48-.98,3.02-1.63,4.7-2.23,3.3-1.18,6.57-2.21,10-2.92.61-.12,1.1.23,1.25.72.13.43-.06,1.17-.63,1.31-3.47.85-6.83,1.84-10.2,3.1-2.26.84-4.29,1.95-6.07,3.56l9.51-3.69c4.01-1.55,9.61-2.11,13.95-1.67,2.75.28,5.35.85,7.98,1.61,1.81.52,3.46,1.27,5.09,2.21,2.7,1.57,5.22,3.3,7.61,5.32l3.69,3.63c2.16,2.13,5.53,3.47,7.41,5.9,1.31,1.69,2.2,3.51,3.16,5.43,1.15,2.3,2.1,4.75,1.88,7.37l-.55,6.42c2.02-.76,3.95-1.47,6.03-1.91.5-.11.97.15,1.05.55.11.56-.28.82-.82.95l-1.65.38-4.61,1.68-.3.35c-.38,2.35-.96,4.51-1.68,6.78-.95,3.44-2.5,6.55-4.78,9.31-.15.15-.15.2,0,.16l2.77-1.02c.5-.19,1.08.19,1.23.56.22.56-.1,1.13-.7,1.27-.78.19-1.55.42-2.3.79l-6.07,3.04-8.33,4.33-4.57,2.75,2.01,4.38s.08.25.11.22l.22-.25,1.83-2.51c.19-.26.48-.42.75-.42.25,0,.64.57.44.85l-2.63,3.61,2.45,6.22c.08.19-.04.57-.19.64-.22.09-.57-.02-.77-.21l-2.39-4.79c0-.06-.27-.21-.32-.15l-2.29,3.59c-.1.16-.23.49-.22.62l.09,1.55c.04.76.48,1.56.72,2.32l.08.26c.02.06.17-.02.25-.06l2.7-1.67c1.35-.83,2.72-1.51,4.19-2.1.32-.13.77,0,.92.26s.08.66-.16.92c-.5.54.26.92-.44,1.85l-4.07,6.17-.17.19s.11.18.16.14l.28-.18,6.41-3.08,2.8-.95c.26-.09.78-.07.9.17.05.1-.05.45-.11.53l-3.99,1.65-6.98,3.55.95,2.38c1.31,3.27,2.19,6.62,2.38,10.15l.27,4.9c.09,1.67,2.08,3.01,1.14,4.46l-2.16,3.32-2.73,5.99c-.68,1.49-1.45,2.81-1.99,4.51l6.69-4.04.19-.08,1.82-.73c.18-.07.61-.05.75.04.22.15.19.72-.07.82l-1.13.45-.21.08-.17.08-3.3,1.92-.17.12-4.56,2.79c-.69,2.69-1.47,5.44-2.76,8.06l-.09.17-.08.19-.07.19-.07.18-.09.19-.96,1.92-.15.22s-.05.1-.01.09l.25-.08,6.98-3.63,3.48-1.79c.36-.18.91.1,1.03.4.11.25.08.87-.27,1.05l-12.88,6.61-1.83,3-4.17,4.92-.16.15-2.35,2.12-.15.21-5.19,5.7-.17.24s-.14.2-.09.18l.33-.12.17-.09.17-.09,2.99-1.36c2.02-.92,4.08-1.52,6.29-1.89.25-.04.62.24.65.44.03.23-.19.59-.44.65-2.03.48-3.89,1.07-5.81,1.9l-6.87,3.46c-.82,1.22-1.89,2.09-3.26,2.53l-1.63,1.08c-.34.22-.52.56-.75.92-.65,1-1.57,1.75-2.53,2.45-1.23.89-2.32,1.82-3.38,2.9-1.96,1.98-4.1,3.55-6.38,5.16-2.84,2-5.84,3.58-9.22,4.46-.56.15-1.09-.07-1.5-.44-3.15,1.11-6.33,2.07-9.67,2.33-2.07.16-4.01-.03-6.09-.17-.39-.03-.93.21-1.31.34-2.23.98-4.42,1.78-6.85,2.26-3,1.21-5.84,2.56-8.71,4.08-.17.09-.34.34-.38.57-.37,2.03-.59,4.36-.69,6.36,0,.17-.47.32-.56.22-.11-.12-.21-.41-.22-.62l-.06-2.08.28-2.87.07-.38c.01-.07-.08-.23-.14-.2l-.3.19-1.31.87-2.17,1.69c-.15.11-.63.02-.68-.15-.08-.26.06-.57.29-.76,1.48-1.24,2.95-2.34,4.61-3.31l.09-.57c-1.24-.18-2.4-.37-3.5-.85-.1-.18-.33-.48-.5-.51l-2.17-.43-7.13-1.74c-.26-.06-.57-.03-.7.13l-2.14,2.66c-.13.16-.42.34-.59.36s-.55-.23-.58-.4c-.03-.2.08-.57.19-.7l1.96-2.47-1.83-.5c-2.51-.63-4.87-1.5-7.18-2.67-.05-.04-.38-.28-.4-.19l-.06.48-.03.24-.34,2.62-.21,1.63c-.01.11-.44.28-.44.24l-.31-.24.41-5.51-4.44-2.68c-.18-.11-.38-.22-.47-.13l-1,1.03c-.24-.08-.55-.29-.52-.44s.18-.47.29-.59l.39-.43c.06-.06.16-.28.09-.33l-.42-.27-.18-.12-1.76-1.27-4.48-2.06-1-.54-3.76-2.25-2.94-2.07-3.92-2.87-.27-.18c-.06-.04-.08.31-.08.39ZM201.71,36.59l2.59-.84c.22-.07.63.24.66.44.02.18-.15.59-.32.65l-2.4.92c.75,1.89,1.08,3.75,1.06,5.78s-.07,3.87-.4,5.82c-1.17,6.8-5.86,11.65-12.62,12.96l.17,1.31,1.6,4.29c4.02-1.2,7.59-2.83,11.15-4.84,4.55-2.57,8.14-6.48,9.97-11.41.93-2.49,1.54-4.96,2.08-7.52l-5.58,2.6c-.35.16-.86.04-1.04-.23-.17-.25-.16-.74.07-.99.26-.28.67-.37,1.01-.53l5.88-2.69.3-2.49.46-4.96c.16-1.71-.23-3.46-.98-5l-2.24-4.54c-.95-1.94-2.52-3.21-4.26-4.46l-3.65-2.62-3.69-3.62c-2.16-1.94-4.51-3.52-6.98-5.05-2.02-1.25-4.09-2.12-6.4-2.71-2.64-.68-5.22-1.22-7.96-1.34-3.7-.15-7.19.33-10.7,1.43l-6.01,2.19c.2.31.34.7.26.94-.14.39-.81.71-1.24.59-.12-.03-.21-.25-.32-.46-.94-.07-1.86.23-2.73.67-1.75.88-3.42,1.78-5.03,2.92l-2.03,4.64-.95,1.23c-.41.53-.68,1.46-.12,1.97l6.67,2.3c1.9.8,3.67,1.75,5.4,2.81l1.13-.82,4.81-3.39c3.3-2.33,7.47-2.82,11.49-2.86,3.35-.03,6.86.63,9.67,2.57l2.48-2.23c.18-.16.7-.09.83.08.15.2.14.65-.02.86l-2.17,2.03,4.23,3.77,5.47-3.77c.33-.23.52-.57.85-.58s.93.08,1.03.36c.13.35.18.79.15,1.11-.06.54-.74.73-1.18.86l-4.2,4.65,2.66,4.97,1.1,2.19ZM105.44,19.61c3.17-.54,6.26-.43,9.37-.48l1.83-1.37c-2.54-.72-4.97-1.65-7.47-2.59l-4.37-1.66c-1.52-.58-3.17-.34-4.61.42-.75.4-1.66.72-2.31,1.28l-6.96,6.04c1.8-.4,3.35-.76,5.09-.79l4.87-.08,4.55-.77ZM23.86,41.46l-1.22-.37c-.41-.12-.66-.54-.54-.9.08-.24.59-.6.88-.49l1.7.65,2.78-3.16-2.68-5.87c-.82-.16-.4-.64-.48-1.61-.03-.4.18-.73.57-.78.24-.03.59.24.71.5.11.58.23,1.07.46,1.59l2.38,5.22c1.9-1.8,3.84-3.43,6.15-4.69,7.87-4.28,16.63-3.09,22.39,3.76.5.6,1.04,1.04,1.7,1.29l5.64-3.38,4.63-2.7c-3.23-5.72-6.42-11.02-12.36-14.09l-9.26,4.92-1.64.59c-.33-.1-.65-.28-.74-.53-.07-.19.1-.6.25-.76.31-.31.82-.13,1.09-.26l2.13-1.02,6.64-3.62c-3.5-1.16-7.99-.73-11.68-.49-3.16.2-6.18.79-8.99,2.26-6.97,3.62-12.73,8.33-16.76,15.12-1.37,2.3-2.79,4.37-4.43,6.47-1.91,2.44-3.42,5.05-4.44,7.97-.81,2.33-1.12,4.63-1.02,7.1l.19,4.47c1.99,1.45,3.75,3.08,5.14,5.13.11.17-.08.75-.27.78-.18.02-.5-.01-.7-.07-1.21-1.57-2.46-2.89-4.1-4.12l.23,5.63c.05,1.25.45,2.38,1.03,3.48.72,1.35,1.32,2.71,2.15,4,1.16,1.78,2.66,3.18,4.19,4.64,1.64,1.56,3.5,2.63,5.71,3.13l3.93.9,1.18-4.08,2.25-5.9c-3.79-1.93-7.39-3.22-8.55-7.52-.79-2.62-2.3-3.76-2.54-6.69-.29-3.39.66-6.55,2.3-9.49l1.61-3.39,2.39-3.64ZM151.49,17.5l.68-1.66c-.91.67-1.2,1.66-1.43,2.61.36-.28.6-.6.75-.96ZM142.92,22.95l.61-.99c-3.73-.92-7.48-1.48-11.38-1.85l-8.4-.81-5.21-.96-1.17.84c3.8.17,7.34.6,11.05,1.06l7.41.93c.61-.54,1.37-.38,1.84.21l5.24,1.58ZM86.21,22.91c.98-.7,1.7-1.36,2.39-2.19-.98.61-1.79,1.35-2.39,2.19ZM128.14,169.96l-3.07-4.3c-.82-1.15-1.63-2.27-1.99-3.66l-2.18-8.28-.87-3.98c-4.18,1.83-8.33,2.96-12.71,3.9l-14.02,3c-4.15.89-10.05,2-13.95.82-2.11-.64-4.07-1.55-5.83-2.87-3.87-2.91-7.4-8.99-9.87-13.3-.4-.69-.59-1.29-.08-1.99-.07-.14-.04-.6.12-.57.87.13,1.67.61,2.21,1.48l4.12,6.61c1.24,1.99,2.72,3.7,4.45,5.29.98.9,2.11,1.51,3.3,2.09,1.93.93,3.91,1.32,6.09,1.25,3.34-.11,6.51-.69,9.78-1.4l10.82-2.35,7.16-1.55.1-.3-1.2-4.57c-.11-1.42-.51-2.69-.98-4.03l-3.02-8.61-1.12-4.89c-.49-.15-1-.46-1.16-.91l-.68-1.91c-5.51.95-11.13-.36-15.51-3.8-2.22-1.74-2.72-4.52-2.46-7.27.34-3.55,3.04-5.34,5.96-6.98,1.5-2.95,3.59-5.52,6.4-7.3,3.72-2.35,7.97-3.46,12.36-3.28,3.29.14,6.44.7,9.57,1.68s6.17,2.44,5.58,5.94c-.21,1.21-.83,2.26-1.52,3.28,2.35,3.54.29,6.66-2.66,9.19-4.05,3.47-8.71,5.93-13.8,7.59.47,1.36,1.6,1.9,1.28,2.74-.09.24-.41.47-.77.65l1.27,5.58,2.51,6.96c.54,1.48.96,2.9,1.33,4.44l1.15,4.72s.09.21.13.19l.23-.08c3.11-1.04,5.96-2.51,8.96-3.87l6.78-3.07,7.24-3.02,7.45-3.43,3.32-1.67c1.14-.57,2.07-1.38,3.01-2.25l2.99-2.78c.8-.75,1.52-1.53,2.25-2.36l2.77-3.13c.9-1.02,1.69-2.06,2.46-3.18l1.49-2.2c.41-.6,1.32-.57,1.74-.18.59.54.4,1.19,0,1.79l-2.7,4.19-.87,1.83c-.4.84-.35,1.71.15,2.5.7,1.11,1.23,2.23,1.6,3.52.94,3.2,1.99,6.26,3.36,9.31,1.85,4.13,3.15,9.72,2.72,14.16l-.8,4.83.25-.24,3.98-4.62,3.13-3.54.13-.15,7.58-9.13,1.07-4.81s-.26,0-.37.07l-4.47,2.59c-1.34.77-2.67,1.45-4.13,1.93-.4.13-.86-.27-.83-.63.04-.5,1.02-1.09,1.63-.86l8.44-4.72,2.84-16.51c.01-.06-.05-.38-.1-.34l-.25.19c-.13.1-.45.23-.6.18s-.37-.33-.35-.49c.02-.14.19-.43.31-.51l.94-.61c.18-.12.62-.05.78.06s.45.51.43.71l-.46,4.5-1.94,11.35-.1.38c-.01.06.18,0,.23-.04l.19-.12.16-.1,1.75-1.08c.55-.34,1.12-.84,1.36-1.37l.1-.22,1.31-2.8c.3-.65.25-1.55.36-2.3l1.01-7.1.72-4.53c.6-3.78.73-7.52.42-11.32-.71-1.2-1.43-2.28-2.37-3.28l-.19-.2s-.22.1-.25.16l-1.59,2.72-1.39,3.09c-.58,1.29-.89,2.66-1.06,4.04l.28.05.56.1c.12.02.19.39.14.54-.14.46-.84.75-1.36.58-2.68-.9,1.89-9.63,3.51-12.03-.6-.27-.97-.53-1.33-1.01l-3.42,2c-.23.14-.74.04-.93-.08-.18-.11-.38-.65-.24-.85,1.92-2.69,4.06-5.1,6.47-7.36.06-.06.12-.26.07-.34l-.71-1.34-7.13,5.09-.97,2.27c-.03.07-.27.26-.34.27-.2.03-.66-.14-.64-.33l.06-.73c.02-.11.05-.23.04-.19-.7.43-1.42.56-1.65.13-.01-.02-.06-.16-.06-.18v-.22s0-.25,0-.25l3.07-2.67.04-.25c1.28-2.81,2.79-5.44,4.55-7.98l.1-.18s.04-.18.04-.21l-.06-.21-.08-.19-.08-.18-3.61-9.19-1.94-4.72-3.87-9.18-3.86-9.46-1.89-4.27-1.62-2.85-.1-.16-1.38-2.23-5.65-8.04c-.69-.99-1.5-1.85-2.53-2.47-2.23-1.34-4.47-2.52-6.96-3.29l-7.27-2.25c.34.48.47.93.27,1.38-.18.39-.8.85-1.3.57l-2.43-1.37c-.54-.31-.84-.65-1.1-1.24l-1.63-.67-4.15-.89c-2.02.44-3.69,1.61-5.18,2.98-.18.17-.61.07-.69-.11-.33-.73,2.07-2.31,3.36-3.08.29-.05.15-.18-.09-.19-2.23-.11-4.29.44-6.37,1.11l-.2.06-4.7,1.97c-2.93,1.44-5.62,3.1-8.09,5.24l-8.23,7.13c-.26.23-.76.18-.94-.03-.24-.28-.23-.73.05-1,3-2.81,6-5.49,9.23-8.06,4.31-3.42,9.1-5.98,14.49-7.49.25-.1-.02-.17-.19-.14l-3.76-.51-.25-.03c-3.56-.43-7.02-.7-10.62-.65-2.93,2.35-5.6,4.79-8.27,7.38-.36.35-.86.45-1.17.1s-.17-.78.17-1.09l6.87-6.35c-2.43.06-4.77.15-7.09.63-.59.12-1.14.4-1.78.42-1.34.04-2.6.22-3.9.54-5.36,1.33-10.36,3.58-15.28,6.23l6.12-.34c1.84.02,3.6.18,5.33.76,1.22.41,2.91,1.34,2.56,2.12-.08.17-.42.35-.63.36-.19,0-.44-.35-.62-.46-3.74-2.38-12.44-1.36-16.92-.1l-3.39,2.29c-.47.32-1.02.17-1.46-.19-3.21,1.74-6.32,3.55-9.21,5.78-2.29,1.76-4.27,3.71-6.33,5.71-.51.49-.98.83-1.73.82-4.4,3.47-8.18,7.45-11.57,11.89-1.27,1.66-2.6,3.16-3.58,5l-4,7.53c-1.69,2.94-3.02,5.94-4.52,9.04.73-.09,1.18.18,1.36.8.21.72.09,1.63-.56,2.11l-1.48,1.09c-1.21,2.37-2.37,4.72-3.38,7.21l-1.28,3.86-.44,2.19-.02.35s.06.04.09.01l.21-.2c.15-.14.64-.14.78,0,.38.4.22,1.48-.4,1.59-.39,1.43-.57,2.9-.59,4.42-.06,3.66.25,7.33,1.52,10.67l.19-.72c.05-.18.37-.41.58-.41.97.04-.19,2.33.25,3.34l1.69,3.96,1-5.79,1.53-7.72-.04-.33s-.06-.05-.09-.02l-.22.21c-.13.12-.55,0-.62-.17-.07-.16.04-.57.18-.7l.84-.73c.14-.12.62-.09.76.03s.38.46.35.66l-.6,4.59-1.31,6.49-.68,5.98c-.06.52-.03,1,.2,1.44.6-2.78,1.23-5.34,2.32-7.87l2.26-5.29c.14-.34.65-.45.93-.27.2.13.26.53.14.83l-2.93,7.45c-.84,2.55-1.46,5.07-1.76,7.72.59.56,1.88.93,2.43.32l6-6.61c.27-.3.78-.33,1.04-.13.23.18.27.7.05.94l-5.14,5.55,1.01-.08c.3-.02.71.13.77.41.07.33-.18.62-.45.81-.39.26-.63.28-1.01.08l-1.66.43-1.65,2.59,2.59,7.26c2.07,5.81,3.3,7.84,7.67,12.06l7.62,7.36,3.36,4.08c1.56,1.9,3.29,3.53,5.33,4.92l6.94,4.72,7.24,5.29c1.05.77,2.58.73,3.8,1.11l4.72-5.43,1.2-7.02,1.09-4.48c.05-.19.56-.31.69-.2.11.09.22.38.2.54l-1.75,9.41h.19c3.54-3.85,7.28-7.36,11.26-10.75.21-.18.64-.13.8,0s.32.65.17.85c-3.2,4.38-5.47,9.25-6.66,14.69l6.62-5.26,5.14-3.84.88-1.3c.08-.12.4-.35.53-.29l.51.26,3.79-2.07c.28-.15.83.02.99.22.69.87-1,4.32-1.83,5.9-2.16,4.13-4.69,7.94-7.57,11.66l6.05.82,1-2.51c.07-.17.53-.33.69-.24.17.09.38.46.34.64l-.24,1.24c-.36.18-.62.56-.57,1.04l2.14.24c2.44-2.31,4.9-4.44,7.57-6.42,1.04-.77,2.7-1.96,3.36-1.5.17.12.38.64.27.86l-1.45,2.94-2.98,4.93,1.68.09,6.16-.45c.31-.02.82.21.98.41s.21.62.24.96l4.92.29,3.72-.62c1.55-.26,3.01-.75,4.37-1.51l3.77-2.11-13.89,2.36c-1.33.23-2.54.25-3.88.15-.35-.03-.75-.37-.83-.65-.17-.69.7-1.13,1.73-1.25l.4.48,5.16-.88,7.71-1.4c-2.81-.95-5.28-2.1-7.52-3.87-1.6-1.26-2.76-2.84-3.97-4.54ZM189.17,56.41c1.93-.82,3.58-1.65,5.31-2.65,3.51-4.38,6.05-8.85,4.41-14.61l-6.06,2.58-3.67,1.37c-.5,0-1-.06-1.3-.37-.93-.97,1.44-4.9,2.48-6.19l5.18-6.39-.78-1.06-4.06,2.42c-1.2.71-2.43,1.35-3.74,1.75-.75.23-1.51,0-1.85-.67-.33-3.12,1.81-6.27,3.8-8.57-1.67-1.07-3.46-1.63-5.42-1.84-3.2-.34-6.38-.15-9.47.57l5.86.05c.43,0,.82.52.78.8-.06.4-.42.61-.84.62l-5.38.09c-.86.17-1.65.47-2.33,1.03-1.63,1.37-3.14,2.83-4.48,4.51,1.41,1.11,2.63,2.28,3.76,3.65.75.91,1.51,1.7,2.41,2.47,2.61,2.34,4.57,5.14,5.99,8.32l3.91,4.18c1.51,1.62,2.67,3.47,3.74,5.38,2.06-2.06,4.06-3.95,6.36-5.52.38-.26.93-.04,1.07.3.13.32,0,.7-.31.94l-2.77,2.1-3.58,3.41c.24.53.51.9.97,1.3ZM147.67,24.35l-.23-1.39-1.53-.42-.75,1.13,2.51.69ZM152.48,25.72l-1.82-1.84-.81-.21c.18.5.15.82-.2,1.19l2.84.87ZM165.08,27.93l1.34.94c1.6-1.92,3.25-3.45,5.07-5.05-1.52.64-2.81,1.5-4.1,2.44l-2.31,1.67ZM188.56,31.19l5.28-3.09-3.84-3.31-2.63,3.79c-.49,1.13-.98,2.15-.86,3.42l2.05-.81ZM158.79,28.18l-.58-.97c-.37-.48-.9-.89-1.46-1.14-.09.5-.14.68-.39,1.06l2.43,1.04ZM197.19,28.36l1.59-1.9-2.07,1.31.47.59ZM164.53,31.63l.55-.99-3.71-2.5,1.89,2.5,1.27.99ZM11.5,37.18c1.17-1.42,2.1-2.8,3.03-4.27l1.83-3.09-1.95,2.07c-1.34,1.54-2.4,3.25-2.91,5.28ZM45.31,34.44l3.25-.42,1.37-1.36c-4.76-2.47-10.87-1.43-15.26,1.41-1.75,1.13-3.24,2.43-4.74,3.86l.18.65c1-1.01,1.99-1.98,3.15-2.83,3.54-2.59,7.9-2.41,12.05-1.31ZM193.26,40.04l5.33-2.21-1.6-4.92-.67-1.65-5.05,6.46c-.93,1.19-1.61,2.44-2.07,3.92l4.06-1.6ZM170.24,35.75c-1.16-1.53-2.42-2.81-3.85-4-.12.62-.41.95-1.01,1.16l4.86,2.84ZM53.63,35.2c-.87-.86-1.82-1.52-2.74-2.06l-.47,1.22,3.2.84ZM30.51,40.94c3.93-2.25,7.51-4.15,11.53-5.55l-2.52-.14c-3.35-.19-7.29,2.77-9.01,5.69ZM25.54,61.04l-.34.54,4.7,5.55c.19.22.6.58.87.34,1.76-3.69,3.94-7,6.44-10.22,2.19-2.82,4.27-5.56,6.64-8.22,2.67-3.03,5.48-5.77,8.73-8.21-1.07-1.37-2.23-2.66-3.85-3.52-2.17,3.56-4.53,6.82-7.08,10.03-.19.34-.57.42-.88.28-.2-.09-.36-.59-.19-.81,2.51-3.26,4.83-6.52,7.03-10.02-.76-.26-1.59-.68-2.32-.7-1.45.16-2.78.64-4.16,1.15-3.5,1.3-6.73,2.97-9.95,4.86l1.83,3.75,4.04,7.49c.17.25.14.7-.04.83-.26.19-.63.17-.92,0-1.53-2.58-2.91-5.1-4.23-7.87l-3.08-2.15-2.74,4.38c-1.55,2.47-2.65,5.17-2.92,8.1-.11,1.22.51,2.31,1.04,3.33.45-.28.9-.3,1.24,0,.29.24.34.79.14,1.11ZM53.7,39.96l2.26-1.6c-1.41-.9-2.96-1.64-4.58-1.95l-.71.42c1.07.94,2.11,2,3.03,3.13ZM175.42,42.91c.02-.41-.22-.94-.56-1.23-2.06-1.84-4.26-3.45-6.78-4.84,2.61,3.83,5.04,7.48,7.1,11.5l.24-5.42ZM56,43.09l2.06-2.45-.27-.3-2.53,1.8.74.95ZM26.02,43.67c.19-.13.38-.66.44-.82l-.51-.31-1.47,2.17,1.53-1.03ZM30.6,43.91l-.46-1.22-.66.42,1.12.8ZM36.84,67.99l2.88-5.54c.74-1.42,1.58-2.71,2.58-3.94l4.18-5.18c2.68-3.32,5.81-6.15,9.14-8.81l-1.38-1.64c-5.9,4.41-10.43,10.24-14.87,16.04-2.06,2.7-3.9,5.37-5.46,8.54l1.89-.21c.51-.06.81.2,1.03.75ZM183.84,60.04l.4-1.16c-.63-.3-.72-.95-.48-1.25l.63-.79-3.09-5.06-2.89-5.44c-.39-.73-.79-1.38-1.31-2.05l-.12,6.31c-.01.78.21,1.76.72,2.33,1.33,1.51,4.45,2.59,5.13,5.26l.61,2.42c.1-.11.34-.4.4-.56ZM200.41,49.87c.22-1.55.41-2.89.37-4.51-.5,2.06-1.36,3.91-2.43,5.89l2.06-1.38ZM21.74,53.28l3.08-7.31c-.78.52-1.58,1.06-2.06,1.82-1.06,1.67-1.65,3.43-1.02,5.49ZM196.2,57.01c1.34-1.3,2.5-2.73,3.23-4.55l-4.55,2.98-3.39,3.65.18.34c.15.28,3.49-1.43,4.53-2.42ZM21.08,57.95l.1-2.69-.74-1.88c-.24.89-.36,1.72-.43,2.59-.12,1.39-.07,2.78.72,4.02l.34-2.05ZM179.31,56.33l-1.24-.8,3.88,8.81c-.13-2.93-.05-6.35-2.64-8.01ZM188.46,59.75l.9-.7-.85-.88-.66.25.61,1.34ZM186.32,60.17l-.74-1.31-.58,1.33,1.33-.02ZM187.92,69.41l2.12-.75-2.44-6.13-3.14.06c-.13,1.43-.3,2.74-.06,4.02.2,1.06.39,2.03.88,2.99l1.27.88c.33-.62.73-.84,1.38-1.07ZM26.75,66.92l-3.24-4.03-1.29.43c.32,1.78,2.66,3.04,4.53,3.61ZM32.73,71.3c.79.28,1.28.47,1.81.87l1.78-3.32-3.2.46c-.44.06-.5.98-.27,1.25l-.11.73ZM28.9,69.09l-1.34-.14,1.99.92-.66-.78ZM190.25,74.29c.29-1.21.26-2.24.16-3.28l-2.06.76c.99.6,1.49,1.52,1.9,2.52ZM186.3,72.35l2.28,5.23c.89-2.13-.05-4.15-2.28-5.23ZM191.97,81.4l2.51-3.97-2.46-4.72c-.81,1.45-1.05,2.97-.97,4.54l.92,4.15ZM28.09,82.63c.71.06,1.13.04,1.62-.08l3.85-8.4-2.24-.85c-.05.68-.14,1.14-.34,1.66l-.96,1.72c-.88,1.92-1.35,3.88-1.92,5.95ZM191.08,82.18l-.8-4.01-.48,1.8,1.28,2.21ZM27.15,89.82l1.54-4.73-1.1-.04-.31,2.33-.13,2.45ZM194.21,89.4l4.41-3.84-4.82,2.77.41,1.07ZM189.73,89.71l-1.69-3.04c-1.52,2.29-2.86,4.47-3.86,6.9l5.55-3.86ZM195.19,92.54l2.61-3.84c.16-.23.25-.6.24-.89l-3.49,2.94.64,1.79ZM188.7,97.38l3.51-2-.65-1.91-3.46,3.74-.9,1.07,1.5-.89ZM191.1,98.65l1.39-2.03-2.55,1.49,1.16.54ZM119.67,100.68c1.58.83,2.28,2.49,2.16,4.24l.79.69c.98-1.41,1.37-3.21.02-4.27-.55-.43-1.15-.75-1.84-1-3.56-1.29-7.26-1.97-11.08-2.05-5.43-.11-11.04,2.13-14.5,6.37l5.06-2.39,6.16-2.17c2.51-.65,5.02-.76,7.6-.55.55.04,1.12.34,1.58.58,1.39-.09,2.74-.15,4.05.53ZM193.4,100.29l-.46-2.1-.73,1.01,1.19,1.09ZM91.67,119.11l-.19-1.79c-1.06.31-2.02.04-2.21-.73-.09-.38,0-1.06.33-1.32l2.61-2.08c-.45-.04-.86-.32-.98-.71-.09-.28-.01-.98.3-1.19l6.19-4.17c3.2-1.88,6.57-3.21,10.08-4.42l3.42-1.57c-4.99.14-10.04,2.46-14.03,4.65.45.07.72.11.91.21.16.08.08.58-.08.7-3.44.57-5.91,1.94-8.38,4.4-.65.64-1.33,1.4-1.54,2.3-.31,1.35-.2,2.74,0,4.08.09.62.55,1.19,1.18,1.29l2.41.38ZM196.46,104.41l-.67-3.11-.11.08.21,1.51c.08.56.21,1.05.56,1.51ZM119.84,103.53c-.36-1.16-1.33-1.49-2.3-1.67l.63.88,1.68.79ZM112.15,107.31l1.68-3.43h-1.27s-3.68,3.3-3.68,3.3c1.22-.05,2.18-.11,3.27.13ZM116.99,104.5l-1.31-.49-.97,2.57,2.27-2.08ZM119.39,105.89l-.63-.45-.74,1.05,1.37-.6ZM197.05,110.07l-.83-1.75c-.08,2.99-.33,5.76-.78,8.64l-.89,5.63c2.19-4.2,2.85-7.84,2.5-12.52ZM118.01,110.21c.4-.6.63-.93.87-1.68l-1.28.92.42.75ZM120.68,114.01c1.3-1.05,2.87-3.48,1.8-5.08l-.96.89c-.62,2.44-1.96,4.45-3.6,6.4l2.75-2.22ZM109.05,110.99l1.77-1.85-3.31.41-.85,1.88,2.39-.43ZM104.27,112.08l.79-1.83c-.35.05-.81.12-.99.25l-3.88,2.83,4.08-1.25ZM114.96,112.36c.79-.31,1.06-.71,1.12-1.54l-1.37,1.18.26.37ZM29.16,119.19c0-.93.26-2.05-.08-2.97l-.92-2.51c-.03,1.88.32,3.76.91,5.56l.09-.07ZM115.29,115.92c.26-.22.65-.58.75-.82l.44-1.14-1.09.67-.1,1.3ZM112.83,117.37c.44-.54.6-1.03.69-1.58l-2.05,1.15.18.65c.33.05.99.01,1.18-.21ZM106.7,121.94c1.94-.64,3.61-1.36,5.29-2.39-1.16-.13-1.93-.58-2.26-1.7l-3.2,3.22.17.87ZM29.23,119.26l-.13.08.68,2.49c.97,3.55,2.11,6.97,3.43,10.39-.2-1.57-.4-2.96-.28-4.53l-.44-1.52c-1.32-1.46-2.12-3.14-2.68-5.01l-.57-1.91ZM91.89,120.89c-.52-.22-.89-.63-1.43-.52l2.45,1.26c-.13-.59-.58-.56-1.02-.74ZM102.59,121.99c-.95-.29-1.5-.83-1.68-1.8l-1.05.49c-1.33.75-2.61,1.4-4.13,1.88,2.26.65,4.63.76,7.06.37l-.21-.94ZM123.54,153.7l2.04,7.47c.32,1.16.98,2.11,1.68,3.07l3.02,4.16c.9,1.24,1.72,2.51,2.87,3.53,3.95,3.5,9.12,4.61,14.23,5.38,2.55.38,3.48-.47,5.52-1.82l8.98-5.97c.92-.61,1.54-1.32,1.9-2.36l.99-2.83,1.36-5.45c.39-1.54.7-3.04.72-4.65.08-4.46-1-8.73-2.84-12.76-1.27-2.78-2.18-5.58-3.02-8.51-.35-1.24-.8-2.32-1.49-3.4l-.69-1.5-3.82,3.8-1.31,1.26c-1,.96-1.94,1.91-3.12,2.65-1.97,1.24-4.04,2.11-6.16,3.06l-3.27,1.48,2.17,4.57c2.58,4.79,2.1,8.15,3.65,12.61l1.95,5.61c.22.64-.18,1.32-.79,1.53-.43.15-1.31,0-1.53-.64l-2.3-6.63-1.19-5.25c-.25-2.36-1.15-4.4-2.16-6.52l-2-4.19-6.57,2.8c-2.51.92-4.82,2-7.22,3.15l-2.73,1.31,1.12,5.03ZM34.31,134.77l2.28,3.85-1.86-5.59-.04.76c-.24.14-.48.27-.51.4-.03.11.05.43.13.56ZM185.57,139.68l3.02-4.56-2.46,1.49-.57,3.07ZM184.87,145.53c.51-.55.81-1.08,1.09-1.66l2.17-4.4-2.72,3.63c-.2.27-.15.55-.16.9,0,.5-.58,1-.4,1.53ZM171.5,160.02l3.23-3.42,2.15-2.47c1.46-1.68,2.99-3.12,4.67-4.63l-4.78,3.49-4.04,4.29c-1.4,1.49-2.72,2.91-3.89,4.66l2.66-1.92ZM53.75,161.46l-2.4-2.78-4.28-4.2c.98,1.92,2.22,3.53,3.56,5.18,1.51,1.64,3.14,3.01,5.02,4.22l-1.9-2.41ZM102.29,168.78l-7.33,5.78-3.1,2.44c-.21.16-.83.07-1.01-.1s-.26-.55-.22-.89c.9-4.39,2.52-8.44,4.67-12.48-3.41,2.84-6.34,5.96-9.25,9.11l-.86,5.77,5.2.62,7.51-1.91,4.39-8.34ZM102.54,176.52c2.16-3.06,4.04-6.09,5.67-9.31l1.31-3.19-4.57,2.72c-1.99,3.25-3.82,6.44-5.46,9.92l2.1-.38c.23-.04.68.13.95.23ZM84.17,178.21l.52-4.07-3.3,3.65,2.77.41ZM115.92,182.34l4.1-6.77c-2.91,1.86-5.33,4-7.82,6.32l3.72.45ZM99.5,179.79h.56s1.53-1.92,1.53-1.92c-.15-.1-.61-.27-.82-.22l-1.97.47-.79,1.88c.57.17.96.06,1.49-.21ZM96.8,179.88l.51-1.41-3.79.94,3.28.47ZM83.81,180.61l-2.46-.36,2.32,1.41.14-1.05ZM95.25,185.99l2.74-3.47-13.11-1.75-.17,1.51,4.24,1.95,6.29,1.77ZM105.78,187.1l.77-3.42-7.1-.96-2.85,3.59,8.67,2.1.51-1.32ZM109.36,188.47l2.25-.29c1.07-1.11,1.87-2.25,2.71-3.48l-4.55-.55-2.89,3.14-.32,1.28c.96.09,1.84.03,2.81-.1ZM120.89,186.5l2.31-.85-7.41-.81-2.28,3.12,7.38-1.46ZM110.73,191.27l3.44-1.68-2.39.25-1.05,1.43ZM109.48,191.03l.65-1.08-3.4.49,2.75.59Z"/>
      <path d="M55.23,112.54c3.03-1.91,6.13-3.52,9.34-5.1-1.96-.05-3.7-.25-5.5-.8l-7.25-2.23c-1.51-.46-2.85-1.14-4.2-1.95-2.44-1.47-4.11-3.81-4.65-6.61-.67-3.45.15-8.75.72-12.51.52-3.48,1.34-6.78,2.64-10.04.6-1.51.04-3.23,1.2-5.36,1.03-1.88,2.12-3.67,3.47-5.36,4.29-5.37,10.92-7.28,17.63-7.45l3.31-.27c5.73-.46,13.58,2.17,16.11,7.82,2.18,2.8,4.01,5.77,5.18,9.14.77,2.2.86,4.49.55,6.82-.69,5.19-2.9,9.97-6.12,14.06l-4.32,4.71c2.9-1.87,5.6-3.84,8.23-6.02.11-.09.39-.19.5-.16.14.04.18.34.14.54-2.08,2.01-4.14,3.85-6.45,5.6-4.96,3.65-10.14,7.31-16.08,9.16-4.8,2.08-9.43,4.23-14.03,6.7-.2-.04-.37-.07-.47-.11-.12-.06-.05-.44.03-.58ZM70.43,102.88c2.81-1.43,5.43-3.08,7.98-4.93,3.36-2.44,5.98-5.36,7.07-9.45l2.38-8.89c1.22-4.57.39-11.52-1.75-15.79l-.97-1.21c-1.8-2.26-4.15-3.8-6.94-4.6-2.4-.69-4.82-.91-7.32-.73l-4.37.32c-.72.05-1.42.34-2.04.62.12.59-.17.7-.55.91-3.17,1.73-5.94,3.94-8.64,6.33-2.44,2.15-4.4,4.58-5.81,7.52-1.64,3.39-2.73,6.9-3.21,10.64-.53,4.15.69,7.73,2.43,11.46.96,2.06,2.34,3.7,4.09,5.15,5.01,4.14,11.65,5.69,17.64,2.64ZM51.03,66.96l.93-.88c2.49-2.34,5.15-4.47,7.9-6.23l-.75-.32c-1.74.84-3.55,1.76-4.85,3.24l-1.62,1.85c-.64.72-1.13,1.52-1.61,2.35ZM91.69,74.77c-.18-1.69-.82-3.26-1.54-4.68.49,3.43.55,6.61-.28,9.83l-2.32,9.05c2.7-3.92,4.64-9.53,4.14-14.2ZM52.1,102.09c-2.59-2.08-4.53-4.61-5.66-7.69l-1.44-3.93-.09,3.43c.09,1.68.61,3.22,1.53,4.61,1.37,1.77,3.48,2.91,5.66,3.59Z"/>
      <path d="M137.98,103.09l-9-6.42-7.83-6-3.94-3.49c-1.43-1.46-2.54-3.06-3.43-4.9l-2.86-5.07c-1.06-1.89-1.6-3.82-1.3-5.98.27-2.01.81-3.9,1.45-5.82.57-1.72,1.42-3.2,2.69-4.51,1.48-1.52,3.09-2.77,4.88-3.96,3.77-2.5,7.7-4.52,11.88-6.27-1.51.05-2.8.08-4.2-.25-.25-.22-.47-.6-.39-.83.12-.36.46-.44.81-.55l.63-.2c.15-.05.38.19.56.37,2.26-.13,4.45-.45,6.66-.89l4.95-.97,4.76-.7c.23-.03.69.24.82.41.18.23.19.63.07,1.06,1.61.12,3.09.72,4.46,1.63l2.79,1.85c3.58,2.37,6.89,4.94,9.94,7.97,4.04,4.02,7.55,8.19,8.74,13.92l.88,6.07c.19,1.29,0,2.59-.26,3.86l-1.39,6.82c-.73,2.6-1.97,4.92-3.49,7.12-1.34,1.94-2.71,3.71-4.3,5.45-1.99,2.16-4.64,3.46-7.56,3.83-2.25.28-4.44.29-6.71.07-3.73-.37-7.11-1.54-10.3-3.6ZM154.17,104.13c2.77-.23,5.25-1.38,6.93-3.57l3.72-4.85c1.5-2.16,2.6-4.44,3.23-7.02s1.15-5.25,1.32-7.98c.1-1.58-.29-3.08-.47-4.63-.38-3.26-1.5-6.24-3.37-8.92-1.7-2.43-3.64-4.48-5.77-6.53-2.31-2.22-4.65-4.23-7.32-5.99l-5.02-3.31c-.8-.52-1.87-.67-2.82-.77-2.49-.27-4.85.05-7.29.61-4.2.97-8.11,2.43-11.89,4.48-3.49,1.89-7.27,4.09-9.99,6.93-.83.87-1.46,1.87-1.88,3-.66,1.79-1.15,3.59-1.46,5.46s.15,3.53,1.1,5.16l2.63,4.53c.74,1.28,1.37,2.56,2.33,3.69,1.61,1.89,3.48,3.41,5.46,4.91l4.52,3.43,10.43,7.61c4.57,3.33,10.03,4.21,15.59,3.75Z"/>
      <path d="M56.93,141.76c.18.3.06.76-.14.88-.29.17-.76.08-.95-.24l-3.62-5.91-2.08,1.94-1.39,3.79c-.11.3-.32.52-.61.6-.26.06-.75-.29-.68-.6l.28-1.25c-.28.01-.65,0-.8-.11-.22-.15-.25-.59-.18-.89l2.39-2.5,1.5-3.71-3.31-5.77c-.18-.31-.1-.82.14-.95.39-.22.73.02.95.39l2.86,4.86,2.04-4.16c.1-.2.55-.27.73-.23.2.04.48.51.38.73l-2.33,4.95.45.77c1.55-1.11,4.89-3.81,5.52-2.57.16.31.09.67-.16,1.05l-.79.25c-1.36.71-2.6,1.59-3.88,2.54l3.69,6.16Z"/>
      <path d="M137.1,39.17l-6.09-2.04,1.59,3.89c.08.19-.07.59-.23.65s-.44-.01-.67-.11l-2.08-5.12-3.03-1.8c-.21-.13-.34-.52-.25-.7.1-.2.57-.34.75-.24l1.95,1.13-1.01-3.05-.44-1.1c-.07-.18.11-.62.3-.68.2-.07.63.11.7.33l1.89,5.29c1.34.68,2.66,1.27,4.13,1.65l9.99,2.56c2.81.72,5.45,1.48,8.17,2.46.27.1.44.43.41.69s-.42.5-.75.41l-10.19-2.87-5.13-1.34Z"/>
      <path d="M94.15,51.22c-.14.12-.55.06-.67-.08s-.15-.63,0-.76l1.65-1.39c-1.71-1.61-3.43-3.15-5.41-4.59l-1.28,4.52c-.09.31-.24.52-.56.57-.23.04-.63-.36-.54-.66l1.48-5.09-3.32-2.13c-.19-.12-.27-.53-.16-.71.1-.16.53-.34.71-.23l3.16,1.97c.65-2.08,1.4-4.03,2.36-5.96l.54-.24c.14-.07.35.36.28.52-.92,2.07-1.66,4.11-2.28,6.29,2.17,1.58,4.15,3.18,6.05,5.07,1.55-.97,3.15-1.54,4.99-1.44.15.08.38.24.46.35.1.13-.18.55-.38.55-1.44.02-3.02.46-4.32,1.31l2.97,3.44c.15.18.05.62-.1.75s-.66.16-.79,0l-3.1-3.54-1.73,1.46Z"/>
      <path d="M162.64,107.27l.37.27c.08.06-.11.38-.21.4l-1.41.24-14.63,1.26c-2.47.21-4.7-.33-6.74-1.66l-6.59-4.29-4.2-2.87c-.06-.06-.13-.44-.02-.47l.5-.16,5.71,3.56,5.71,3.5c1.63,1,3.41,1.36,5.35,1.23l10.36-.68,5.78-.32Z"/>
      <path d="M156.17,40.62c.13.09.24.42.19.54-.06.15-.46.29-.63.19l-2.46-1.54c-.17-.11-.28-.48-.21-.64.08-.18.49-.32.66-.2l2.44,1.65Z"/>
      <path d="M59.35,24.63l-2.41,1.88c-1.48,1.16-3.75,3.28-4.5,2.14-.16-.24-.07-.79.18-1.05l.46-.47c.11-.11.5.05.71.18l4.92-3.85-.54-.99c-.77-.15-.88-1.67-.48-1.92.33-.21.77-.04.94.27l1.03,1.88,2.11-1.5c.16-.12.63.05.76.18.15.14.14.63-.06.78l-2.2,1.69,3.59,6.5c.16.28.1.73-.14.85-.3.15-.66.04-.9-.2l-3.48-6.37Z"/>
      <path d="M60.06,79.27c-2.4.23-4.55-1.02-5.36-3.23-2.41-2.6-1.86-6.52.26-9.23,1.42-1.81,3.47-2.85,5.77-2.9,1.22-.9,2.78-1.19,4.19-.65s2.31,1.8,2.62,3.27c2.79,4.31.5,9.51-4.13,11.55-1.12.49-2.05,1.08-3.35,1.2ZM56.02,71.13c.21-.99.48-1.89.86-2.77l1.62-2.46c-2.71,1.27-4.23,4.2-3.76,7.15.36-.68.77-1.3,1.27-1.92ZM58.89,69.59c.11-.04.3-.38.23-.48l-.31-.46-.64,1.19.72-.24Z"/>
      <path d="M149.8,92.97l-.79-.19c-.33.18-.76.31-1.11.17-.25-.1-.53-.5-.7-.79-1.4-.69-2.7-1.55-3.43-2.99-.9-1.76-.63-3.9.62-5.47,2.19-2.77,5.89-3.92,9.25-2.87,2.57.8,4.03,2.71,3.24,5.35.97,1.83.75,3.89-.75,5.32-1.69,1.61-4.03,2.17-6.33,1.47ZM155.71,84.55c-.14-.92-.8-1.57-1.67-1.95-2.88-1.26-6.35-.4-8.26,2.11-.85,1.12-1.05,2.54-.39,3.7.14-1.79,1.1-3.23,2.43-4.34,2.73-2.27,5.34-1.95,7.89.48ZM152.89,91.05v-1.31s-1.18,1.47-1.18,1.47l1.18-.15Z"/>
    </g>
  </g>
</svg>