<?xml version="1.0" encoding="UTF-8"?>
<svg id="Layer_2" data-name="Layer 2" xmlns="http://www.w3.org/2000/svg" viewBox="0 0 235.94 200">
  <g id="Layer_1-2" data-name="Layer 1">
    <g>
      <path d="M47.82,173.82l-5.42-2.52c-1.73-.81-3.25-1.84-4.79-2.95l-3.7-2.65c-1.56-1.12-2.94-2.32-3.84-4.09-2.77-3.16-4.7-6.85-5.92-10.89-1.46-2.47-2.32-5.07-2.42-7.95-.77-1.92-1.06-3.89-.8-5.97-.47-2.36-.45-4.64-.14-7.02,0-1.25.02-2.55.46-3.72.37-.98.46-1.82.4-2.89-.06-1.14.41-2.29.55-3.42l.35-2.91c.1-.81.03-1.54-.35-2.27-1.02-1.97-1.42-4.02-1.63-6.24l-.27-2.99c-.34-1.74-.35-3.44-.15-5.23-.39-2.42-.51-4.75-.47-7.17l.06-3.65c0-.37-.35-.83-.66-.99-1.12-.58-1.84-1.42-2.7-2.27l-3.18-3.17c-1.13-1.13-1.85-2.46-2.73-3.79-1.01-1.53-1.96-2.98-2.79-4.64l-2.67-5.36c-1.23-2.47-1.86-5.06-2.71-7.67C.58,56.2-.49,49.63.23,44.24c.38-2.84-.19-5.55.72-9.05.21-.81.58-1.6.65-2.42.22-2.41.92-4.6,2.23-6.61,1.07-1.65,2.42-2.89,3.74-4.32,3.05-3.3,6.48-5.89,10.24-8.34,2.27-1.48,4.39-2.9,6.88-3.96.96-.41,1.81-.95,2.84-1.2l5.43-1.35,6.06-1.37c1.24-.28,2.39-.29,3.68-.39,1.72-.14,3.55-.39,5.2-.78,1.55-.36,2.64-.21,4.11.29,1.65.56,3.32.99,4.81,2.02,1.19.82,2.57,1.18,3.83,1.89l3.35,1.91c1.23.7,2.58,1.13,3.62,2.11.83.78,1.67,1.41,2.69,1.96,2.01,1.09,3.98,2.21,5.67,3.75.79.72,1.5,1.39,2.4,1.94,1.86,1.14,2.19,2.5,3.11,3.07,2.94,1.81,2.79,3.54,5.18,2.79,4.42-1.38,8.74-2.67,13.26-3.75,2.34-.56,4.74-.93,7.11-.71,1.58.14,2.9.16,4.4-.31,1.59-.51,3.32-.22,4.94.04.83.13,1.63.01,2.47-.04,1.63-.11,3.23.16,4.84.52l3.41.76,6.95,1.54c3.8.84,7.4,1.86,10.96,3.5.33.15.78-.23.92-.46l2.63-4.19,4.64-6.19c1.34-1.79,2.94-3.1,4.71-4.44,1.53-1.16,2.94-2.24,4.75-2.99.6-.25,1.11-.89,1.63-1.29,1.01-.78,2.14-1.28,3.32-1.79,1.78-1.24,3.64-2.12,5.77-2.58,1.95-1.03,3.93-1.97,6.14-2.21,1.33-.15,2.51-.35,3.79-.72,1-.29,2.08-.35,3.14-.44,2.19-.35,4.31-.43,6.53-.17,2.07-.39,4.05-.26,6.01.41l4.14.97c5.21,1.55,10.25,3.41,15.03,6.01l4.53,2.46c.7.38,1.4.88,1.87,1.5s1,1.03,1.62,1.51c1.18.93,1.89,2.26,2.62,3.57,2.52,4.48,5.14,9.04,6.14,14.09l.59,3c.26,1.32.55,2.75.38,4.09-.13,1.06-.19,1.96-.14,3.04.15,3.23-3.16,8.75-5.38,11.38l-6.82,8.03c-1.53,1.8-2.96,3.47-4.76,5.01-.81.69-1.26,1.72-1.95,2.54l-3.82,4.53c-.52.62-.54,1.19-.06,1.9l2.12,3.12,1.5,2.7c.45.81,1.1,1.52,1.48,2.38l2.94,6.67c.51,1.16.41,2.45.68,3.64.84,3.63.54,7.04-.39,10.61-.59,2.26-.71,4.58-1.65,6.75-.33.75-.6,1.55-.72,2.37-.36,2.36-1.32,4.4-2.22,6.55l-2.29,5.47-2.51,4.47-5.63,10.14-2.35,4.96-1.85,2.78-2.2,3.37-2.63,3.87c-.8,1.17-1.66,2.2-2.21,3.52-.75,1.78-1.83,3.22-3.01,4.73l-3.53,5.29c-1,1.5-2.07,2.83-3.29,4.14-.42.46-.79.99-1.1,1.53-.93,1.63-2.06,3.03-3.52,4.21-.79,1.37-1.95,2.3-3.37,2.97-1.02,1.11-2.15,2.02-3.51,2.69-2.75,1.19-3.99,3.29-6.75,4.25-1.13.39-2.14.98-3.07,1.72-1.39,1.11-2.96,1.67-4.55,2.44l-5.82,2.81-3.79,1.34c-4.52,2.18-10.61,3.48-15.63,4.15-2.5.34-4.85-.08-7.22-.84-1.12-.36-2.24-.59-3.15-1.35-.79-.66-1.69-1-2.6-1.45-1.08-.53-2.07-1.06-3.26-1.38-2.14-.58-4.12-1.41-6.09-2.41l-4.92-2.51c-1.05-.54-1.96-1.18-2.93-1.87l-2.69-1.34c-2.29-1.14-4.21-2.7-5.96-4.55-.53-.56-1.18-1-1.98-.96l-3.58.15-6.02.43c-2.36.17-4.62-.32-6.97-.61-2.02.27-3.93.05-5.8-.7-1.33-.03-2.56-.22-3.81-.72-2.71.08-5.18-.63-7.7-1.49l-5.32-1.82-6.27-2.65ZM188.74,49.17c.69.77,1.42,1.36,2.26,1.84,1.43.81,2.32,2.24,3.58,3.2,1.37,1.04,2.62,1.93,3.74,3.27l2.87,2.52,1.64,1.92c1.3,1.15,2.44,2.25,3.52,3.62.19.24.6.25.8.04l3.12-3.26,5.63-5.66,2.88-3.16c1.98-2.17,3.82-4.29,5.59-6.63l3-4.59c.57-.88,1.09-1.75,1.12-2.85l.13-4.32-.39-3.24c-.09-.74-.22-1.34-.44-2.03-1.21-3.77-2.89-7.25-5.02-10.59l-1.39-2.16c-.63-.99-1.47-1.38-2.42-1.96-3.7-2.23-7.57-3.8-11.64-5.24-1.73-.61-3.21-1.17-5.05-1.46s-3.63-1.13-5.6-.96l-4.43.38-4.85.68-4.04.76-3.98,1.29-1.51.61c-1.38.73-2.76.95-4.25,1.38-1.72.5-3.51,1.23-5.02,2.19l-3.98,2.54c-.58.37-1.17.8-1.66,1.27l-2.91,2.83-2.21,2.58c-.89,1.04-1.6,2.09-2.36,3.23l-1.99,2.96c-.11.17-.21.7-.09.87l2.68,1.02c1.3.5,2.46,1,3.83,1.28,2.13.42,2.8,1.62,4.84,1.98,2.55.45,3.78,1.71,5.83,2.19,1.48.35,2.64,1.03,3.88,1.87l2.46,1.26c3.14,1.77,6.01,3.78,8.85,5.98,1.04.81,2.05,1.52,2.97,2.54ZM22.72,77.7c1.44-3.61,3.05-7.13,5.33-10.3l2.4-3.34c1.17-1.63,2.58-2.94,3.89-4.47,2.19-2.56,4.45-4.88,6.97-7.11.83-.73,1.35-1.77,2.36-2.28.94-.47,1.5-1.25,2.28-1.93,4.18-3.67,8.9-6.46,13.55-9.5,3.55-2.32,6.97-4.46,10.87-6.15l6.82-2.94c-.04-.24-.3-.65-.5-.74-1.19-.5-1.97-1.54-2.98-2.29l-5.94-4.43c-.85-.63-1.65-1.29-2.59-1.74-1.19-.57-2.22-1.2-3.19-2.1-.5-.46-1.16-.91-1.82-1.08-1.4-.37-2.37-1.14-3.55-1.9-.99-.64-2.12-1.07-3.23-1.57-5.78-2.6-6.73-.55-10.73-.51-.88,0-1.79.03-2.6.3-1.15.39-2.21.55-3.43.64-2.64.2-13.8,6.22-16.45,8.26l-2.98,2.28c-1.02.79-1.95,1.51-2.75,2.53-.68.87-1.47,1.62-2.31,2.32-.74.62-1.1,1.4-1.47,2.26-1.3,3.02-1.81,6.1-1.98,9.38-.07,1.38-.19,2.64-.06,4.04s-.13,2.77-.17,4.17c-.12,4.32,1.9,11.74,3.28,16.19.38,1.23.98,2.29,1.54,3.43l2.1,4.27c1.49,3.03,3.29,5.9,5.77,8.2l1.55-3.9ZM134.75,50.27c.36-.78.47-1.58.7-2.42.61-2.25,1.66-4.29,2.77-6.33l3.39-6.57c.04-.18-.03-.72-.2-.78l-2.01-.69-4-1.33c-1.86-.09-3.6-.48-5.35-1.15-2.01-.15-3.99-.29-5.89-.9-1.21-.39-2.3-.61-3.57-.65-1.99-.07-3.9-.48-5.84-.93-.71-.16-1.4-.14-2.11-.06l-3.88.46c-3.93.47-7.72,1.24-11.46,2.45l-3.23,1.04c.32,1.09,1.12,1.28,1.91,1.73,2.99,1.69,5.88,3.5,8.6,5.62,1,.78,1.84,1.6,3.05,2.08,1.65.65,2.99,1.7,4.47,2.61l3.76,2.31c3.06,1.88,6.29,3.21,9.67,4.42l8.31,2.26.64-.23c.3-.11-.44-1.38.28-2.93ZM99.61,166.19c-.62-.88-.38-1.83.47-2.34l1.71-1.05,3.41-2.64c1.39-1.07,2.67-2.18,3.54-3.74l3.71-6.65c.33-.59.24-1.22-.22-1.74-1.1-1.26-2.07-2.57-2.94-4.01-.37-.62-.94-.97-1.62-1.17l-4.89-1.45c-1.09-.32-1.8-1.36-2.05-2.27-.58-2.13.86-3.56,2.69-4.9.98-.72-.26-2,1.27-3.59,1.25-1.3,2.89-.43,4.46-.57l3.48-.33c1.22-.11,2.36-.52,3.58-.85,5.72-1.54,11.6-1.69,17.44-.88,1.36.19,2.62.26,3.75,1.04.98.68,1.67,1.72,1.63,2.94-.06,1.61,1.63,2.44,1.54,4.62-.05,1.3-.68,2.46-1.58,3.31l-3.77,3.53c-3.58,3.35-7.52,6.09-12.01,8.07-.55.24-.66.85-.71,1.35l-.23,2.37c-.15,1.53.14,3.44,1.44,3.59l4.01.47,4.26-.05h5.12c2.02,0,4.06.67,4.06,2.39,0,.58-.35,1.32-.94,1.66-1.07.62-2.32,1.2-3.58,1.32s-2.33.36-3.48.88c-1.47.66-3.19.37-4.72.7-2.15.46-4.08.56-6.22.24s-3.94-.95-5.63-2.39c-.43-.37-1.33.4-1.6.79-2.04,2.89-4.21,5.5-6.83,7.86-1.05.95-2.28,1.54-3.73,1.5l-.63.2c-.11.03-.39.27-.31.35l.29.31c1.19,1.23,2.15,2.56,1.32,3.94-.45.74-1.94.62-1.77.86l.26.37,5.69,2.93,4.59,2.22c1.84,1.05,3.72,1.81,5.75,2.45,2.21.7,4.25,1.59,6.26,2.73l2.97,1.38c1.15.53,2.27.35,3.5.16,3.29-.48,6.43-1.17,9.61-2.16l5.8-1.81,3.42-1.66,5.22-2.54,8.53-5.22,2.71-1.94c1.11-.56,2.04-1.19,2.96-2.01,1.51-1.36,2.93-2.7,4.23-4.28l4.41-5.33,2.72-3.79c.47-.65,1.14-1.18,1.47-1.91.5-1.1,1.09-2.04,1.9-2.92s1.27-1.87,1.69-2.98l1.82-2.63c.73-1.05,1.19-2.14,1.93-3.2l3.97-5.63c.81-1.15,1.37-2.3,2.08-3.52l3.41-5.85,1.7-2.93,1.56-2.94,1.36-2.83,2.25-5.18,1.58-3.97,2.68-6.44c1.39-3.34,3.34-9.96,3.14-13.29l-.22-3.72c-.05-.76-.62-1.48-.8-2.24l-.5-2.12-1.68-3.12-1.69-3.28c-.33-.64-1.04-1.12-1.72-1.36-1.46-.51-2.79-1.12-4.06-1.98-1.54-1.01-2.09-2.75-1.42-4.53.1-.29.35-1.17.11-1.43l-2.77-3.13-1.91-1.63c-.6-.83-1.3-1.34-2.04-2.02l-6.32-5.73c-1.59-.86-2.85-1.94-3.87-3.43l-5.7-4.18-3.82-2.69-3.02-1.95c-3.37-2.17-6.31-2.64-8.96-4.18-.98-.57-1.99-.99-3.11-1.22-2.03-.42-3.91-1.07-5.77-1.98-1.58-.77-3.16-1.34-4.85-1.81-.57-.16-.93.15-1.17.64l-3.06,6.21-2.17,5.28-.9,2.18c-.38.92-.02,1.88.63,2.6,2.39,2.64,5.21,3.34,6.3,5.12.65,1.06.22,2.41-.73,3.14-1.05.81-2.39.75-3.61.28l-2.23-.86-9.47-1.83c-.88-.17-1.68-.46-2.59-.41-1.96.1-2.73-.97-4.16-1.06-1.23-.08-2.45-.34-3.53-.96-1.35-.78-2.68-1.14-4.19-1.56-1.92-.53-3.77-1.38-5.49-2.36l-3.14-1.79c-1.63-.61-2.88-1.54-4.22-2.62l-3.98-2.52c-.85-.54-1.57-1.04-2.52-1.39s-1.64-1.12-2.48-1.67l-2.33-1.53c-1.58-1.25-3.13-2.33-4.9-3.32-2.58-1.44-3.98-3.72-5.67-3.11-3.11,1.12-6.1,2.4-8.99,4l-5.51,3.04c-3.86,2.13-7.52,4.38-11.04,7.05l-6.69,5.08-5.31,4.28c-1.02.82-1.81,1.77-2.7,2.73l-4.31,4.66c-1.17,1.26-2.28,2.45-3.27,3.86l-3.57,5.08c-1.4,2.32-2.59,4.7-3.63,7.2l-1.28,3.06c-.26.62.03,1.05.57,1.36l2.22,1.25c.11.06.45.02.56-.03,1.82-3.53,3.87-6.78,6.28-9.96,3.04-3.42,6.3-6.47,9.88-9.29,1.05-.83,2.6-.72,3.41.3.33.42.21,1.17-.08,1.63l-7.38,11.61-3.24,6.53c-3.46,6.98-5.52,13.7-7.43,21.19l-1.26,4.93c-.24.93.12,1.82.59,2.62,1.01,1.72,1.85,3.51,3.25,4.96,2.32,2.42,5.27,5.43,6.35,8.51.25.7-.11,1.3-.71,1.6-.99.49-2.02.93-3.13.95-1,.02-1.8-.55-2.63-1.04-1.96-1.17-3.7-2.51-5.08-4.38h-.37s-.19,3.8-.19,3.8l.12,3.55.67,4.35c.39,2.51,1.14,4.76,2.01,7.13l1.09,2.95,2.6,4.68,1.8,2.84c.87,1.38,2.32,2.24,3.69,3.1l4.68,2.91,3.31,1.68c4.86,2.46,9.86,4.46,15.08,6.07l2.71.44,5.45.91c3.88.47,7.7.92,11.64.81l3.67-.1-1.92-3.15-2.05-4.16c-1.24-2.51-2.23-5.02-2.98-7.72l-.75-4.39c-.49-2.87-.86-5.56-.91-8.49-.06-3.2.47-6.25,1.03-9.4.35-1.96.97-3.58,1.76-5.36,1.02-2.29,1.86-4.55,3.33-6.61,1.65-2.31,3.3-4.6,5.61-6.29,1.07-.78,2.08-1.5,2.95-2.47,1.15-1.29,2.75-1.78,4.18-2.66,2.68-1.64,5.37-2.95,8.3-4.09,1.66-.64,3.16-1.13,4.93-1.44l4.54-1.45,3.79-.71,5.22-.54,6.04.12c1.25.02,2.41-.03,3.63.31l6.58,1.79,2.34,1.05c1.31.26,2.35.76,3.41,1.57l1.49,1.14c2.61,1.63,4.92,3.63,6.55,6.27l2.01,3.26c1.7,2.75,3.05,5.65,4.15,8.69l1.65,4.58c.88,1.86,1.36,3.72,1.91,5.69.61,2.15,1.04,4.15,1.1,6.44l.11,4.17c.04,1.55-.33,2.9-.63,4.39-.46,2.24-.66,4.49-1.43,6.66l-2.08,4.1-2.56,4.55c-.97,1.62-2.1,2.99-3.62,4.14-.83,1.48-1.91,2.68-3.29,3.66l-3.82,2.99-7.97,5.33c-2.62,1.75-8,3.61-10.71,1.94-1.61-.99-2.08-2.91-.88-4.43,1.13-1.43,2.72-1.69,4.35-2.73l3.79-2.42,6.31-4.19c4.98-3.31,8.54-8.4,11.29-13.65.76-1.46,1.34-2.81,1.77-4.43l.97-3.65c.24-.9.29-1.78.22-2.73s.07-1.83.19-2.79c.1-.82-.21-1.69-.27-2.51-.23-2.93-.91-5.63-1.85-8.41l-1.05-3.13c-.54-1.16-.93-2.18-1.24-3.42l-1.22-2.45-2.51-5.4c-.93-2.01-2.55-3.5-4.36-4.77-.99-.69-1.92-1.63-3.07-2l-3.88-1.25-3.2-.84c-1.05-.28-2.26-.22-3.35-.23l-4.37-.06-3.52.48c-2.39.32-4.87.38-7.14,1.24l-6.41,2.41-6.38,3.18c-1.36.68-2.57,1.51-3.71,2.48l-3.19,2.71c-2.22,1.88-3.89,4.27-5.22,6.83l-1.85,3.57c-1.23,3.18-1.62,6.48-1.87,9.87-.1,1.29-.15,2.44-.02,3.75.41,4.37,1.2,8.61,2.51,12.8l2.56,6.1c.69,1.64,2.83,5.88,3.68,5.8l2.37-.21c-.63-1.02-1.23-1.76-1.3-2.86-.14-2.11,1.7-3.21,1.01-4.18ZM26.5,102.06l2.55-6.91c.07-.17.08-.89-.11-.97l-2.3-1.04c-.5,1.3-.48,2.47-.48,3.76v2.34c0,.98.02,1.91.34,2.82Z"/>
      <path d="M169.56,109.91c-1.19.81-2.52,1.07-3.71.27-2.85-1.9-3.01-3.79-4.33-5.09-.85-.84-1.81-1.65-2.39-2.7-.55-.99-1.03-1.91-1.88-2.62s-.93-1.67-.53-2.64l.05-1.66c.02-.57.71-1.14.96-1.6.48-.9.98-1.56,1.86-2.06,3.18-1.79,5.82-.71,8.57,1.22l3.28,2.3,1.7,1.84c1.39,1.19,2.64,2.4,2.78,4.37.12,1.77-1.76,2.11-1.93,3.42-.21,1.63-1.47,2.93-2.81,3.84l-1.62,1.1Z"/>
      <path d="M86.21,106.5c-.88,2.02-2.52,1.22-3.62,2.41-.96,1.04-2.16,1.24-3.47.93-1.12-.27-2.15-.74-2.66-1.9-1.21-.71-1.93-2.02-1.81-3.49l.19-2.26c-.03-2.03.94-3.35,2.06-4.81,1.05-1.36,1.92-2.51,3.51-3.37,1.33-.72,3.31-3.78,6.13-3.21l2.49.5c.95.19,1.92.81,2.63,1.49.42.4.39,1.21.42,1.76l.14,3.11c.09,2.01-1.62,3.44-2.64,5.41-1.29,2.49-2.89,2.37-3.36,3.44Z"/>
    </g>
  </g>
</svg>