<?xml version="1.0" encoding="UTF-8"?>
<svg id="Layer_2" data-name="Layer 2" xmlns="http://www.w3.org/2000/svg" viewBox="0 0 201.84 200">
  <g id="Layer_1-2" data-name="Layer 1">
    <g>
      <path d="M25.77,182.6l1.09-.22c-.63.62-1.58.84-1.9.38-1.02-1.5,4.59-6.27,6.66-7.54l7.02-4.3-3.27-3.73c-2.56-2.92-4.52-6.19-6.5-9.52l-4.15-3.75-2.2,1.48-2.08,1.4c-.88,1.46-1.62,2.95-2.22,4.54-.13.36-.17.82-.13,1.23,1.93-.08,3.93-1.71,5.64-2.76-1.39,1.54-3.11,2.61-4.92,3.57-.35.18-.95.13-1.26-.08-.88-.6-.46-2.19.09-3.37l1.07-2.28c-.1,0-.61.1-.73.24l-6.64,7.29c-.3,2.18-.29,4.21-.34,6.37-.29-.91-.35-1.77-.36-2.69l-.03-2.82-3.66,3.66c-.93.92-2.82,1.93-3.94,1.14s-.62-3.58-.15-5.23c.88-3.07,2.12-5.94,3.6-8.79l6.59-11.71,2.07-3.14-2.35-3.32-3.82,3.44c-1.6,1.44-4.28,3.58-6.17,2.9-.94-.34-1.53-1.21-1.86-2.13-1.67-4.72-.51-11.21.74-16.12,1.08-3.79,2.39-7.37,3.96-11.01-.04-3.08.02-6.06.51-9.12l1.06-6.74c-2.81-.04-6.11-.24-6.94-3.08-.95-3.24.78-7.76,2.27-10.88,2.13-4.46,4.78-8.56,8.15-12.23-1.01-.77-2.04-1.5-2.91-2.46-2.17-2.42-3.29-5.44-3.45-8.69-.13-2.82.22-5.48.94-8.2.11-.41.29-1.21.02-1.55-1.48-1.84-2.39-3.81-3.03-6.05-.84-2.95-.93-5.89-.1-8.86.6-2.15,1.49-4.08,2.74-5.95,1.05-1.57,2.13-3.03,3.37-4.46,1.8-2.09,3.5-4.15,5.5-6.06l5.05-4.83c2.04-1.95,4.27-3.52,6.65-5.04l2.33-1.64,1.04-.65c1.38-.87,2.82-1.51,4.32-2.18,3.27-1.48,7.3-2.48,10.6-.97.53.24.97.63,1.38,1.03.95.92,1.46,2.2,1.23,3.52-.24,1.41-1,3.23-2.34,3.73.45-1.03.93-1.87,1.25-2.88.41-1.3.24-2.77-.84-3.67-3.54-2.94-9.91-.33-13.52,1.52.33.06.57.14.56.25l-.03.25c-.01.13,1.15.11,1.83.32l1.88.57c3.14.96,6.11,2.15,8.92,3.81l2.13,1.26,3.94-.71,1.37-.03c1.83-.04,3.63.19,5.24,1,2.12,1.07,3.4,3.11,3.16,5.49-.04.17.04.16.12.02,1.56-2.36,3.63-5.54,6.15-6.53,2.26-.89,4.18.61,4.96,2.9.6,1.79.77,3.64.57,5.53l-.6,3.67,1.99.56,6.58-4.33c.59-.39.97-.73,1.42-1.26l3.67-4.39,2.54-2.89.17-.14s0,.19,0,.19c-1.68,2.11-3.37,4.07-4.97,6.38l3.96-2.94c2.02-1.49,10.71-8.56,11.93-6.94.16.22.15.75-.06.98-2.49,2.78-7.2,5.4-10.59,7.24l-3.68,1.99-1.96,1.08c-.46.25-1.19.64-1.53,1.07l-3.92,4.9-.04.19,1.16.38c1.32-.47,2.6-.88,3.98-1.13,1.15-.22,2.22-.1,3.39.06.83.11,1.8.05,2.65-.04l5.75-4.07c1.35-.95,2.41-2.28,3.56-3.5,2.59-2.74,4.94-5.55,7.26-8.52,1.95-2.49,3.71-5,5.25-7.75.48-.85.87-1.75,1-2.68.3-2.08-7.46.73-9.4,1.86-3.91,2.27-7.43,4.99-10.58,8.23-.15-.04-.26-.1-.22-.14l.22-.25c2.68-3.11,7.42-6.84,11.03-8.83,2.19-1.21,5.8-2.69,8.12-2.41.93.11,1.52.86,1.38,1.78-.28,1.87-2.57,5.69-3.81,7.39l-3.92,5.36c-2.11,2.57-4.29,4.96-6.64,7.33l-.14.14s-.08.24-.03.21l.27-.16c2.68-1.58,9.74-5.66,12.09-4.5.52.26.59,1.01.27,1.47-.75,1.06-1.65,1.94-2.69,2.72l-5.37,4.04,2.97-.32,1.27-.25,2.74-.69c.2-.05.51.28.56.56l3.94-.07c2.45-2.02,4.87-3.83,7.5-5.55,2.84-1.85,5.75-3.36,8.79-4.82,1.53-.74,2.94-1.42,4.55-1.95l2.97-.98.76-.13,1.94-.69c1.61-1.96,3.34-3.77,5.28-5.42.55-.47,1.2-.73,1.82-1.08l1.09-.61c1.7-1.27,3.61-2.13,5.73-2.44,1.15-.17,2.36-.33,3.34.11-2.34.21-4.42.55-6.37,1.52l-.17.08-2.55,1.43-1.31.86-.16.09c-.82.49-1.4,1.19-2.07,1.9l-.14.15-1.73,1.98s-.05.27-.02.25l.24-.17,5.56-2.4c5.44-2,12.35-3.31,17.88-1.39,3.38,1.17,5.99,3.66,7.68,6.78,2.4.11,5.79.46,6.88,2.5,1.19,2.22-1.96,5.28-3.71,7.16-.05.33-.02.84.05,1.14l3.06,1.7,5.65-.32c2.13-.12,5.74.16,7.49,1.11,2.69,1.47,1.76,4.41.5,6.95-1.56,3.15-3.46,6.02-5.67,8.84-.29,6.95-1.68,12.55-6.4,17.86-1.36,1.53-2.81,2.72-4.37,3.96l3.29-.21.23-.03,4.34-.23c.91-.05,1.85.09,2.5.72.37.36.34.97.11,1.38l-.09.17-.1.14-.1.14-.1.14-.14.17-1.72,1.45-1.97,1.31-.15.09-.15.09-.15.09-.15.09-.14.09-.74.46.03.23c5.17,5.02,7.86,11.65,7.36,18.87,0,.14-.12.45-.02.49l.45.18c2.02.8,3.98,1.48,5.83,2.61,2.17,1.31,4.02,2.99,5.26,5.2,2.25,4.03,1.31,8.04-.96,11.88,1.7.97,2.92,2.4,2.04,4.15-.32.64-.71,1.27-1.27,1.75l-3.97,3.36c-.23.69-.53,1.34-.92,1.98l-4.92,6.88c-.03.06-.11.22-.07.25l.18.13c.66.49,1.26,1.06,1.71,1.79,1.2,1.94,1.9,4.08,2.3,6.35,1.19,6.69.78,14.02-.74,20.63s-4.77,12-9.07,17.42c-1.52,1.92-3.15,3.63-4.96,5.27l-.2.12s-.06-.14-.03-.17l.14-.17,8-10.52c2.51-3.75,4.27-7.76,5.34-12.15,1.68-6.83,2.36-15.78.5-22.54-.43-1.57-1.05-2.98-1.94-4.34-.44-.68-1.51-1.57-1.75-1.19l-1.08,1.69-.65,2.31c-.65,2.32-1.66,4.46-2.79,6.6-1.28,2.42-2.89,4.49-4.53,6.66l-1.1,2.04c-1.36,2.52-2.82,4.85-4.53,7.12l-.5,3.5.32.02,9.25-.22c1.67.05,4.05.3,3.71,1.61-.07.28-.28.73-.56.95l-1.59,1.26-.19.09-.19.07-.43.15c-.1.03-.13-.22-.04-.27l.22-.14.15-.13,1.38-1.47s.11-.14.11-.15l.24-.46c.05-.1-.29-.25-.4-.29l-.2-.08c-2.17-.3-4.33-.35-6.54-.34l-3.74.04-1.09.04-.23.02-.25.02c-.07,0-.09.2-.1.3l-1,6.72c-1.36,9.14-4.69,23.16-11.07,29.87-.82.86-1.69,1.58-2.73,2.09-1.4.68-2.87.18-3.47-1.29-1.06-2.61-.57-6.42.16-9.26l4.22-12.96,2.49-7.17c0-.12,0-.14-.04-.12l-.33.21-.15.1-.13.11-.16.13-1.17.7-1.5.91-.1.16-.09.14-.11.14c-2.23,2.8-4.56,5.42-7.22,7.8l-.14.12-.13.12-5.71,4.37,4.86.27.19.03.2.05.19.04.2.05.2.05.21.05.16.05.19.07.24.09s.04.13-.01.12l-.32-.04c-2.34-.28-4.76-.57-7.06-.36l-7.46,4.16c-3.99,2.02-7.99,3.81-12.24,5.2-1.42.47-4.28,1.25-4.22.34.01-.2.17-.57.28-.72l.13-.18,5.17-3.95.14-.11.11-.13-.22.05-9,5.4-.14.13c-.96.65-1.86,1.35-2.56,2.25v.26c.46.3,1.09.22,1.66.1l.33-.07c0-.08.06-.15.14-.16s.16.03.18.11c.04.11-.04.21-.16.21-.81.25-1.7.46-2.35.17-.51-.24-.2-1.15.41-1.73,1.21-1.13,2.56-2.01,3.96-2.9l.15-.1.15-.09,10.13-6.11.19-.12c.06-.03.18-.19.12-.21l-.33-.11-3.43-1.28-1.27-.37-1.93.4-5.46,5.23c-5.8,4.92-11.34,8.94-18.68,11.32l-.2.06c-1.62.47-3.3.85-4.95.45l-.19-.05-.19-.06-.19-.06-.17-.07c-.48-.2-.93-.67-1.11-1.15l-.07-.19-.05-.19-.05-.2-.05-.2-.05-.2v-.22c-.13-2.22.89-4.27,1.79-6.29l.07-.17.08-.16,1.37-2.61.09-.15.09-.15.12-.21c.08-.13.04-.18-.19-.12-3.78.79-7.47,1.31-11.29,1.66-2.91.26-5.65.02-8.5-.46-3.11-.53-5.83-1.77-8.59-3.2-2.47-.45-5.1-.45-7.56-1.27l-1.91-.64-4.9-1.96c-.32-.13-.51-.06-.82.14-2.28,1.42-5.5,3.34-8.04,3.07-1.27-.14-2.21-1.05-2.57-2.25-.39-1.3-.32-2.61-.13-3.96l.03-.22.03-.24.9-3.6c.05-.22-.31-.56-.49-.73l-.14-.13-.12-.12-.12-.12-.68-.66-.11-.11-.12-.13-.13-.13-.28-.29c-.06-.06-.2.08-.18.17l.06.28.04.23v.26s-.01.42-.01.42c0,.09-.26-.01-.29-.1l-.09-.2-.07-.16-.07-.17-.06-.18-.06-.19-.04-.19-.04-.21-.04-.23-.17.07-.14.08-.15.08-.16.09-.16.09-.16.09-.15.08-.15.08-.15.08-.16.09-6.32,3.8-3.39,2.59-.14.15-.12.12-.12.12-.12.12-.12.12-.12.12-.12.12-.12.12-.12.12-.12.12-.15.15-.82,1.14-.09.18-.06.17-.07.18-.03.21.02.2c0,.11.22.2.48.15ZM166.02,12.88l6.12-.36c-1.96-3.18-4.36-5.18-7.97-6.16-2.35-.6-4.67-.67-7.11-.42-4.73.49-9.28,1.91-13.49,4.27,2.74-.05,5.2.22,7.6,1.18l2.96-.6c3.2-.48,6.39-.23,9.42.89l2.47,1.21ZM8.16,34.99l.37-.79c1.32-2.83,2.93-5.42,4.87-7.88.95-1.33,1.92-2.53,3.01-3.74,0-.1.03-.34.11-.35l.24-.03,3.04-2.97,1.33-1.21,7.17-5.82c.59-.48,1.09-.96,1.57-1.49-.66.05-.9.13-1.31-.17-1.69.95-3.42,1.99-5.08,3.07l-1.41.92-.98.5c-.6.3-1.07,1.04-1.52,1.54l-.63.71-2.02,2.1c-3.22,3.17-6.33,6.38-9.04,9.91l-1.62,6.66c-.71,2.91-1.11,5.79-.96,8.75.43-2.01.89-3.82,1.46-5.72.41-1.36.74-2.68,1.36-4.01ZM27.8,19.05c2.12-.46,3.87-.85,5.86-.9,2.37-.77,4.8-.93,7.29-.62.6-.15,1.16-.4,1.66-.71.34.06.73-.13.78-.5l.25-1.05c-2.16-1.19-4.29-2.22-6.77-3l5.45,4.32c-1.05-.43-1.8-1.17-2.69-1.81-1.39-1-2.71-2.04-4.25-2.84s-3.17-1.05-4.75-1.29l-.82.98-2.91,2.52-5.16,4.11c-1.89,1.5-3.3,3.43-4.92,5.17l.69,1.92c1.77-1.76,3.66-2.96,5.63-4.27l2.25-2.3c.8-.82,2.57-2.05,2.94-1.27.07.16.08.54.02.7l-.54.84ZM136.09,19.77l1.71-1.8.26.15c3.25-2.53,6.78-4.56,10.57-5.99-2.48-.68-4.9-.97-7.41-.47-.82.46-1.68,1.14-2.32,1.85l-.89,1.64c-.81,1.49-1.6,2.91-1.92,4.62ZM156.48,13.73c2.3-.7,4.49-1.06,6.89-1.31-3.4-1.22-7.1-1.31-10.57-.45l3.68,1.76ZM86.5,19.65l6.87-4.32c1.42-.89,2.66-1.85,3.88-3.07-1.07.32-1.88.82-2.8,1.39-3.83,2.34-7.47,4.93-10.88,7.75l2.94-1.75ZM127.05,26.38l2.75-4.86c2-2.93,4.38-5.52,7.07-7.84l1.46-1.41-1.64.36-2.68.94-5.01,2.1c-5.64,2.52-10.93,5.49-15.87,9.41,3.36-.07,6.39.66,9.55,1.3h4.37ZM137.29,21.4c1.8-1.3,3.42-2.27,5.27-3.12l2.97-1.62c1.39-.91,2.78-1.7,4.33-2.28.74-.28,1.38-.64,1.98-1.26l-1.36-.56-4.7,2.07-2.29,1.44c-.37.23-.58.32-1.01.46s-.9.58-1.3.84c-1.37.89-2.56,1.88-3.69,3.06-.11.29-.24.73-.19.97ZM158.68,14.49c1.98-.86,3.94-1.02,6.06-1.51-1.29-.23-2.53.08-3.74.35l-3.55.78,1.23.38ZM154.78,14.15c-.68-.33-1.51-.66-2.23-.81-.3.39-.62.61-1.07.83h3.3ZM175.1,22.76c.15.04.36-.28.34-.43-.51-3.05-1.37-6.39-2.91-9.02l-5.29.31c.94.67,1.74,1.31,2.45,2.17l1.47,1.79c.93,1.49,1.68,3.06,2.23,4.7l1.71.48ZM179.65,16.87c.22-.85.02-1.59-.66-2.1-.52-.38-1.18-.8-1.85-.89l-3.39-.47c1.3,2.73,2.05,5.38,2.57,8.31l2.25-2.85c.46-.59.77-1.28,1.08-2ZM171.47,21.8c.19.08.63.17.87.21-.81-2.7-2.26-5.15-4.38-7.01l-1.82-1.27-5.9,1.24c.49.23,1.06.57,1.62.67,2.29.43,4.22,1.45,5.96,2.98l.95.71,2.7,2.46ZM153.91,16.37l1.97-.88c-1.85-.46-3.52.8-4.85,1.99l2.87-1.11ZM45.04,16.12l-.97-.61-.37,1.03,1.34-.42ZM51.07,18.82l-.04-2.99c-1.35.01-2.55.19-3.95.55l3.99,2.45ZM59.1,21.67c.16-1.21-.14-2.45-.92-3.38-1.64-1.98-4.1-2.39-6.64-2.49l.3,3.49,6.77,4.39.48-2.02ZM133.14,23.12l1.35-2.79,1.72-4.49c-3.29,2.98-5.95,6.54-7.87,10.5l2.55.38,2.26-3.6ZM63.04,25.54c2.45.34,4.68.83,7.04,1.37.68-2.97.89-5.91-.11-8.72-.33-.79-.78-1.54-1.55-1.95-2.95-1.57-7.18,5.42-8.78,8.12l1.31,1.01,2.08.18ZM151.09,16.26l.21-.3-1.38.4c.42.3.79.27,1.18-.1ZM46.98,18.65l1.6-.14-2.7-1.88-2.11.71.77.61,2.44.71ZM144.56,20.56c.92-.47,2-.74,2.72-1.41l2.2-2.02c-1.78.17-3.5.65-4.91,1.69-1.47,1.08-2.79,2.24-3.93,3.71l3.92-1.98ZM159.51,20.64l3.6.08-2.59-2.82-2.3.1c-2.26.37-4.39.9-6.55,1.66-1.98.69-3.88,1.48-5.54,2.88l4.36-1.07c2.97-.66,5.91-.9,9.04-.83ZM166.85,20.26c-1.13-1.28-2.47-2.1-4.05-2.15l2.78,2.11,1.26.04ZM94.74,27.47l4.45-1.24,6.99-5.29c.98-.74,1.82-1.54,2.44-2.64-1.19-.17-2.18-.05-3.18.33l-3.59,1.34c-2.41,1.16-4.75,2.35-6.92,3.92l-2.25,2.07-2.45,2.05c1.54-.08,3.01-.11,4.52-.54ZM42.1,18.79l-.42.67.13-.71c-.36-.08-.84-.14-1.14,0-1.64.8-3.16,1.59-4.6,2.69l3.52-.12c1.43-.79,2.82-1.43,4.41-2.13l-1.9-.41ZM21.29,28.84c.73-.71,1.29-1.42,1.82-2.23,2.58-3.16,5.24-6,8.95-7.82-2.59.36-4.85,1.33-7.03,2.61-.9.53-1.63,1.12-2.33,1.92-1.36,1.55-2.56,3.13-3.78,4.83l1.34,2.24,1.03-1.55ZM33.02,22.14l2.53-1.75,2.26-1.42c-.77-.04-1.57-.23-2.37-.11-3.91.6-6.8,2.84-9.34,5.86,2.21-1.27,4.44-2.01,6.92-2.57ZM49.63,19.51c-.23-.25-.67-.35-1.03-.23l1.65.92-.62-.7ZM51.3,23.98c.06-.63-.01-1.04-.25-1.45-1.59-1.44-3.45-2.38-5.52-2.96-1.65.4-3.14.97-4.54,1.82,2.16.27,4.09.58,6.08,1.14,1.48.37,2.79.85,4.24,1.45ZM54.42,24.57l2.67.47c.52.09.93-.02,1.13-.68-2.01-1.42-4.05-2.81-6.28-4.04.43,1.16,1.24,1.77,1.72,2.73l.76,1.52ZM135.36,22.66c.81-.37,1.54-.93,1.71-1.87l-1.71,1.87ZM138.11,22.98c.72-.53,1.22-1.08,1.68-1.69l-2.17,1.33.57,2.33c.14-.75,0-1.39-.08-1.97ZM152.53,24.56l-.91,1.76c2.59-1.69,5.16-3.06,8.01-4.05l-2.58-.38c-2.13.05-4.18.32-6.24.78l-1.76,1.2,2.09-.65c.38-.12.88-.04,1.15.17s.43.82.25,1.18ZM163.19,30.33c.43.85-.68,2.18-1.54,2.7l-3.06,1.88c-2.45,1.22-4.92,2.16-7.53,2.95l-4.81,1.46-.45.81,3.95,4.13c4.74-3.29,9.96-5.59,15.52-7l-.04-1.04.77.33,1.46-1.93c.26-4.22-.71-8.36-2.99-11.93-2.89-.72-8.6,1.89-11.11,3.51l-3.07,1.97-5.7,6.58-1.48,1.8.61.96c.1.16.07.75.07.83l.68.12,1.77-.75c.57-.24.96-.8,1.44-1.2,3.4-2.85,7.65-5.57,11.94-6.71,1.34-.35,3.05-.51,3.57.52ZM169.88,31.02c.01-2.27-.32-4.37-.86-6.49-.92-.92-1.96-1.55-3.25-2.05,1.77,3.32,2.91,6.66,2.85,10.47l1.26-1.93ZM45.63,24.77l4.42.02c-3.59-1.32-6.96-2.07-10.8-2.21-.29-.01-.53.29-.51.51l.11,1.3,4.75.03,2.04.35ZM31.43,25.35c-.56.3-1.08.56-1.63,1.07l3.18-.91c.65-.19,1.22-.83,1.77-1.16l2.52-1.55-1.15.07c-.11,0-.36.25-.45.32-.61.12-1.29.33-1.88.68l.76.49c-.91-.28-1.49-.56-2.22-.04l-1.03.73s-.13.16-.1.18l.23.13ZM146.06,25l2.13-1.77-4.08,1.51c-.31.46-.58.94-.77,1.44l2.73-1.19ZM172.63,26.38l-.86-2.3-1.86-.76c.11.34.22.82.35,1.03l1.93,2.75.44-.72ZM174.64,23.62l-1.06-.26c.19.37.29.49.55.79l.5-.53ZM142.46,32.87l3.64-2.75,3.85-2.78c.54-.39,2.08-2.52,2.17-3.53-.55-.1-1.11-.1-1.65.09-1.2.42-2.37.84-3.46,1.48-.68.4-1.18,1.18-1.68,1.75l.91.42-1.13-.19c-1.26,1.46-2.56,3.57-2.64,5.5ZM10.38,35.89c1.6-4.13,3.87-7.25,6.87-10.31l-.67-1.83c-1.41,1.76-2.67,3.48-3.94,5.3-1.49,2.25-2.72,4.56-3.8,7.04-.13.3-.04.68.21.88l1.33-1.08ZM37.5,24.58l-.22-.76-1.33.98,1.55-.21ZM175.53,25.57l.08-1.57-.5-.08-.5.8.92.85ZM24.51,28.55l2.1-1.09,3.39-3.04c-1.95.67-3.7,1.59-5.24,2.88-.58.48-1.04.97-1.2,1.74l.95-.48ZM177.81,25.13l-1.2-.68.08.84,1.12-.16ZM76.01,28.6l3.04-3.8-4.93,3.2,1.89.59ZM53.52,27.5l-.44-1.24-1.93-1.07h-4.37s1.43.64,1.43.64c1.53.56,2.92,1.22,4.3,2.13l1-.46ZM56.64,26.19c-.69-.39-1.12-.61-1.91-.8l.63,1.31,1.27-.51ZM133.99,27.27l.04-1.87c-.62.4-.9.93-.96,1.76l.92.11ZM107.76,26.83h2.91s1.3-1.23,1.3-1.23h-2.03c-.32.17-.61.18-.99.03-.27,0-.44.14-.59.36l-.6.84ZM116.31,26.91l4.07-.44c-2.61-.54-5.16-.82-7.84-.91l-1.44,1.27,5.2.07ZM103.41,26.93c1-.3,1.99-.62,3.05-.7.49-.04.99.12,1.24-.55-.87.09-1.86-.02-2.7.31l-2.71,1.06c.43.13.78.04,1.12-.12ZM61.25,26.76c-.67-.79-.99-.95-2.11-.87-.25.02-.3.35-.1.39l2.2.48ZM193.25,29.46c.28-1.22-.19-2.31-1.38-2.75-2.26-.84-5.54-.91-8.08-.8l-2.91.13c4.25,3.64,6.2,8.35,6.61,13.92,2.26-3.24,4.75-6.82,5.75-10.5ZM103.29,26.01l-3.03.46c-.35.05-.81.54-1.15.82,1.54.11,2.74-.47,4.18-1.28ZM64.6,28.2l3.29,2.94c.4-.23.98-.53,1.11-.86l.49-1.22.38-1.41c-2.62-.61-5.15-1.17-7.76-1.48l1.42,1.18c.13.11.54.15.71.2l4.02,1.11c.09.02.3.27.22.3l-.37.16-3.51-.91ZM179.26,49.68c2.73-2.68,5.04-5.39,7.24-8.33-.15-5.19-1.61-9.87-5.18-13.59l-2.1-1.66-2.46.15.32,1.41c.97,1.47,1.72,2.97,2.4,4.6,2.46,5.91,2.37,11.61-.23,17.42ZM141.94,30.6c.86-1.63,1.7-2.94,2.83-4.25l-2.17,1.11-.49,1.78c-.13.47-.27.95-.17,1.35ZM56.74,29.14l1.07-2.68-1.11,1.6c-.1.14-.24.39-.24.53s.17.4.28.55ZM48.38,30.26l.59-.31c-1.57-1.71-4.04-3.52-6.37-3.3l2.49.88c.6.05,1.32.31,1.51.94l1.78,1.8ZM56,27.79l.76-1.18-1.14.48.38.7ZM65.27,33l1.96-1.32-4.66-4.05-3.88-.99-1.43,3.61.99,2.51,1,1.29c1.95-1.46,5.32-3.59,6.02-1.05ZM171.69,27.95l-.91-1.39.22,2.57.7-1.18ZM175.28,28.12c.17-.66-.09-1.13-.55-1.52.14.55.29.98.55,1.52ZM98.13,26.99l-1.68.39c.54.16,1.24.32,1.68-.39ZM33.26,27.56l1.18-.3-.99.07c-1.07.19-2.14.37-2.9,1.24l2.71-1.01ZM126.04,29.04c.19-.6-.07-.64-.43-.97l.59.25.5-1.06-2.63.07.73.36c-.57.17-1.02-.3-1.48-.33-1.07-.08-2.08,0-3.17.15,2.02.41,3.95.86,5.88,1.53ZM173.17,29.04c-.04-.78-.16-1.2-.37-1.86-.24.27-.28.61-.14.88l.51.98ZM18.06,27.62c0-.07-.12-.26-.15-.23-1.69,1.73-3.15,3.52-4.18,5.63l4.32-5.4ZM127.14,29.4l1.93.94,1.28-2.76-2.45-.31-.43,1.03c-.1.25-.05.62.05.94l-.29-.07c-.06-.02-.13.18-.09.23ZM47.36,31.09c-1.97-2.39-4.69-3.3-7.8-3.23,1.22,1.97,2.9,4.22,5.01,4.99l2.79-1.76ZM51.38,28.55l-1.61-.79.93,1.24.69-.45ZM119.73,32.04c1.02.25,2.11,0,3.11.12.93.12,1.9-.06,2.7-.36l.28-1.81c-3.06-1.14-6.28-2-9.59-2.11-1.74-.06-3.34.52-4.99.83l-1.8.33c-.22-.32,0-.76.35-1.18l-3.56.08-1.48,1.06,1.72.76,5.12.41-.63-.79c-.04-.05.02-.26.06-.31.03-.03.24-.03.27,0l1.45,1.24,6.99,1.73ZM112.01,27.9l-1.39-.08c-.16.08-.27.17-.46.42l1.84-.34ZM32.47,33.58c-1.81,2.24-3.51,4.46-5.12,6.83,1.71,2.01,3.37,3.78,5.19,5.66,2.71-5.31,6.68-9.64,11.61-12.89-2.41-1.23-4.07-3.32-5.56-5.35l-.66,1.09c-1.32,1.63-2.65,3.21-4.21,4.54l2.72-3.51,1.12-1.59c-.73.32-1.29.8-1.83,1.36-1.18,1.23-2.2,2.5-3.25,3.85ZM72.3,28.26l-1.39-.36-.47,1.62,1.86-1.27ZM104.12,28.87l.81-.81-2.38.37,1.57.44ZM32.27,30.61c-1.13.66-2.12,1.19-3.13,1.92-1.55,1.64-2.75,3.46-3.74,5.49l1.41,1.68,5.11-6.92c1.31-1.64,2.61-3.12,4.13-4.6-1.67.37-3.14.87-4.65,1.55-3.07,1.19-5.82,2.83-8.49,4.81l2.02,2.91c1.01-1.62,2-3.06,3.18-4.49.61-.58,1.23-1.05,1.97-1.42s1.38-.81,2.19-.93ZM140.95,31.85c.04-1.33.14-2.4.5-3.62l-1.68,1.08.89,2.59.11.22s.17.05.17,0v-.27ZM131.65,30.15l.19-1.74-1.09,2.58c.33-.12.87-.55.9-.84ZM17.39,35.58l.92-.74c.5-1.39,1.06-2.67,1.73-4l-1.3-2.36c-.44.58-.78,1.11-1.05,1.77l-1.5,3.58c.32-.07.66-.11.84,0,.15.08.29.42.3.6l.06,1.16ZM74.12,30.78l1.32-1.57-2.16-.65-3.31,2.19-.75,1.56,4.9-1.52ZM170.44,38.41l2.77-5.64-.09-1.61-1.15-2.6-.9,1.46-.03,2.63-.59,5.77ZM52.86,32.99l1.42-2.43-2.37-1.69-.87.48,1.82,3.64ZM82.86,28.96c-.83.03-1.68.15-2.4.52.9-.06,1.62-.24,2.4-.52ZM90.27,30.78l4.61-.65,1.03-.75-2.39-.29c-1.16-.14-2.46.12-3.56.55l-1.59,1.01c-.11.07-.26.3-.36.45l2.25-.32ZM101.84,29.72c.26,0,.59-.16.61-.29-.83-.13-1.66-.47-2.31-.22l-1.32.53,3.02-.02ZM174.78,38.94c.5-.89.81-1.8,1.09-2.8.47-2.54.92-4.57.05-7.05l-.78,2.24v3.47c0,1.41-.13,2.7-.36,4.13ZM88.22,30.54l1.28-.88c-1.12-.16-1.65.22-2.33,1.02.31.02.83,0,1.04-.14ZM56.13,30.69c.17-.43.07-.75-.25-1.01-.13.19-.29.52-.22.65s.34.31.47.35ZM12.36,39.66l1.76-1.56,2.12-5.21,1.31-3.08c-2.13,2.46-4.01,4.99-5.63,7.77-.43.73-1.1,2.42-.96,3.31l1.39-1.23ZM136.7,34.74l1.47-1.84,1.29-1.54-.54-1.43-1.39,1.23c.26.57.39.82.52,1.4l-.97-.88c-.2.96-.42,1.95-.38,3.06ZM142.85,36.08l2-2.52,2.97-3.57-2.39,1.75-2.96,2.33.37,1.99ZM5.16,50.06c-.68-2.16-.87-4.19-.78-6.37.11-2.8.45-5.5,1.22-8.2l1.48-5.19c-5.31,6.67-6.6,13.69-1.87,21.18.03-.38.09-.99-.04-1.42ZM50.56,33.33c-.28-1.15-.76-2.03-1.35-2.97l-.46.32,1.81,2.65ZM128.1,30.92l-1.3-.57-.09,1.22,1.39-.66ZM150.92,36.81c3.59-1.14,7.71-2.63,10.56-4.91.39-.31.67-.72.94-1.23-.66-.3-1.31-.31-2.02-.19-4.35.74-9.89,3.58-12.95,7.04l1.88-.3,1.58-.41ZM83.1,30.84l-1.6-.21,1.06.56.54-.35ZM175.85,52.89l.56-.53c4.79-6.55,4.94-14.6,1.13-21.72l.08,2.49-.87,5.85c-.37,1.65-.91,3.15-1.59,4.67-.3.68-.5,1.35-.53,2.08,2.03,1.88,1.81,4.56,1.22,7.16ZM76.71,34.27l1.36-.51,3.58-2.16-1.72-.78c-1.89.36-6.19,1.1-7,2.23l-1.14,1.59,1.17,1.14,3.77-1.51ZM110.83,31.85l2.25.22c-.18-.53-.51-.6-.96-.65l-3.81-.43c-1.78-.2-3.54-.17-5.34,0-.8.07-1.54.44-2.21.79l1.39-.03,5.4-.06c.08,0,.28.03.29-.03l.03-.25c.56.31.95.31,1.51.35l1.45.1ZM95.43,32.21l3.41-.3,1.42-.99-4.23.21-2.4,1.31,1.79-.22ZM84.27,31.89l.91-.79c-.68-.09-1.21.09-1.66.49l.74.29ZM128.25,33.09l.51-1.84c-.35.04-.62.1-.92.24l-1.09.49c-.15.08-.12.63.04.68l1.46.43ZM22.94,31.45c-.53.3-.95.64-1.29,1.16.54-.18.95-.68,1.29-1.16ZM38.75,43.17c.69-1.26,1.58-2.15,2.78-2.85,2.52-1.46,5.36-2.05,8.3-2.03l.95-1.55-1.75-3.42-1.37-2-2.57,1.6.04.46-.58-.11c-4.59,3.21-8.59,7.47-11.02,12.61,1.56-.34,2.81-1.05,3.98-2,.34-.28.8-.52,1.24-.73ZM92.77,31.54l-2.5.38c1.12.38,1.72.54,2.5-.38ZM140.48,33.72l-.96-2.11-2.17,3.09c1.21-.12,2.13-.41,3.14-.98ZM83.14,32.24l-.64-.31-2.01,1.07,2.65-.76ZM53.93,36.84l.9-2.4-.28-2.34-1.31,2.13.69,2.61ZM67.96,32.82c.13-.04.21-.4.11-.49-.11-.1-.31-.1-.44,0l-1.63,1.15,1.95-.65ZM87.11,33.21l3.07-.81c-.63-.29-1.24-.27-1.87-.2l-2.4.45,1.2.56ZM133.9,33.53c.4-.46.52-.94.18-1.4l-.69,1.28c-.04.07.18.49.23.43l.28-.32ZM168.26,36.89l1.31-3.55c.14-.41.23-.83.21-1.23l-1.2,1.69-.32,3.08ZM130.99,33.94l.4-.93-.93-.62-.11,1.24c.02.17.47.37.64.31ZM56.27,35.99l1.96-1.21c-.52-.85-1.06-1.44-1.83-2.16l-.42,1.46.29,1.9ZM109.64,35.87l.19.56,4.63,1.26c-1.47-2.11-3.25-3.62-5.15-4.94-2.79-.09-5.35-.03-8.03.09l-2.38.11-1.25.93,3.1,1.37,8.21,1.04.68-.41ZM117.64,38.22l-3.89-5.39-2.49-.04c.91.74,1.87,1.41,2.61,2.31l2.5,3.04c.33.4.98.43,1.27.08ZM125.84,35.87c-2.46-1.26-4.76-2.1-7.2-2.91l-3.65-.16,3.7,5.1c2.41-.95,4.65-1.58,7.15-2.04ZM61.99,34.92l2.08-1.3c.16-.1.24-.52.27-.78-.7.02-1.31.05-1.85.38l-2.69,1.65.48.86,1.71-.82ZM84.17,33.71c.41-.07.82-.23,1.2-.41-.65-.76-1.55-.12-2.41.62l1.21-.22ZM125.62,33.41l-1.55-.3h-1.87s3.86,1.71,3.86,1.71l-.44-1.42ZM94.87,34.81l1.79-1.43c-.55-.06-.97-.09-1.41-.03l-3.66.5-1.08.89,4.36.08ZM69.56,33.9c-.38-.46-.79-.19-.98-.03-.15.12-.21.5-.25.85l1.23-.82ZM128.05,34l-1.3-.37c.26.81.48,1.28,1,1.88l.3-1.51ZM76.95,36.35c1.06-.09,2.22-.55,3.12-1.07l1.73-1.46-2.2.64c-1.95.56-3.81,1.25-5.56,2.14l2.91-.24ZM66.73,35.65c.6-.35.8-.92.9-1.48-.48.11-.71.32-.97.59l-.92.98c.21.02.78.04,1-.08ZM99.46,35.16c-.83-.5-1.38-.72-2.14-1.01l-1.18.8,3.32.2ZM88.58,34.88c-.57-.59-1.13-.15-1.64.04l1.64-.04ZM130.01,35.42c-.07-.55-.17-.89-.71-.95l-.33,1.1,1.04-.16ZM70.43,35.53c.16.02.5-.28.43-.39l-.27-.39c-.07-.1-.36.01-.46.09l-.75.59,1.05.1ZM170.5,44.21l.91.13c.61-1.63,1.24-3.19,1.59-4.9.32-1.54.32-3.04.29-4.68l-2.05,4.12-1.24,2.45.5,2.89ZM136.7,36.31l1.7.65,1.61-1.98-3.26.78c-.02.09-.06.45-.05.56ZM24.92,38.85l-1.56,3.58.06,1.07c-.32-.34-.42-.83-.3-1.32.38-1.34.85-2.62,1.4-3.9l-2.26-3.2c-1.34,1.61-2.31,3.38-2.85,5.37.46,1.8,1.51,3.28,2.92,4.37l.25-.3c.04.22.09.54.19.62s.36.19.47.2c.97-1.72,1.94-3.27,3.02-4.87l-1.35-1.63ZM141.26,38.14l.77-1.08-.8-1.93-2.01,2.24,2.03.77ZM19.17,37.48l1.16-2.19c-.93.45-1.12,1.11-1.16,2.19ZM63.15,36.44l.57-.84c-.76.2-1.27.46-1.86.82l1.29.02ZM75.08,42.46c.29.15.9-.21,1.27-.27-.61.68-1.59.68-2.06,1.27,3.33-.29,6.55-.26,9.8.25l1.89-1.54,6.41-5.38-2.1-1.09c-1.8-.01-3.46.22-5.21.51s-3.55.69-5.28,1.34l-2.65,1.82c-.4.16-.73.35-1.09.59l.86,1.01c-.66.12-.81-.26-1.17-.67l-1.74,1.6,1.07.57ZM167.16,36.97l.2-1.41-.79,1.02c-.1.16.4.5.59.4ZM93.51,35.83l-1.27-.05c.42.45.91.61,1.27.05ZM69.96,37.07l1.25-.52-1.11-.15c-.29-.07-.62-.11-.94-.11-.03-.07-.4-.47-.53-.4-1,.51-1.87,1.05-2.13,2.08l2.07-.57,1.39-.34ZM106.12,38.48l-2.77-1.41-1.72-.69-6.57-.31c-.44-.02-.89.3-1.12.7l8.82,4.6,3.37-2.89ZM169.09,38.83l.34-2.84-.78,2.04.44.8ZM9.6,39.07l.61-2.65-1.08.95c.07.58.2,1.07.47,1.7ZM108.05,37.12l-4.54-.6,3.24,1.56,1.3-.96ZM134.76,39.7l-1.06-3.31-.77,2.17,1.84,1.14ZM65.17,36.66c-.82-.05-1.45.57-1.91,1.18l1.91-1.18ZM62.77,36.85l-1.93.06c.32.38.74.61,1.18.57l.76-.63ZM121.77,40.14l2.2.89,3.34,1.55c-.27-1.47-.16-2.76.13-4.13l.11-1.53-1.94.09c-2.17.29-4.19.93-6.26,1.68.02.19.19.5.34.57l2.08.89ZM73.23,37.59l-.41-.5-1.74.97c.86-.07,1.4-.25,2.15-.47ZM97.04,46.7l5.26-4.96-9.14-4.58-8.14,6.6,5.92,1.16,6.1,1.78ZM112.28,40.87l3.26-1.71-6.44-1.86-1.59,1.16,4.77,2.4ZM131.29,41.13c-.14.47-.34,1.07-.57,1.42-.1.15-.58.07-.68-.07-.08-.12-.22-.4-.21-.56l.13-1.33.19-2.2-1.24-.94-.38.36c-.08.08-.37-.06-.51-.11-.41,1.61-.49,3.25-.06,4.87,1.7.4,4.02.49,5.48-.09-.53-.54-.93-1.01-1.27-1.5-.25.15-.59.18-.88.15ZM137.91,37.72l-.93-.28.5.89.43-.61ZM64.89,38.59c.52-.1.93-.52,1-1l-1.88,1.17.88-.17ZM60.06,39.26c.1-.04.37-.21.34-.3l-.17-.44c-.09-.25-.24-.55-.4-.67s-.66-.02-.83.09l-2.3,1.47.2,1.01,3.16-1.16ZM55.4,38.85l-.09-.81c-.16-.02-.53.25-.56.44l-.16.95.81-.58ZM140.49,39.87c.13-.18.33-.69.41-.88l-2.16-.92-.6,1.2.89,1.21c.45-.14,1.02-.32,1.46-.61ZM151.1,45.44l3.79-.25,8.72-1.09,2.9-5.02c.2-.34.28-.59.41-1.04l-1.63.18c-.56.06-.91.42-1.44.82l.02-.43c-4.64,1.32-9.52,3.31-13.47,6.21l.69.63ZM8.85,44.05c.07-1.26.32-2.46.58-3.7l-.75-2.27-1.12,1.92c-.1,1.99.09,3.86.83,5.74.34-.56.43-1.1.47-1.69ZM64.09,41.13l3.83-2.79-2.01.37-.71.96c-.36.49-.8.84-1.11,1.46ZM174.45,42.33c.5-1.3.82-2.37,1.07-3.75l-1.09,1.98c-.04.56-.05,1.12.02,1.77ZM107.85,44.06l3.74-2.75-4.73-2.44-3.46,2.86,4.45,2.33ZM39.64,43.75l6.77-2.63c.4-.07.69-.31.99-.57l1.55-1.36c-3.45.17-8.11,1.32-9.31,4.56ZM61.95,40.08l.45,2.73c1.01-1.15,1.88-2.28,2.58-3.63l-1.46.25c-.55.09-1.18.35-1.56.65ZM142.06,39.44l-.97-.35-.37.83,1.34-.48ZM13.4,50.08c.26-2.43.75-4.58,1.45-6.77l1.37-3.99-2.15,2.33c-1.12,2.75-1.5,5.74-.66,8.43ZM167.19,43.97l1.19-2.06c.19-.32.25-.92.3-1.35.04-.34-.25-.87-.45-1.18l-.87,1.62-1.02,2.96h.85ZM69.08,39.62c-.75-.17-1.19.32-1.66.76l1.66-.76ZM71.26,43.58l1.15-1.09-.58-.32c-.1-.05-.05-.46.03-.54l2.19-2.04-2.95,1.07c-3.01,1.1-6.03,2.76-8.56,4.63-.15.16-.13.75-.09.91l4.08-1.45c1.5-.67,3.07-1.01,4.72-1.17ZM118.91,40.82c-.67-.47-.93-.82-1.71-1.12l1.27,2.28.44-1.16ZM134.74,41.05l-2.08-1.37c.02.84.24,1.7.99,2.19.41.03.95-.45,1.1-.82ZM51.81,41.51l-.15-1.58-1.49,1.2c.68.09,1.01.15,1.65.39ZM118.15,43.28l-.52-.6-1.56-2.69-2.97,1.32,4.71,2.82.33-.84ZM11.09,43.41l1.4-1.64c.35-.42.46-1.1.63-1.71l-1.35,1.24c-.36.06-.73.22-.81.66s-.03.91.13,1.45ZM143.96,44.4l.35-1.64-1.28-2.57-2.86.96c-.09.03-.27.25-.26.35,0,.07.09.25.14.32l1.32,1.66,2.59.92ZM64.9,42.3c.76-.5,1.44-1,2.03-1.58-.85.38-1.49.92-2.03,1.58ZM61.35,42.93l-.48-2.22c-1.47,1.19-2.72,2.2-3.91,3.65,1.63-.29,2.97-.85,4.39-1.44ZM127.81,45.21l-.21-1.19c-2.19-1.09-4.25-2.16-6.63-3l3.2,3.87,1.94,1.78,1.7-1.47ZM26.98,46.68c1.57.12,3.05,0,4.57-.32l-4.74-5.19c-1.02,1.5-1.96,2.97-2.85,4.63.97.51,1.91.71,3.01.88ZM57.17,42.39l1.28-1.24-1.38.46.1.78ZM135.25,41.83l-.32-.55-.91.91,1.22-.36ZM148.42,45.32l.55-.48-3.55-3.54c-.51,1.02.39,2.24,1.25,3.28.41.5,1.1.85,1.75.73ZM121.81,45.84c.89.2,1.63.42,2.54.47l-2.43-2.52-1.37-1.52-.97-.88-.35,1.32c-.06.69-.28,1.11-.95,1.63l2.06,1.16,1.48.33ZM116.73,45.22c.21.04.58.07.62-.04l.17-.47-5.21-2.96c-1.44.64-2.64,1.49-4,2.53l4.41,2.45,4-1.51ZM48.12,43.64l2.87-1.65c-.45-.1-1-.12-1.24.02l-.86.95-.2-.49-.57,1.17ZM173.29,44.85c.25-.34.59-.86.59-1.22v-1.74c-.16.15-.4.48-.41.67l-.18,2.29ZM106.11,49.92l5.47-2.71-3.93-2.44-2.53,1.75,2.1-1.92-2.5-1.67c-.57-.38-1.06-.66-1.74-.89l-2.55,2.4-2.62,2.51,4.66,1.58.88-.55-.58.68,3.33,1.27ZM42.81,47.57l3.72-2.96,1.31-2.47-1.15.72c-2.1,1.8-3.98,3.76-5.63,6.06l1.74-1.35ZM73.74,43.41l1.24-.77-1.24-.43-1.54,1.44c.44-.01,1.2-.02,1.55-.24ZM55,44.36c.51-.36.78-.64,1-.95-.24-.47-.28-.68-.34-1.13-.16.12-.32.35-.36.54l-.3,1.54ZM165.59,42.33l-1.09,1.67c.7.26.96-.58,1.09-1.67ZM6.18,49.46l1.68-2.73c-.52-1.46-.84-2.8-1.07-4.27l-.73,3.45c-.24,1.12.01,2.28.12,3.54ZM20.66,61.46l-.41-1.41c-2.92-4.19-4.07-9.3-3.85-14.4l.04-3.1c-1.65,3.92-2.43,8.21-1.24,12.32l.55,1.39c.56.94,1.16,1.87,1.97,2.59l2.94,2.61ZM21.79,48.38l.3-.97.65-1c-1.55-.98-2.72-2.16-3.68-3.8-.24,1.62-.24,3.18-.13,4.82.21,2.15.57,4.18,1.2,6.35.32-1.87.85-3.6,1.66-5.4ZM172.05,61.26l2.76,1.66,1.55-1,1.49-1.11c.1-.07.38-.05.54-.01,5.4-4.79,7.61-10.45,8.1-17.72l-2.09,2.47c-2.21,2.62-4.56,5.03-7.13,7.32l-2.16,2.76c-.36.32-.61.74-.73,1.13l.3.1c-.14.46-.28,1-.55,1.39l-2.07,3.01ZM52.8,46.78l1.09-1.36-.14-2.24-.64,2.02c-.16.52-.25,1.04-.32,1.58ZM140.59,51.66l.99.99.41-.57c-1.23-1.48-2.19-2.96-3.19-4.56-.83-1.32-1.48-2.6-2.06-4.15l-3.4.51-2.06,1.06c2.75,1.71,5.25,3.43,7.66,5.45l1.45,1.11-.46-.85c.33-.04.61.1.71.28.16.25.18.46-.05.74ZM131.55,43.51l-2.47.04,1.08.71,1.4-.75ZM145.52,44.8l-.88-1.42-.34,1.13,1.22.29ZM39.27,49.54l3.02-3.86,1.7-1.93c-1,.18-2.09.44-2.92,1.06l-2.21,1.65c-.02,1.07.09,2.05.41,3.07ZM51.89,50.51l4.25-2.07,2.39-1.58c1.05-.86,1.86-1.89,2.76-2.89l-1.27.52-4.32,1.36-1.41,1.14-.76.89c-.67.79-1.43,1.54-1.64,2.63ZM73.94,45.76l6.04,1.34,3.32-2.75c-3.62-.51-7.06-.3-10.54.23l-1.77.3c-.19.03-.52.42-.66.58l3.61.3ZM143.76,50.11c.16-.2.22-.79.27-1.04l-3.36-4.53-2.37-.51c.74,1.86,1.75,3.43,2.84,5l1.68,2.25.95-1.17ZM83.61,54.22c-5.04-.13-9.92.89-14.53,2.69l-4.17,3.39c.57.79,1.16,1.3,1.94,1.68,5.63-1.3,11.51-2.41,17.35-2.07l4.64-5.06-.42-.15.66-.07,7.36-7.42c-2.47-.84-4.79-1.5-7.23-2.02l-4.99-.77-3.49,2.86,1.41.46-.08.09-1.53-.38-3.72,3.14-6.19,5.07,5.43-1.26c2.37-.4,4.73-.58,7.12-.4l1.12.08,2.54.3c-.47.07-.93.01-1.46-.03l-1.77-.14ZM40.26,44.69l-1.24.27v.85s1.24-1.11,1.24-1.11ZM49.73,48.12l1.39-.98.57-2.07-1.36.72c-.98.52-1.66,1.59-2.33,2.49.56.42,1.2.21,1.73-.16ZM166.58,45.05l-.64.04-.69,1.83,1.33-1.87ZM169.52,47.3l-.02-2.26-.71.02-1.48,5.06,2.22-2.82ZM154,48.26l4.7,3.1,4.21-6.14-6.56.85-4.2.39,1.84,1.81ZM161.65,50.42l1.58-1.81c.74-1.05,1-2.25,1.52-3.46h-.97s-1.52,2.48-1.52,2.48l-2.75,4.26.23.14,1.31-1.27c.06-.06.13-.34.2-.33h.39ZM143.81,45.42l-.92-.14.9,1.12.02-.98ZM34.81,48.27c.96-.55,1.82-.94,2.93-1.22l.21-1.57c-.72.27-1.44.44-1.95.89l-1.67,1.44.48.46ZM170.59,49.42l.5-.71c.67-.95,1.34-2.01,1.17-3.28-.58,1.11-.63,2.17-1.42,3.19l-.05-1.16c-.41.66-.28,1.3-.2,1.96ZM137.71,56.61c1.2-.93,2.12-2.02,3.14-3.15-2.82-2.49-5.63-4.83-8.83-6.73l-1.94-1.15-1.24.77-1.97,1.22,7.12,7.54c.52.55,1.14.87,1.85,1.18.47.31,1.29.78,1.87.33ZM146.99,46.49c-.12-.14-.29-.3-.35-.31l-2.28-.48-.18,1.04,1.02,1.5c.55-.76,1.04-1.24,1.78-1.75ZM115.72,48.56l1.38-2.81-3.73,1.4,2.34,1.41ZM121.86,50.17l1.73-1.75-3.63-2.17c-.64-.38-1.54-.38-2.34-.56l-1.38,3.2,4.76,2.85c.22-.61.44-1.16.86-1.58ZM10.59,48.1c.36-.56.38-1.22.11-1.85l-.14-.32s-.25.24-.24.29l.27,1.88ZM67.92,54.44l.94-1.38c-1.81-.1-3.35.35-4.96.84l-1,.31c.23,1.42.5,2.71.99,4.01l4.91-1.84,5.07-4.07,5.91-5.05c-2.83-.64-5.66-1.31-8.59-1.21l-1.56.05-2.29,2.23c.66.41,1.29.43,2.03.4l-.72.39-1.49-.58-4.5,4.46.14.89c1.58-.56,5.76-1.69,6.3-1.02.23.29-.5,1.2-1.17,1.58ZM38.79,53.06l-.66,1.46-1.16,2.07,1.32-.33c1.09-.15,2.12-.53,3.08-.99,1.47-2.32,2.95-4.47,4.59-6.64l.52-.56,1.61-1.92c-1.11.18-1.15.97-1.63.72-1.01.58-2.1,1.15-3,1.92l-2.02,1.72-1.35,1.09.58,1.64c-.08.22-.46.54-.68.58l-1.23-.77ZM66.74,48.07l1.83-1.84c-1.42.08-2.58.18-4.01.51.71.62,1.41,1.05,2.18,1.33ZM125.23,47.21c-.5-.28-.68-.29-1.06-.36l-2.71-.48,2.55,1.78,1.23-.94ZM154.3,50.14l-1.65-1.64-4.2-1.92c2.36,2.56,4.99,4.63,7.69,6.65l.55-.44-2.38-2.65ZM33.97,47.53l.78-.84-1.21.3.43.54ZM172.64,55.24l1.88-1.28c.98-2.34,1.64-5.32-.15-7.3l-.59,3.19-.74,3.93-.4,1.45ZM26.81,63.38l1.87-2.68c.03-2.1.24-4.14.79-6.16l.85-3.16-2.17,1.95c.52-1.29,1.99-1.72,2.47-2.88l1.27-3.08-2.91.39c-1.92.12-3.73-.19-5.52-.96-1.51,3.08-2.72,6.54-2.23,9.91l.6,1.9c.12.37.41.7.67,1.08l.77-.92.1.09-.71.99c.65.83,1.24,1.56,2.07,2.12l2.07,1.41ZM66.49,48.29l-2.55-1.46-1.62.59c-.03,1.64-.04,3.1.2,4.65l3.97-3.78ZM163.13,53.93l1.75-1.42,1.18-1.1c.56-1.49,1.06-2.87,1.34-4.44l-3.69,3.89-1.27,2.04c.17.07.44.17.47.3l.21.73ZM155.34,53.86l-4.2-3.39-3.43-3.31c-.69.63-1.24,1.46-1.48,2.43l5.27,7.27,2.47-2.02,1.36-.99ZM7.03,49.42l.2.05.97-1.98-.16.02-1.01,1.91ZM91.66,57.77l2.14-1.76-.26-.2c.32-.05.58-.1.78-.26l7.57-6.54-4.66-1.54-7.39,7.37.41.18-.65.04-4.36,4.79,2.44.18,3.97-2.26ZM33.31,48.07l-.52-.5-.55,1.5,1.07-1ZM36.15,49.72l1.05-2.1-2.19.91,1.15,1.2ZM115.32,49.43l-3.08-1.83-5.56,2.55,7.15,3.2,1.5-3.92ZM47.14,59.46c-.33-.11-.6-.16-.75-.06-1.14.76-2.04,1.67-2.75,2.83l-2.15,3.51c-.19.31-.23.69.01.94,3.36-3.18,6.93-5.78,10.89-7.98l3.72-1.84c1.18-.58,2.19-1.38,3.19-2.22l2.51-2.07-.21-2.69-.16-2.13-3.5,1.54-3.73,4.83c-.05.09-.07.29,0,.29l.34.03-.47.42c-.2.18-.58.34-.82.2-1-.59,1.25-3.08,2.11-4.38-1.62.92-3.06,1.95-4.5,3.11-1,.81-2.07,1.54-2.88,2.53l-2.5,3.07,1.06-.55c.14-.07.54,0,.63.12.1.13.09.53-.04.5ZM37.85,51.32c.24-.2.56-.52.65-.7l-.68-2.5-.99,2.28,1.01.92ZM44.99,52.76c-.34.33-.69.61-.89,1.04l4.29-3.34c.91-.71,1.81-1.32,2.53-2.3l-2.16.75c-.23.08-.61-.32-.86-.56l-1.33,1.59c-.71.85-1.29,1.72-1.58,2.82ZM123.84,53.47l1.5.87,3.44,1.26,5.93,1.75-2.45-2.82-3.76-2.92.08-.1,2.07,1.36-4.62-4.77-.98.69,2.53,2.05-1.73-.89-1.29-.8c-1.08.97-2.55,2.09-2.34,3.32l1.16.68,1.51-1.52c-.23.76-.64,1.21-1.06,1.84ZM171.22,55.15c.27-.21.63-.36.7-.76l.71-4.31-.07-1.85-2.48,3.95-1.68,3.76-.11,1.67c1.31-.51,2.69-1.18,2.94-2.46ZM31.78,50.34l2.06-1.55-.21-.26c-.04-.05-.22.1-.28.15l-.98.82c-.29.24-.54.46-.6.84ZM11.64,58.52c-1.05-2.75-1.85-5.19-2.18-7.87l-.8-1.77-1.54,3.42c1.23,2.32,2.69,4.49,4.52,6.22ZM33.93,54.56c.71-1.27,1.17-2.62,1.8-3.93l-1.55-1.58-2.41,1.51c-.79,1.85-1.3,3.7-1.59,5.67-.11.72-.17,1.33.13,2.09l1.8-1.74c.62-.6,1.39-1.25,1.81-2.01ZM105.29,50.29l-3.13-1.17c-2.6,2.31-5.15,4.36-7.71,6.89l10.84-5.72ZM12.73,52.75l-.93-3.41-.12,1.34,1.04,2.07ZM122,54.41c-.45-.44-.7-.83-.92-1.31l-5.25-3.3-1.36,3.81,4.8,2.51,2.74-1.7ZM165.62,54.93l1.6-1.88c.77-.91,1.26-1.91,1.65-3.08l-.75.74-1.4,1.56-1.1,2.67ZM144.37,52.52c-.01.41.15.75.5.97-.22-1.1-.28-2.08-.02-3.15-.16.14-.42.51-.43.71l-.05,1.47ZM41.79,58.15l-1.09,1.72c-.25.4-.52.79-.56,1.24l5.42-4.33,4.44-6.28-3.26,2.65-2.22,1.62c-.9.66-1.69,1.29-2.19,2.29l-.55,1.09ZM119.33,56.76c-1.28.79-2.47,1.2-3.83,1.23-1.15,0-1.99-.73-2.06-1.89-.04-.75.08-1.47.24-2.24l-5.21-2.28-2.61-1.07c-3.65,1.74-7.03,3.58-10.63,5.66l13.57,3.5,6.19,1.98,6.69-3.55-2.36-1.33ZM49.2,53.25c-.39.47-.71.91-.95,1.44l4.14-3.36-.95.42c-.19.08-.55-.03-.79-.24l-1.45,1.74ZM36.99,51.99l-.51-.5-.53,1.29,1.04-.79ZM149.42,57l-1.83-2.61-1.8-2.8c0,.85.05,1.75.44,2.36l.98,1.56c.45.71,1.51,1.09,2.21,1.49ZM145.87,56.49c-.36-.56-.84-.92-1.27-1.4l-2.11-2.38-.38.37,2.58,2.41,1.18,1ZM164.2,55.46l1.05-2.08-1.75,1.48.69.6ZM159.68,54.76l.71-.91-.28-.25-.78.64.35.51ZM146.3,59.96l.85-.73-2.9-2.71-2.93-2.64-3.07,3.15,6.15,2.86,1.9.08ZM154.74,56.53c.83-.43,1.4-1.09,1.82-1.87l-.87-.58-2.23,2.19c-.27.27-.32.64-.28,1.07l1.57-.81ZM118.72,56.38l-4.41-2.22c-.14.71-.21,1.32-.14,1.96.21,1.82,2.77,1.19,4.55.26ZM60.67,56.29l1.64-1.12-.16-.74-1.46.6-2.26,2.45c.89-.28,1.5-.69,2.23-1.19ZM161.84,54.98l-.55-.47-.83,1.18c.61-.23.81-.35,1.38-.71ZM165.97,57.02c.59-.83,1.21-1.51,1.59-2.48l-2.09,2.1.5.38ZM17.21,67.95l.23-.51c-1.15-1.21-2.18-2.46-3.09-3.88l-1.89-2.44-1.87-2.35c-.74-.93-1.51-1.75-2.42-2.52l-1.57-1.59c.99,6.12,4.28,11.86,9.49,15.19l1.02-1.84.09-.07ZM14.29,56.26c-.22-.72-.45-1.08-.82-1.66-.13.16-.17.49-.07.61l.9,1.05ZM33.71,58.18c.39-.21.47-.67.69-.99.58-.83,1.25-1.51,1.62-2.52-.54.34-1.04.72-1.34,1.23l-.53.92-.45,1.36ZM128.13,56.91l-4.47-2.25c.63.73,1.48,1.09,2.35,1.43l2.12.82ZM137.35,76.8l3.9,4.28,2.92,3.52c.08-1.5.06-2.81-.11-4.26-2.37-3.96-5.11-7.55-8.14-11.02-.68-.78-1.48-1.36-2.01-2.25,3.8,3.6,6.94,7.66,9.87,12.01-.11-1.65-.41-3.13-.78-4.64-.9.02-1.6-.14-2.26-.59l2.21.34c-.65-2.39-1.35-4.63-2.45-6.81l-2.03-4.01c-3.28-1.93-6.47-3.85-9.91-5.46-2.09-.98-4.2-1.76-6.06-3.15l-2.6,1.74,2.42,1.37c1.2-.47,2.97-1.24,3.41-.58.09.14.18.6.07.76l-.96,1.34c2.93,1.99,5.75,4.1,8.09,6.77-2.67-2.32-5.3-4.59-8.44-6.36l-3.65,4.38,7.79,4.09,5.31,2.44-5.5-1.92,4.11,3.39,4.78,4.62ZM159.04,55.53l-.48-.61c-.78.56-1.53.93-2.02,1.67l-.71,1.07c1.5-.54,2.23-.6,3.21-2.12ZM51.74,64.2c1.28-.5,2.31-1.23,3.49-1.86,2.59-1.37,5.18-2.65,7.88-3.81l-.78-3.07-2.21,1.44-1.9,1.18-.61.19-5.88,5.93ZM163.61,56.31l-.94-.66c-.17-.12-.64.25-.77.49l1.26.83.46-.66ZM40.63,59.52l1.56-2.75.57-.99c-.14.04-.43.26-.52.43l-1.41,2.59c-.13.24-.24.42-.2.72ZM172.55,57.26l1.12-1.42-1.04.62c-.18.11-.21.63-.08.8ZM49.41,65.52c1.19-.96,2.07-2.06,3.12-3.1,2.15-2.12,4.24-4.13,6.29-6.43l-2.58,1.25c-2.38,1.15-4.57,2.55-6.8,4.01-2.44,1.71-4.7,3.44-6.92,5.67l4.24-.77c.81-.15,1.96-.06,2.66-.63ZM19,64.65l.39-.65-2.77-3.57c-1.54-1.27-2.81-2.67-4.13-4.24l1.01,2.89c.22.44.44.83.76,1.17l1.63,1.76c.94,1.02,1.94,1.82,3.1,2.64ZM114.32,62.02l-7.54-2.49-7.13-2.02-4.71-1.26-2.88,1.86-2.53,2.06c7.58.75,14.85,1.91,22.22,3.43l2.56-1.58ZM13.45,74.07l1.29-3.06c.19-.46.91.02,1.03-.37.03-.11-.14-.29-.3-.37-5.03-2.87-8.19-8.28-9.54-13.84-1.37,6.67-.27,12.64,5.46,16.44.23-.09.6-.15.74-.06s.2.43.26.66l1.06.61ZM162.78,57.4c-.65-.41-.88-.6-1.64-.83l1.04,1.52.6-.69ZM34.32,66.48l1.07-.73,2.44-4.05,1.39-2.73,1.35-2.25-1.33.41c.09.59.12.9.06,1.35l-.38-1.29c-.84.21-1.58.32-2.36.31l-2.63,6.73.38,2.24ZM169.55,60.46l2.11-2.02.19-1.5-2.26,1.25c-.57.32-.95.77-1.17,1.45l1.12.82ZM148.8,58.46l-1.01-.67-1.12-.74c.34.7,1.4,1.65,1.53,1.61l.61-.2ZM161.46,58.85l-1.27-1.63-2.1,1.29c1.22.24,2.2.32,3.37.35ZM64.63,59.68l2.59-2.11-3.1,1.21c.15.39.29.66.5.9ZM135.42,58.64l-2.25-.49,1.86,1.3c-.22,0-.52-.08-.72-.21l-1.71-1.06-2.11-.63,1.76,1.09,3.85,2.11,1.34.81-.72-1.46c.14-.9-.5-1.27-1.31-1.45ZM139.73,58.53c-.83-.52-2.28-1.16-2.61-.6l2.61.6ZM164.6,58.65l-.54-.84-.74.99,1.28-.15ZM120.55,64.06l3.47-4.55-1.36-.86-6.83,3.33,4.72,2.08ZM59.55,63.64l4.35-3.38-.57-1.22c-4.28,1.74-8.29,3.85-12.21,6.36,2.93-.43,5.64-1.03,8.44-1.75ZM149.39,64.46l-2.63-2.03c-.3.15-.62.08-.76-.16l-.36-.61-1.69-1.12c-.3-.18-.63-.23-.99-.3l-4.98-.98c2.33,2.63,4.81,4.93,7.39,7.22l2.74,2.57c.25.85,1.29,1.27,2.15,1.64l2.1-1.9.87-.95-3.85-3.38ZM150.47,59.94c-.18-.19-.44-.43-.62-.52-.15-.08-.61.17-.65.3.23.41.79.52,1.27.21ZM33.65,61.57l.7-1.92c-.68.35-.93,1.1-.7,1.92ZM157.53,62.18c.16-.54.48-.83.92-1.17l.46-.36.49.8,1.39-1.57-4.1.11c-.83.02-1.58-.02-2.32.53l1.2,1.56,1.45.66.52-.56ZM39.62,64.1l1.97-2.38,1.55-1.64-.12-.1-3.35,2.87-.05,1.25ZM161.89,61.11l-.91.55c.26-.64.58-.99,1.16-1.52.1-.03,0-.16-.15-.21l-1.25,1.19-.5.82c-.06.1-.22.28-.2.37s.21.23.29.18l.26-.17c.54-.35,1.01-.67,1.3-1.21ZM139.05,62.29l-.73-.81c-.3-.53-.64-1.07-1.14-1.37l.78,1.76,1.09.43ZM29.86,63.01c.56-.89,1.06-1.66,1.49-2.76-.72.38-1.22.97-1.7,1.62l.21,1.14ZM149.87,60.43c.65.72,1.22,1.25,1.98,1.74.05-.95-1.25-2.09-1.98-1.74ZM79.18,63.79l2.33-.91,2.09-2.3-3.78.05c-4.01.26-7.92.89-11.9,1.87,2.84.89,5.65,1.24,8.52,1.27.94.01,1.85-.17,2.75.02ZM86.39,60.7l-1.82-.13-1.38,1.6,3.2-1.47ZM165.81,63.31l.75-2.35-1.4-.34-.74.65,1.39,2.04ZM65.62,62.25l-1.38-1.42-2.91,2.31,4.29-.89ZM48.45,147.61l1.23,1.47c.24.28.97.54,1.35.66,1.79-.11,5.72-.24,6.21.61.11.19,0,.66-.15.81l-1.13,1.07,9.53,4.37,3.09,1.33,1.36-.48c-.23-.67-.45-1.46-.46-2.17-.01-1.42,1.15-2.36,2.53-2.21,1.13.12,2.14.54,3.13,1.11l6.95,4,7.85,4.16,10.17-5.71.93-1.6.11-.19s-.3-.36-.91-.02c-.31.17-.64.33-.98.28-.17-.02-.44-.36-.42-.52.09-.54.43-.7.31-.75l-.23-.11-.83-.58c-.88-.61-1.31-1.57-1.32-2.63l-2.98-.12h-6.79s-7.83-.47-7.83-.47c-1.65-.26-3.15-.68-4.74-1.19-2.91-.23-5.78-.44-8.58-1.3-2.15-.66-3.9-2.01-5.64-3.37-1.31-1.03-2.36-2.08-3.37-3.45l-.91.64c-.15.1-.53.23-.67.14s-.27-.36-.39-.62l-1.83,1.33c-.3.22-.78.17-1.05-.02-.24-.17-.5-.7-.33-1.01l.79-1.5c-.29-.32-.24-.64.02-.94l1.67-1.96c.91-1.07,1.89-2.11,3.15-2.74l2.32-1.17.69-.05,1.09-.6c.17-.09.71-.04.76.14l.19.63c.2.14.49.32.6.48s-.01.63-.13.79l-2.27,3.07,2.08,1.8,6.54,2.26,9.71,3,1.11-.18,6.24-1.01,4.95-1.07,10.71-2.18,8.6-2.13c.37-.09.9-.38,1.22-.56l3.19-1.77,11.71-5.86,3.44-1.86c1.24-1.27,1.87-2.96,2.43-4.56l-1.13-.52c-.29.1-.59.15-.73.07s-.4-.47-.35-.62l.34-.99c-.03-.43.05-.75.19-1.13l.51-1.43c.2.04,0,0-.11-.02l-1.52,1.06-.17.15-.7.7-.18.28c-.04.06-.26.04-.25-.03l.04-.37c.57-1.23,1.5-2.07,2.63-2.85,2.62-1.44,5.83-1.8,8.61-.63.36.15.46.75.33.98-.41.71-1.26.35-2.36.99l.16,1.41,1.28.93c.34.24.55.28.79.57l.85,1.06c1.4-.51,2.7-1.22,3.83-2.29.08-.07.16-.26.09-.31l-.25-.2c-1.12-.86-1.82-2.06-2.26-3.42-.49-1.53-.79-3.08-.92-4.72l-.6-7.35c-.01-.15-.13-.33-.23-.35l-4.1-.83c-.89.13-1.83.49-2.68.81-1.06.41-2.48,1.4-2.06,1.74.19.16.65.44.92.5l3.25.78c.19-.03.39.05.13.16l-2-.28c-.85-.12-1.76-.33-2.47-.73-.45-.25-.44-.84-.14-1.2.91-1.06,2.28-1.57,3.63-1.99l.33-.1c.33-.1-3.85-1.19-4.17-2.63-.06-.26.09-.8.3-1.03l1.28-1.39c1.95-1.81,4.08-3.29,6.37-4.79-1.02-4.65-2.55-9.75-6.03-13.06-1.07-1.01-2.25-1.75-3.55-2.52-.19-.09-.28-.06-.1.09,2.25,2.27,4.71,6.35,3.74,9.31l-.42,1.27c-.75,1.9-2.06,3.61-3.81,4.71-3.7,2.32-8.26,2.47-12.21.73l-2.82-1.54c-.88-.48-1.68-.9-2.64-1.23-1.83-.63-3.33-1.8-4.89-2.91l-1.88-1.14c-1.3-.79-2.09-1.98-2.47-3.44-1.42-5.57,1.89-10.44,7.29-12.15l2.05-1.28c1.46-.71,3.02-.86,4.52-.16l.45-.42.15-.14s.14-.06.13-.02l-.09.24-.26.43,2.18,1.18,4.69,2.19c2.45,1.15,4.45,2.95,5.57,3.47,1.79.84,3.45,1.81,4.86,3.21,3.45,3.44,4.9,8.11,6.03,12.76l.18.05.24-.2,4.39-2.67-.02-3.86-1.59-2.08-2.67-3.23c-2.01-2.43-4.22-4.55-6.51-6.73-2.51-2.33-5.11-4.41-8-6.17l-6.27-1.8-.82.99s-.07-.25-.06-.21l.34-.39.13-.15c.06-.07.16-.33.07-.35l-.35-.08-2.25-.54-4.19-.93-3.28,2.22c-4.48,3.27-8.71,6.77-12.75,10.57-1.48,1.39-2.71,2.81-3.94,4.41-.46.6-.98,1.51-1.22,2.15-.02.12.28.4.4.47-.09.11-.36.3-.52.31s-.46-.32-.46-.49c0-.34.09-.81.26-1.09.89-1.45,1.84-2.73,3.03-3.99,4.4-4.67,9.26-8.81,14.41-12.64l3.07-2.14c-7.5-1.52-15.05-2.67-22.81-3.34-2.19,1.2-4.34,2.26-6.64,3.13l-.98,1.25.72.33.03.22-1.06-.28-3.05,3.81-1.29,1.79,1.58,1.85,1.68,1.94c.78.91,1.6,1.87,2.01,3.03.88,2.47.5,5.05-.64,7.39-1.25,2.57-2.93,4.72-4.88,6.82-2.59,2.78-5.73,4.96-9.16,6.58-1.47.69-2.92,1.01-4.48,1.34-4.06.85-8.27,1.48-10.69-2.38-.84-1.34-1.35-2.74-1.72-4.3-.93-3.82-.79-7.71.61-11.41,1.26-3.33,3.34-6.11,5.82-8.61,1.27-1.29,2.44-2.52,3.89-3.59s3.07-1.92,4.85-2.5c4.15-1.36,7.62.52,10.72,3.5.46-.51.89-1.11,1.24-1.76l2.77-3.66c.1.02-.22-.27-.32-.23l-2.53,1.01c-1,.4-1.97.71-3,.91-.15.03-.46-.17-.54-.3-.06-.11,0-.47.12-.55l2.14-1.58c-2.28-.22-4.39-.43-6.52-.93l-2.34-.79-6.83,1.59c-2.17,1.67-4.16,3.41-6.17,5.25l-1.71,1.57c-2.72,2.64-5.26,5.38-7.83,8.18-.06,2.32-.22,4.51-.69,6.75l-1.34,6.38,2.11.9c.32-1.41.6-2.58,1.13-3.77l.21-.11s.12.1.13.14l.06.35c0,.05-.11.04-.27.03l-.93,3.48c1.46.34,2.72.86,2.82-.2.08.12.17.53.11.71-.25.73-1.88.55-3.07.17-.9,5.01-1.63,9.96-2.03,15.08,1.81-1.56,3.6-3.01,5.56-4.32.72-.48,1.44-.87,2.26-1.12.78-.24,1.57.17,1.78.97.24.91.3,1.91.1,2.86l-1.09,5.28-1.23,4.66c1.91-1.36,4.01-2.85,4.34-5,.4,2.17-2.72,4.21-4.49,5.58l-3.27,11.31-2.43,9.71,2.6-2.06c.48-4.06,3.09-8.64,5.45-12.03,5.96-8.57,13.81-16.12,22.75-21.58,1.59-3.47,3.92-4.75,7.64-5.5,2.72-.46,5.41-.46,8.18-.11,3.32-.4,6.56-.28,9.84.38,1.78.33,3.42.79,5.13,1.41,1.28-.04,2.48.27,3.67.77l3.19,1.03c3.77,1.5,7.27,4.52,6.25,8.74l1.1,2.3c.92,2.53.08,5.01-1.99,6.68l-3.43,2.21c-1.48,3.78-3.82,6.24-7.87,7.19-1.79.43-3.58.27-5.42-.04-1.77.42-3.48.73-5.29.79-.6.07-1.16.11-1.71.02l5.36-1.08-2.57-.8-4.13.44c.37.28.61.59.52.94-.07.25-.43.58-.71.55l-3.63-.33c-1.89-.25-3.69-.62-5.48-1.27-2.21-.3-4.36-.83-6.32-1.86-1.57-.82-2.73-2.02-3.31-3.67-1.69-1-2.62-2.71-2.73-4.66-.04-1.63.3-3.17.88-4.73-.27-1.85.21-3.71,1.37-5.19.34-.32.57-.69.63-1.19-2.98,2.53-5.33,6.29-5.32,10.27,0,1.14.21,2.31.93,2.96.05.05-.27.21-.33.18-.24-.15-.61-.6-.74-.92-1.58-3.82.91-9.12,3.6-11.8l1.75-1.75c.28-.28.57-.51.57-.99-5.17,3.02-9.83,6.73-14.03,11.02-4.78,4.88-9.99,11.3-12.46,17.64-.47,1.21-.78,2.34-.9,3.61l1.58-1.3.07.08-1.71,1.83c-.21.77.04,1.79.34,2.46s.93.51,1.37.4l.32-.08s.06.14.02.17l-.23.12c-.24.13-.77.28-1.06.22-.86-.2-1.21-1.77-1.17-2.95l-2.84,2.49c1.35,2.37,2.69,4.54,4.29,6.7l6.29.7,9.07.79,2.19.32c-.61.1-1.11,0-1.7-.05l-11.55-.76-3.69-.29ZM154.34,66.82l-1.58-1.96-1.85-1.96-2.05-2.02-1.11,1.05,4.67,3.77,1.62,1.44.3-.32ZM31.78,65.64l1.05-2.2-.25-1.79-1.41,2.06c-.39.56.5,1.06-.12,1.65l.73.29ZM161.77,63.97l3.07-.15-1.28-1.91-2.23,1.69.45.37ZM170.18,62.32l-.46-.41c-.11-.1-.53.22-.48.36l.31.83.64-.78ZM38.96,62c-.63.73-1.05,1.38-1.44,2.21.79-.56,1.64-1.55,1.44-2.21ZM119.48,65.35l.6-.79-4.83-2.23-2.46,1.47,6.69,1.55ZM25.76,64.21l-.86-.6-1.45-1.08c.57,1.1,1.15,2.11,2.18,2.83l-.24-.63c-.05-.13.2-.34.38-.52ZM171.71,63.53l-.88-.72-.44.74,1.31-.02ZM167.88,64l.77-.24-.24-.73c-.48.19-.8.54-.53.97ZM154.33,65.09c.21-.19.39-.27.72-.38-.45-.48-.99-1.14-1.86-1.05.15.36.41.66.68.95l.46.48ZM147.08,70.97l-4.43-4.83-3.75-2.44c1.96,3.22,3.53,6.61,4.62,10.38,1.66-.25,3.12-.97,4.61-1.92l-1.04-1.19ZM172.53,64.54l-.59-.82-1.05.23.06,1.23,1.58-.65ZM186.46,64.71c.3-.62-1.08-.94-2-.94h-7.73c-.33,0-.76.04-.89.26l.57,1.17,4.4,3.8,3.96-2.71,1.68-1.57ZM35.99,67.59c-.4.2-.55.27-.71.42-.11.11-.04.46-.01.64l.19,1.26,2.95-4.27c.37-.54.72-.96.32-1.72l-2.14,1.97-.79,1.34c.08.15.21.38.2.37ZM161.79,65.16l-1.2-1.14c.11.6.53,1.07,1.2,1.14ZM164.04,65.63l1.19-1.46-3.22.09,1.15,1.18c.14.15.66.22.89.18ZM22.86,67.12c-.25-.39-.5-.64-.81-.9l-1.97-1.67.43,1.13,2.35,1.44ZM77.44,64.66c-1.37-.38-2.26.1-3.06,1.14l3.06-1.14ZM41.64,74.55c1.55,1.04,2.02,2.05,2.29,3.77l4.57-4.75c3.03-3.09,6.14-5.91,9.5-8.76l-8.52,1.67-5.41,5.49c.39.49.17,1.05-.11,1.16l-1.55.63-.78.78ZM121.88,65.59l-1.54-.88-.55.69,2.09.19ZM169.03,65.73l.02-.95-1.28,1.05,1.26-.1ZM27.37,66.94l.9-1.27-1-.57-.79,1.12.89.72ZM155.79,65.73l-1.24-.3.59.94.65-.64ZM162.11,67.87l-1.45-1.89c-1.1-.15-2.5-.88-2.09-.34l1.76,2.35.89.94.89-1.06ZM173.27,73.98l4.45-3.02-4.42-5.58-1.46.61-.66.83,2.09,7.17ZM178.59,70.38l1.44-.91-3.4-2.81c-.51-.4-.91-.75-1.57-1.06l1.37,1.86,2.17,2.91ZM23.5,68.85c-1.75-.87-3.15-1.85-4.72-2.94.13.42.52.58.83.82,1.2.93,2.43,1.79,3.89,2.11ZM31.36,66.77l-1.07-.32.59,1.52.48-1.2ZM157.28,67.11l.82,2.52c-.72-.61-.55-1.62-1.2-1.69l-.35-1.14.34-.12c.05-.02-.2-.23-.25-.19l-.85.68,1.34,1.74,1.87,2.71.19-.37.25-.1.62-.87c-.77-1.31-1.63-2.29-2.79-3.17ZM169.71,67.35c.11-.07.29-.31.32-.43.02-.11-.07-.39-.18-.39-.16,0-.5.05-.52.16l-.07.52c-.01.08.06.39.13.35l.33-.21ZM168.34,69.82l-.44-.84-1.3-2.14-1.7-.04,2.77,2.8,1.3,1.46-.63-1.25ZM168.57,67.82l.28-1.05-.97.08.69.98ZM39.59,66.83l-.17.19-1.89,2.41c2.02-.83,2.37-2.96,2.05-2.6ZM40.36,73.79l1.47-.39,1.65-1.7-.16-.52.47.23,4.33-4.57c-2.2.55-4.17.98-6.35,1.05l.96,1.98c-.79-.37-1.03-1.14-1.4-1.83-.92.97-1.76,1.94-2.41,3.07l-1.2,2.09,2.63.6ZM29.96,68.47l-.55-1.41-.5.98,1.04.43ZM169.9,76.65l1.14-.99c-1.4-2.26-2.99-4.52-4.91-6.42l-2.09-2.07-.51.55s.19.23.21.2l.16-.24.58,1.27,5.42,7.7ZM155.96,68.64c-.36-.61-.47-.75-.43-1.23l-.62.48c.26.33.69.71,1.05.75ZM17.21,68.16l-.93,1.82c1.49.89,2.97,1.5,4.56,2.03-1.76-.07-3.27-.69-4.87-1.47-.24.39-.22.82-.27,1.28l-.34,2.88c1.89.53,5.12.84,5.84-.7l1.2-2.55c-1.78-1.15-3.31-2.44-4.79-3.88l-.34.49-.06.11ZM171.44,73.73c.16.35.54.69.87,1-.1-.95-.3-1.78-.59-2.68l-1.42-4.51-1.21,1.29.47.92,1.88,3.98ZM157.89,73.12l-.87-1.71-1.1-1.26-1.84-1.6-3.32,2.58,3.76,3.42,1.39,1.3,1.98-2.73ZM163.91,70.27l-1.23-1.74-.85,1.05,3.16,3.46-1.08-2.78ZM32.52,70.31l.63-1c-.47.04-.76.04-1.18-.01-.1-.01-.3.34-.26.46l.81.55ZM27.1,69.75c-.34-.11-.57.08-.69.35-.07.17.17.45.4.54l.3-.89ZM77.11,84.78c.8-1.77,1.04-3.58.56-5.41-.58-2.18-1.68-4.05-3.15-5.85l-.54,1.15.69-.06c-.19.2-.57.46-.82.49-.18.02-.47-.47-.39-.66l.62-1.46c-1.26-1.23-2.72-2.28-4.42-2.81-2.23-.7-3.74-.51-5.91.37-2.76,1.12-5.13,2.85-7.22,4.92-3.23,3.21-4.88,7.43-4.67,11.99.07,1.55.04,3.03.39,4.54.41,1.76,1.33,3.28,2.8,4.32.64.45,1.28.88,2.14.91,2.01.08,3.96-.37,5.9-.95,2.44-.73,4.78-1.5,7.08-2.57.97-.45,1.82-1.03,2.5-1.85,1.78-2.16,3.23-4.47,4.41-7.08ZM36.29,72.25l1.11-1.35c.25-.3.48-.65.68-1.04-.93.41-1.57,1.03-2.15,1.81l.36.59ZM24.56,71.03c.13.05.37-.39.29-.51l-.36-.58-.47.88.54.21ZM115.29,70.53c-1.34-.74-3.1-.34-4.44.51,1.38.11,3.07-.22,4.44-.51ZM183.3,87.55l4.74,1.31c.45-7.61-2.04-13.44-7.35-18.81l-1.66.98c2.49,3.67,3.93,7.7,4.32,12.05.12,1.51.06,2.95-.06,4.46ZM149.52,71.24l-.93-.67c-.2.57-.18.72.24,1.12l.69-.45ZM29.13,72.63l.4-1.2c.03-.1.03-.35,0-.45-.02-.08-.32-.14-.38-.08l-1.23,1.1,1.21.63ZM161.62,74.45l-.38-1.44.51.02-1.17-2.04c-.5.39-.56.79-.4,1.25l-.39-.24c-.08-.05-.28.23-.22.3l.21.24.82.86,1.02,1.04ZM154.1,78.43l1.2-1.73-3.15-3.03-2.15-1.99-.75.49,3.94,5.03.91,1.22ZM175.55,80.62l2.29,5.67,4.46,1.01c.44-5.59-.96-11.09-4.15-15.7l-4.7,3.14.29,1.68,1.82,4.2ZM30.96,73.28l.68-1.22-.75-.3-.37,1.34.44.18ZM110.54,71.83c-1.03-.2-1.71.48-2.13,1.16l2.13-1.16ZM128.16,89.69c1.27-.86,1.78-2.34,1.93-3.79.4-3.88-2.53-7.3-5.45-9.66-2.04-1.95-5.68-3.81-8.37-3.9l-4.07-.14c-2.63.86-4.89,2.49-6.41,4.8s-2.1,5.41-.16,7.3c1.2,1.17,2.62,1.93,4.19,2.56,3.27,1.31,6.49,2.53,9.89,3.45,2.69.73,6.13.93,8.45-.63ZM25.65,72.86l-.66-.28-.55.97,1.21-.69ZM32.93,73.6l.53-.74-.78-.27-.46,1.06c.12.04.61.09.72-.05ZM148.48,87.51l.8-.38c.73-2.9,2.71-5.61,4.4-8.13l-5.16-6.39-1.53.8c-1.05.5-2.13.86-3.34,1.02.52,1.97.82,3.87,1.03,5.88l.82,1.48c1.05,1.91,2.12,3.69,2.99,5.72ZM104.67,76.39l2.86-3.67c-2.85,1.38-4.77,4.08-4.91,7.27.49-1.31,1.18-2.48,2.05-3.6ZM14.68,74.43l.19-1.58-.65,1.49.46.1ZM165.01,74.76l-1.23-1.28.66,1.28h.57ZM21.64,85.86l2.29-6.72c.62-1.82,1.22-3.54,2.09-5.37l-2.2,1.24c-.65.37-1.08.74-1.4,1.4-1.53,3.07-2.51,6.25-2.89,9.72l2.12-.27ZM158.62,78.54c1,.94,1.75,2.08,2.99,2.97l-3.37-7.73-1.9,2.53,2.29,2.22ZM163.32,80.67l-1.35-3.08-.87-1.54c-.44-.84-.9-1.61-1.66-2.23l1.22,2.68,1.87,4.47.79-.29ZM7.26,99.58l1.37-6.36,2.73-12.21,1.77-6.04-1.57-.77c-3.87,4.11-6.97,8.78-9.15,13.97-1.05,2.48-2.1,5.74-1.56,8.27.58,2.73,3.79,2.96,6.41,3.14ZM35.59,78.05l2.03-1.87c.61-.56,1.07-1.15,1.76-1.63l-2.15-.25-.71,1.45c-.05.1.05.48-.04.52l-.4.18-.48,1.6ZM32.29,74.75l-.51-.06c-.05,0-.12.18-.14.23l-.33,1.25.98-1.42ZM33.91,81.38c-.39.68-.87,1.26-.88,2.16l4.78-5.6,2.68-3.08c-.73-.33-1.55.45-2.24,1.11l-1.43,1.36c-.46.44-1.12.87-1.43,1.42l-1.49,2.63ZM166.24,75.84l-1.15-.94c.33.68.72,1.16.79,1.93l-1.11-1.57-.84-.48,1.39,3.53c.21.52.34.9.76,1.31l1.05-.58-.85-2.09-.06-1.12ZM32.42,81.1c.38-.53.55-1.35.78-1.97l1.47-4.12-1.1-.13-2.69,3.75-.41,3.23.69.98,1.26-1.74ZM35.51,87.88c2.65-3.22,5.19-6.1,7.91-9.02,0-1.75-.71-3.15-2.31-3.74l-3.58,3.99-4.87,5.74,2.85,3.03ZM17.13,80.31l1.93-1.96c.58-.75.9-1.64,1.39-2.46-1.8.33-3.51.25-5.29-.2l-.79,4.35c-.06.35-.15.61-.26.92l-1.46,4.09,1.04-4.62.83-4.91-.65-.23-2.1,6.71-2.54,9.74c-.69,2.63-1.21,5.17-1.63,7.86h2.75s1.07-4,1.07-4c1.7-5.21,3.91-10.11,6.45-15.03l-3.17,2.39-.27-1.71.12.12.31,1.03,2.28-2.09ZM25.68,81.42c.78-1.14,1.26-2.34,1.71-3.58l-.71-1.73-.14-.6-1.53,3.72c-.8,1.94-1.41,3.87-1.94,6.01l2.61-3.81ZM76.95,87.86l-1.34,2.26c1.82-1.82,3.21-3.94,4.23-6.27.85-1.93.93-4.07.06-6.02-.39-.87-1.12-1.59-1.73-2.36l.58,2.61c.22.97.47,1.93.53,2.93.1,1.77-.44,3.5-1.3,5.04l-1.03,1.81ZM173.27,77.93c-.3-.69-.46-1.3-.92-1.85.18.86.52,1.55.88,2.32.04-.02.2-.11.18-.17l-.14-.31ZM173.04,81.5l-.5-1.48-1.24-3.61-.95.88,2.7,4.21ZM160.3,81.85l-.93-1.03.18.77-1.5-1.9-2.28-2.57-1.28,1.77,3,4.32,2.04-.99.76-.38ZM171.8,84.91l2.02.44c-1.4-2.6-3.01-4.72-4.96-6.77l-.59.62,1.24,2.29c.66,1.21,1.34,2.36,2.29,3.42ZM33.62,81.3c.35-.65.59-1.24.82-2.01-.45.56-.81,1.23-.82,2.01ZM16.05,86.55l.7-.28c.55-1.6,1.28-2.97,2.06-4.44l.93-2.43-.77,1.25-1.23,2.37-1.69,3.52ZM30.1,81.11l.22-1.55-.69.84.47.71ZM150.05,86.72l6.8-3.26-2.79-3.93-3.3,5.37-.71,1.82ZM167.93,81.71l-.4-1.83-.61.9,1.02.92ZM41.51,92.26l1.38-6.61c.35-1.86.61-3.64.57-5.64-2.61,2.76-4.96,5.55-7.31,8.47,1.74,1.49,3.44,2.75,5.36,3.78ZM130.93,81.37l-.75-1.07c.18.69.39,1.15.69,1.74.1-.15.15-.54.06-.68ZM175.84,85.87l.87.14-2.13-5.25.36,2.55c.13.88.54,1.74.89,2.56ZM163.66,82.4l-.23-1.32-.8.32,1.03,1ZM165.73,83.29l.13-.7-.77-1.47c-.05-.1-.47-.04-.5.06-.03.08-.04.31,0,.42l1.18,3.21-.04-1.53ZM24.46,94.81l2.4-3.63,1.82-2.76,1.15-5.78-.83-1.34-.73,1.57-1.39,3.17-1.79,6.06-.65,2.71ZM146.91,88.39l1.2-.67c-.98-2.17-2.03-4.07-3.27-6.09l.05,3.91,2.03,2.85ZM168.29,83.92c.15-.45-.04-.73-.33-.99l-.95-.84.31.87c.16.44.47.74.98.96ZM24.63,84.79c1.24-.4,1.66-1.53,1.81-2.54l-1.81,2.54ZM31.77,83.73l.38-1.51-.74.96.36.55ZM164.3,95.02l.58.65c.13.14.56.27.78.26-.54-3.79-1.5-7.29-2.64-10.84-.16-.5-.27-.84-.62-1.19l-1.7-1.68.05.42-1.01-.13-2.08.96,4.24,6.96,2.4,4.59ZM164.53,84.53l-.51-1.62c-.32.64-.1,1.31.51,1.62ZM132.21,85.2c.04-.76-.1-1.39-.42-1.99-.02.75.1,1.39.42,1.99ZM31.48,85.02l-1.14-1.6-.54,3.51,1.67-1.91ZM163.98,95.75l-1.73-3.4-5.22-8.61-6.97,3.36c-.35.98-.22,1.98.43,2.81,2.92,4.1,8.45,5.6,13.48,5.84ZM168.08,88.32c-.36-1.54-.73-2.95-1.47-4.28.06,1.06.46,1.93.84,2.88.18.47.02,1.1.63,1.39ZM55.17,98.1c-.44-.22-.78-.34-1.1-.66-2.55-2.55-3.34-5.92-3.44-9.51l-.1-3.63c-1.08,3.85-.59,9.3,1.55,12.72,1.44,2.3,3.75,2.93,6.49,2.44-1.26-.16-2.24-.77-3.4-1.36ZM168.6,84.65c-.02-.17-.35-.37-.6-.35.21.59.39.91.73,1.39l-.13-1.05ZM172.8,87.98l-2.3-2.92-1.25-.29c.04.5-.03,1.06.14,1.43l1.97,4.52c.64-.87,1.09-1.79,1.46-2.73ZM131.55,85.33c-.16,1.06-.32,1.9-.64,2.84,1.01-1.01,1.23-1.5.64-2.84ZM173.69,85.73l-1.54-.32,1.13,1.53.41-1.2ZM21.76,89.52c1.03-1.15,1.88-2.31,2.72-3.7-.48,0-.86.31-1.08.72-.55,1.01-1.2,1.87-1.64,2.97ZM32.17,92.16l2.77-3.55-2.72-2.72-.19,3.73.13,2.54ZM165.77,88.21c-.09,1.1.34,1.95.15,3.02l-.44-3.07c-.05-.32.16-.75-.14-1.08l-1.06-1.16,1.64,6.85.45,2.79,1.04-.78c.17-.6.17-1.3-.03-1.88l-1.62-4.68ZM176.93,86.64l-.81-.18,1.86,3.55-1.06-3.38ZM21.47,99.49c.49-.4.84-.92,1.06-1.56l1.4-5.94,1.38-5.45-4.08,5.29c-.35,1.77-.56,3.52-.62,5.31l.86,2.34ZM20.63,89.31l.71-2.33-1.89.23.05,3.98,1.13-1.88ZM182.17,87.95l-4.13-1.06,2.29,7.61c.95-2.12,1.61-4.31,1.83-6.55ZM146.28,88.73l-1.34-1.74-.02,2.47,1.36-.73ZM17.24,94.62l.54-7.2c-.1-.09-.31.04-.38.23-.91,2.71-1.19,5.46-1.09,8.3l.93-1.33ZM31.66,92.85l.09-2.99-.03-2.49c-1.16,3.21-2.3,6.33-3.08,9.64l3.02-4.16ZM164.26,97.18c.16-.15.17-.46.02-.61-2.82-.17-5.49-.63-8.1-1.62-2.64-1-4.82-2.6-6.43-4.91-.51-.73-.6-1.55-.54-2.48l-.6.35c.75,1.86,1.39,3.58,1.87,5.51l3.69,7.95c3.54-.58,7.53-1.67,10.1-4.17ZM28.91,91.8c.32-.55.35-1.15.53-1.78l.64-2.24c-.66.41-.75,1.12-.86,1.83l-.32,2.19ZM11.37,99.61l2.62-.06,1.18-1.75.26-4.65c.1-1.76.43-3.36.83-5.13-.5.35-.71,1.3-.9,1.09l-.31-.35-1.95,4.94c-.77,1.95-1.25,3.85-1.73,5.92ZM113.28,90.27l4.32.51-7.82-2.8,1.91,1.6,1.59.68ZM149.79,92.52l-1.15-3.41-.41-1.07-1.07.63,2.63,3.85ZM182.75,100.47l4.36-6.68c.41-1.39.67-2.7.84-4.19l-4.77-1.37c-.35,2.57-1.11,4.81-2.1,7.1-.22.41-.22.84-.06,1.26l.72,1.82c.29.74.43,1.58,1.01,2.06ZM177.01,101.68l-.68-4.75-.96-5.53-2.06-2.79-1.58,2.76,1.8,3.82,3.48,6.48ZM152.62,101.53l-1.26-3.71-1.17-3.17-3.74-5.64-1.54.88-.1,11.97,5.96-.18,1.84-.15ZM34.64,114.5l.64-1.9c2.31-6.45,4.36-12.91,6.08-19.63-2.13-1.05-3.95-2.36-5.78-3.81l-3.3,4.32.38,7.34,1.29,12.76c.05.49.14.8.7.93ZM168.65,91.03c-.05-.53-.47-1-.91-1.21l-.38-.62c-.2.5.23.85.37,1.25.39,1.1.61,2.17,1.18,3.22l-.27-2.64ZM118.94,92l-4.06-.35c3.59,2.52,8.43,3.02,12.47,1.06,1.42-.69,2.55-1.64,3.37-2.97l-2.19,1.24c-1.58,1.04-3.24,1.62-5.23,1.43l-4.36-.41ZM170.71,91.14l-.71-1.43c-.19.63.02,1.37.57,1.85.1,0,.19-.31.14-.42ZM188.8,100.23l-2.72,3.36-.96,1.11c-.07.08-.16.28-.15.38s.24.26.35.27l1.57.11c2.5.36,4.9.88,7.33,1.55l4.53,1.61c2.77-4.47,3.12-9.12-.44-13.16-1.2-1.36-2.63-2.37-4.21-3.26l-5.3-2.33-.36,2.37c.58-.38,1.05-.74,1.66-.62s1.22.53,1.51,1.03c-.98-.53-1.89-.62-2.6.16-.37.41-.89.96-1.12,1.47l-1.77,3.93-1.08,2.19,2.62-1.62c.36-.22,1.02-.21,1.28.17.22.31.15.95-.13,1.29ZM25.08,102.41c.45-.41.71-1.14.9-1.72l1.08-3.24.67-2.94.59-4.52c-1.63,2.23-2.97,4.39-4.32,6.69l-.26,2.36c-.08.73-.07,1.52.11,2.22.2.77.04,1.45-.1,2.33l1.32-1.19ZM144.11,101.85l.05-7.17.04-4.37-4.63,2.88,1.42,8.83,3.12-.16ZM18.31,93.13c.43-.75.21-1.5,0-2.2v2.2ZM179.43,95.74l-1.63-3.53c-.06.36,0,.69.15.94l1.48,2.59ZM175.15,103.15l-1.56-5.51-1.79-2.89-1.38-1.8-.45.44c.07,1.37.29,2.66.62,4l.42,1.73c1.5,1.21,2.79,2.54,4.13,4.02ZM36.36,115.25c1.84-2.07,3.61-3.9,5.62-5.68.46-5.2,1.1-10.32,1.98-15.47l-2.12-.86c-1.36,5.51-2.9,10.79-4.66,16.1l-1.82,5.55.99.36ZM136.25,102.68l4.12-.61-1.33-8.58-5.69,4.21c-.71.52-1.21,1.17-1.78,1.85-.09.23-.22.61-.16.78.3.93,3.33,1.92,4.85,2.35ZM178.07,95.63c.01.75.29,1.21-.1,1.82-.32-.92-.42-1.73-.45-2.68-.09-.19-.34-.53-.49-.68l.92,5.61,1.12-2.44-.99-1.62ZM28.41,105.26c-.09,1.58.21,3.05.32,4.63,1.32,1.45,2.67,2.78,4.53,3.85-.84-6.49-1.45-12.92-1.53-19.48l-3.32,4.86-.09,2.76.91-.08c.68.64-.73,1.89-.82,3.46ZM168.82,97.7l-.65-2.46-.05,2.19.7.27ZM166.78,96.84l.76.24-.02-1.73-1.07.92.34.57ZM62.06,98.49l1.29-.32c1.56-.58,3.01-1.2,4.47-2.16-2.63.86-5.18,1.73-8.02,2.3.7.16,1.48.37,2.25.18ZM155.46,104.35l11.51.09-.37-2.71-.63-4.26-1.01-.64c-.14.28-.3.57-.52.79-2.48,2.44-6.76,3.39-10.18,4.01l1.19,2.73ZM183.73,101.53c.49-.29.84-.72.97-1.24l1.26-3.02-2.75,4.06c-.02.07.07.48.16.43l.38-.22ZM19.63,97.6c.02-.17-.28-.17-.29,0l-.36,2.49.2-.04.44-2.44ZM167.45,98.13l-.68-.3.67,3.79v-3.49ZM180.14,102.81l.65.32c.44-.32.64-.81.48-1.35l-.3-1.01-1.27-2.59-1.47,3.35.24,2s.28,0,.3-.09l.11-.31c.18-.5.81-.53,1.26-.32ZM16.57,99.21c.03-.12.02-.44-.05-.53-.06-.07-.22-.1-.42-.14l.02,1.02c0,.08.34.06.36-.01l.09-.34ZM78.54,101.56c2.58-1.29,5.21-2.19,8.07-2.97-3.61-.05-8.83.65-10.57,4.22l2.49-1.25ZM100.71,99.33c-2.44-.61-4.91-.82-7.48-.72l1.75.85,5.73-.13ZM168.88,98.9l-.67-.38-.02,3.17.7-2.79ZM22.01,100.51l.34-1.49-.67.99.33.5ZM20.8,100.32l-.48-.93-.09,1.51.57-.58ZM184.39,103.89l1.77-1.92,1.76-2.28-3.16,1.86c-.42.25-.62.84-.88,1.29l.51,1.03ZM9.18,107.19c.27-1.03.2-2.09.37-3.07l.76-4.21h-2.82s-1.16,8.12-1.16,8.12c-.19,2.21-.35,4.28-.21,6.61l2.11-3.77.96-3.68ZM13.72,99.87h-2.4s-.83,5.33-.83,5.33l3.23-5.33ZM153.5,101.49c-.06-.6-.36-1.08-.64-1.48.11.6.12,1.2.64,1.48ZM15.08,103.56l-.08-3.54c-1.76,2.63-3.14,5.2-4.37,8.08l4.46-4.54ZM17.72,101.42c-.04-.32-.15-.77-.31-1.19l-.54,2.13.84-.93ZM170.56,104.54l-1.12-4.27-1.07,4.22,2.19.05ZM27.44,101.89c.04-.37.02-.79,0-1.13l-.75,1.37c.24.05.74-.07.76-.24ZM175.12,104.68l-3.79-3.96.76,3.85,3.03.11ZM106.87,101.13c-.22-.14-.75-.16-1.04-.11l2.24.88-1.2-.77ZM176.5,102.96l-1.09-1.95.58,3.13.51-1.18ZM80.96,102.53l1.58-.88c-2.2.35-4.16,1.28-5.63,2.9l4.04-2.02ZM154.81,104.3l-1.02-2.42c-.06-.14-.3-.24-.46-.21l.63,2.59.85.03ZM153.32,104.27l-.62-2.52-1.67.12-6.19.35v1.73s8.49.32,8.49.32ZM20.68,104.4l.26,1.06.74-3.55-1.48.29.03,1.7c.14.12.42.36.46.51ZM85.48,102.03c-1.52.47-3.03,1.11-4.17,2.16l4.17-2.16ZM16.56,107.72l1.51-3.93-.23-1.7-1.11.93c-.61,1.72-.56,2.93-.17,4.69ZM112.69,108.42l1.39,1.95-.26-2.73c-.06-.67-.74-1.22-1.09-1.75-.77-1.19-1.85-1.91-3.17-2.32-2.09-.65-4.11-1.39-6.4-1.43.89.73,1.92,1.05,2.93,1.59l2.66,1.41c.46.24.78.29.99.87l2.11.71c.77.26,1.12.98.83,1.71ZM144.12,103.88v-1.67s-3.06.23-3.06.23l.11,1.16,2.95.28ZM26.84,107.91l.62-2.45-.03-3.13-1.06.29-1.46,2.84,1.93,2.45ZM140.46,103.53l-.05-1.04-2.97.46,3.02.58ZM115.77,105.22c-.79-1.11-2.03-1.73-3.32-2.26l1.9,2.25,3.18,3.58c.02-2.44-1.25-2.87-1.76-3.58ZM95.62,105.23l4.95-.61-1.07-1.08c-3.56-.31-7.1-.15-10.59.67-.97.23-1.87.46-2.71.92,2.42-.4,4.72-.43,7.08.09.77.17,1.51.11,2.34,0ZM102.84,105.49h2.23c-.92-1.27-2.25-1.96-3.83-2.04l.81,1.19.78.85ZM22.94,104.25l-.48-.78-.4,2.07.88-1.29ZM181.6,103.56l-.65,1.07-.6-.48.1-.38c-.5-.24-.98-.14-1.48.16l-.38.22c-.09.05,0,.4.06.49l.61.81c.36.27.51.44.75.95l1.15-1.48c.13-.17.48-.33.53-.51.06-.21,0-.59-.1-.85ZM19.44,105.88c.09-.62.09-1.29-.24-1.88-.09.68.06,1.25.24,1.88ZM144.65,119.24l-.53-14.75-2.9-.27.76,8.4c.15,1.64.53,3.14,1.16,4.63.38.77.83,1.5,1.52,2ZM47.07,106.34l-4.82,3.85-.26,2.54-.12,1.33-.11,1.33-.46,8.02,5.8-4.02,2.02-1.39,1.75-6.88.66-4.29c.11-.71.02-1.6-.36-2.17-.6-.92-2.91.78-4.01,1.61l.1.09c.71-.34,1.26-1.04,2.14-1.2l-4.62,3.26c.71-.78,1.56-1.33,2.39-1.97l-.11-.12ZM12.85,116.56c.25-.23.35-.52.43-.88l1.5-6.58c.35-1.55.5-3.05.33-4.62-1.8,1.78-3.27,3.51-4.72,5.44.06,2.79.44,5.48,1.18,8.16l1.28-1.52ZM146.42,128.45l.92,4.44,2.73-1.84,1.71-1.23c3.27-8.17,3.69-16.28,1.68-24.92l-8.63-.36.07,5.55.42,9.71.91.55,4.13-1.42c.89-.31,2.45-.34,2.91.33,1.34,1.9-4.76,7.41-6.85,9.18ZM159.99,121.96c-.73-3.63-1.51-7.01-2.57-10.44l-2.33-6.55-.94-.02c.45,2.68.84,5.27.99,8.04.3,5.68-.67,11.22-2.83,16.51l3.06-2.3c1.88-1.41,3.3-3.2,4.61-5.24ZM76.55,107.21c.85-.54,1.37-1.4,1.95-2.2l-2.28,1.7c-.44.32-.7.84-.99,1.34l1.32-.83ZM166.91,105.26l-3.13-.07-8.1-.2c2.14,5.43,3.56,10.84,4.68,16.55,1.21-1.75,2.04-3.45,2.85-5.29,1.6-3.55,2.86-7.11,3.69-10.99ZM23.71,105.86c.05-.09.12-.31.06-.37l-.36-.31-.2,1.6.49-.93ZM171.83,111c-.28-2.05-.51-3.83-1.09-5.67h-2.35s-.07,1.51-.07,1.51l.92,7.61,2.58-3.45ZM175.43,105.41l-3.24-.05.74,4.14,2.5-4.09ZM18.24,109.92l.9-1.52-.69-2.68c-.61,1.54-1.02,3-1.3,4.58-.07.42-.05.79.1,1.3l.99-1.68ZM181.67,107.03c.15-.24.18-.86.2-1.18-.05-.06-.42-.14-.49-.05l-.31.38-.75,1.01.58,1.07.76-1.22ZM176.74,108.7l.78-1.01-1.33-1.65-.29,1.11-.61,3.77,1.45-2.22ZM188.14,118.72c-.33-2.48-.74-4.72-1.58-6.94l-1.26-3.34-1.07-2.32c-.06-.1-.31.19-.28.33.81,3.71,1.37,7.44,1.19,11.23l-.15,3.09,3.14-2.05ZM196.07,112.08l2.19-2.7c-2.3-1.05-4.63-1.67-7.07-2.23l-5.7-.99,1.82,4.53c.96,2.4,1.44,4.87,1.81,7.36,2.58-1.78,4.82-3.71,6.95-5.96ZM21.49,111.44l.89-2.92.1-2.21-.75.93-.39,3.13c-.04.33,0,.69.16,1.07ZM25.59,116.92c.25-2.8.51-5.37,1.01-7.98l-2.06-2.47-1.67,4.27c.1,1.1-.2,2.34.13,3.39.44,1.18,1.63,2.03,2.59,2.8ZM110.19,108.17l-.44-.81-2.34-.55.67,1.9,2.11-.54ZM83.11,109.44l6.74-2.45c-2.88.24-6.56,1.2-8.65,3.07l1.9-.62ZM80.84,107.61v-.21c-.87.51-1.51,1.01-1.99,1.85.81-.45,1.3-.97,1.99-1.64ZM161.03,123.04l6.53-6.64,1.01-1.16-.96-7.75-2,5.61-2.21,4.9-2.37,5.03ZM173.74,113.23l.83-1.17.64-4.44-1.97,3.11.5,2.49ZM105.65,108.79l-.03-1.03-.78.61.8.43ZM92,109.45l2.89-.12c.84-.03,1.67-.67,2.42-.97l-.85.05c-1.74.1-3.25-.01-4.46,1.04ZM174.75,118.37l3.18-5.71.08-1.1.47-2.1c.09-.4-.1-.76-.5-.97l-2.36,3.57c-.26.39-.7.9-.77,1.36l-.44,2.7c-.11.68.25,1.5.33,2.25ZM101.67,108.84c-.4-.14-.58-.16-.75-.15l-.87.58,1.62-.43ZM114.8,113.62l.66-.47c.02-1.52-.13-3.01-.84-4.42l-.04,2.81.22,2.07ZM109.45,111.03l1.2-1.21-.04-.61-2.16.51c-.13.13-.09.69.1.8l.9.52ZM182.67,111.78l-.26-2.38-.48.71.74,1.67ZM29.08,118.2l-1.2-7.83-.77-.78c-.52,2.64-.73,5.15-.85,7.74.93.46,1.76.73,2.81.87ZM87.85,111.66c2.23-.46,4.2-1.08,6.32-1.96l-3.1.28-3.21,1.69ZM113.34,114.08l.31-1.34c-.23-1.16-.66-2.15-1.35-3.12-.21.17-.59.56-.59.82l-.14,2.08,1.77,1.56ZM196.52,116.92c1.56-1.2,4.89-3.77,4.27-5.39-.31-.81-1.05-1.32-1.81-1.7-1.36,1.87-2.81,3.49-4.51,5.04l-5.22,4.16.18,2.68c2.54-1.47,4.82-3.05,7.08-4.79ZM15.52,113.83l-.25-3.78-1.02,5.04,1.28-1.25ZM19.74,116.66l.07-3.3-.22-3.11-2.09,2.97,1.79,6.69c.33-1.03.41-2.07.45-3.25ZM37.15,126.54l3.85-2.9.6-9.25.12-1.35.13-2.44-4.78,4.97c.11.22.16.54.06.63s-.33.1-.6.05l-1.83,2.15c.18,1.27.47,2.39.88,3.56l1.58,4.59ZM115.21,119.8l2.13-1.48c2.17-1.94,2.2-4.39.8-7l-.92,1.8-1.95,5.15c.05.48.11,1.02-.06,1.53ZM8.79,121.5l1.99-2.5c-.8-2.52-1.18-4.97-1.5-7.48-.9,3.38-1.13,6.63-1.08,9.92.06.1.19.33.26.29s.27-.17.33-.24ZM33.71,117.05l-.35-2.27c-1.61-.93-2.97-1.98-4.39-3.3l.68,4.24.44,2.51c1.27-.09,2.48-.55,3.61-1.17ZM103.5,112.8c.33-.23.7-.75.97-1.21-.31-.07-.76-.03-1.02.14l-1.46.96,1.52.1ZM106.62,113.1l.55-1.22-1.27-.23-.91,1.23,1.63.21ZM183.97,114.68c.13-1.06.01-2.07-.28-3.04l.28,3.04ZM183.32,121.85l-.11-1.52-.17-2.13-1.34-3.84-1.17-2.23-1.42,1.99-.81,7.3.02,3.46,5.01-3.03ZM169.76,119.41l2.67-3.98-.34-3.13-2.67,3.27.34,3.84ZM81.88,117.68l4.91-2.7,4.39-2.47-3.84.85-2.86,1.24c-1.46.63-2.72,1.51-3.81,2.67l1.21.4ZM89.85,117.41l4.39-2.19,4.56-2.47c-2.08.43-3.87,1.22-5.79,1.96-2.4,1.01-4.67,2.12-6.81,3.54l1.25-.06c.86-.04,1.61-.36,2.4-.79ZM109.7,114.21l.25-.91-.51-.56-.69.52c-.21.16-.33.54-.32.84l1.27.11ZM77.57,113.71l-.57-.3c-.12-.07-.41.26-.39.41l.49.71.47-.81ZM111.73,114.93c.12.05.47-.06.55-.11l-1.1-1-.39.68.94.44ZM73.27,120.72l.28-1.59c-.65-1.45-.83-2.96-1.1-4.67-.75,2.13-.75,4.69.82,6.26ZM7.17,120.17l.36-5.58-1.18,2.63c.19,1.03.41,1.99.82,2.95ZM13.64,118.1l1.93-3.48-1.61,1.64c-.17.53-.27,1.19-.33,1.84ZM79.63,116.58l2.28-1.91-1.65.42-.92.7.28.8ZM23.89,127.56l-.94-3.98-.31-1.37-.42-2.73-.51-4.37c-.58,1.13-.56,2.23-.59,3.42l-.12,5.32.74,1.22,1.74,2.88.42-.39ZM104.67,117.21l1.44-.29.83-1.63c-.54-.2-.83.05-1.2.35l-.92.76-1.29,1.08,1.14-.27ZM35.69,115.96l-.59-.29-.53,1.73,1.11-1.44ZM25.51,125.47l.05-7.43-2.39-1.86.95,4.47c.36,1.69.78,3.32,1.4,4.82ZM175.65,126.33c.13,0,.44-.17.47-.31l.66-2.94c.49-2.32.93-4.54,1.03-6.96l-2.78,4.71.37,3.45.25,2.06ZM17.65,131.24l.3-1.21c-1.54-4.36-2.22-8.87-2.31-13.63l-2.4,4.19c.05.79.12,1.57-.02,2.42,1.28,2.85,2.69,5.58,4.43,8.23ZM161.75,131.65l2.39-3.52,4.92-7.67-.35-4.05-4.04,4.18-3.77,3.69.84,7.36ZM93.53,120.65l1.31-.6,2.22-1.03,1.13-.43,2.64-1.9c-1.96.52-3.71,1.27-5.48,2.17l-1.29.65-.57.26-4.29,2.47c.7.13,1.3,0,1.87-.29l2.46-1.28ZM108.31,119.24c1.16-.63,2.12-1.35,3.07-2.17l-.16-.41-5.22,2.54c-1.03,1.2-2.3,1.9-3.53,2.84,2.08-.73,3.89-1.73,5.84-2.79ZM170.17,126.46l2.75-4.95-.36-4.45-2.69,3.97.3,5.42ZM134.29,117.68l1.47-.45-1.98.23c.09.13.36.26.51.22ZM30.68,121.68l2.34-2.42.65-1.85-3.48,1.46.49,2.8ZM12.26,120.27l.57-2.44-.98,1.18.42,1.26ZM7.82,126.5l-.58-5.68-1.07-2.85c-.63,2.89-.94,5.83-.85,8.84.02.73.11,1.37.42,2.11.9-.77,1.51-1.56,2.08-2.42ZM76.27,121.32l.03-1.95-1.16-1.42-.48,1.2,1.61,2.18ZM18.84,125.52c.14-.54.03-1.02-.13-1.51l-1.29-4-.55-1.76.33,3.78c.15,1.75.64,3.39,1.25,4.97l.39-1.47ZM29.91,122.38l-.66-3.47c-1.07.02-2.01-.17-3.03-.58l.09,7.3,3.61-3.25ZM189.87,127.15l4.73-6.24c.6-.79,1.13-1.58,1.52-2.5l-6.67,4.33-.3,4.24c.16.08.5.17.72.17ZM78.96,119.81c-.17-.33-.22-.58-.2-1.1l-1.14-.15c.33.57.59.86.98,1.2l.2.18s.14-.11.15-.13ZM40.89,131.65l-2.41-1.61c1.33,3.38,2.86,6.44,4.76,9.59.79-3.94,1.7-7.57,2.81-11.3l2.9-9.73-7.65,5.46c-.13,2.34-.13,4.59.06,6.86.28.09.57.26.58.42.01.14-.2.43-.33.48l-.46.19c-.08.03-.21-.27-.26-.37ZM33.58,124.61l2.84,2.41-2.26-7.99-1.99,5.02c.46.07,1.01.21,1.41.55ZM82.51,120.55l.62-1.27-1.2.65.58.62ZM146.27,127.64c1.87-1.5,3.3-2.94,4.76-4.53.77-.98,2.23-2.82,1.82-3.45-.07-.11-.37-.29-.51-.28l-1.57.09c-1.29.31-2.48.73-3.66,1.24.64.25,1.14.42,1.44.92l-2.1-.69-.98.46.8,6.25ZM87.64,121.98l3.4-2.24-.91.28-3.95,1.59c.55.2,1,.32,1.46.38ZM185.59,123.9l2.78-1.56-.14-2.63-3.03,2.01.38,2.18ZM24.68,126.55l-1-3.07-.9-3.55c0,1.29.34,2.46.65,3.67l.91,3.45.31-.08c.08-.02.07-.33.03-.43ZM8.34,122.82l.36,2.49,2.86-3.98-.44-1.24-1.75,1.9c-.11.12-.05.48,0,.6l-1.04.23ZM105.85,122.67c1.17-.72,2.27-1.36,3.28-2.24l-7.52,3.74c1.55-.16,2.87-.77,4.24-1.5ZM12.29,137.72l-1.63-3.51-.35-1.45c-.87-1.61-1.55-3.25-2.09-5.03l-1.78,1.96c-.22.24-.83.26-1.13.14-1.63-.66-.78-6.76-.54-9.18l-1.23,3.37c-1.54,4.54-2.46,9.19-2.45,14,0,2.59.69,7.12,3.19,6.1,1.06-.43,2.01-1.04,2.88-1.81l5.13-4.59ZM31.5,123.16l.91-2.39-1.36,1.36.45,1.03ZM78.2,122.23c-.06-.21,0-.56.06-.87-.14-.18-.43-.42-.73-.6.12.85.46,1.42.87,2.11l1.25.23c-.28-.38-1.27-.29-1.44-.87ZM135.19,121.69l-.73-.74-.16,1.04.89-.3ZM135.1,128.33c-.04,3.27-1.33,7-3.88,8.84.48.21.86-.13.93-.47.2.31.45.33.78.21.6-.23,1.59-.04,2.11-.41l2.33-1.66,8.32-6.69-.85-6.53-3.67,1.56c.72.9,1.27,1.78,1.61,2.8l-.52,1c-.39.35-1.09.15-1.44-.15l-1.56-1.36-.94-.76c-.38.31-.86.54-1.28.67l-1.94,2.96ZM103.27,127.89c2.04.21,3.91-.32,5.65-1.26s3.03-2.6,3.83-4.48l-1.25.55c-1,.92-1.89,1.81-3.03,2.53-1.67,1.06-3.41,1.86-5.2,2.66ZM166.85,130.45l1.67-.8.91-1.76-.3-5.69-2.1,3.18-3.73,5.81,3.55-.73ZM86.7,123.09l-1.86-.45c.46.64,1.18.76,1.86.45ZM97.74,123.43c.38-.09.85-.44,1.16-.71l-2.08.6c-.5.14-.91.31-1.34.62l2.26-.51ZM177.91,124.97l.05-2.02-.65,2.42c.13,0,.6-.23.6-.4ZM179.86,129.95l.72,1.86,2.19-5.48-3.71,1.66c-.1-.07-.27-.21-.32-.3s.19-.28.26-.36l.77-.93.82-1.03.04.15-.63,1.13,2.98-1.39.36-2.36-2.17,1.28-2.85,1.65-.27,4.27,1.01-1.72c.42.57,0,.91-.17,1.32l-.76,1.7c-.18.4-.22.94-.25,1.44l2.18-1.24c.17-.69-.36-1.17-.2-1.67ZM10.18,130.21c.3-2.44.78-4.62,1.36-7.05l-2.58,3.55,1.22,3.5ZM27.96,132.11l1.44-3.55,1.04-3.06-.43-2.37-3.66,3.26.25,2.38c.12,1.18.72,2.27,1.36,3.34ZM79.51,125.91l-2.33-2.12-1.83-.53c.46.72,1.1,1.21,1.81,1.7l2.36.96ZM173.59,126.94l.75-1.44-.52-2.31-.44,2.37-.47,2.14c.44-.11.5-.4.68-.76ZM186.24,132.9c.81-1.73,1.47-3.42,1.77-5.36l-1.35.49c.41-.41.82-.6,1.38-.8l.3-3.92-2.7,1.54c.21,2.5,0,4.81-.28,7.19l.44-.31.44,1.16ZM15.28,133.63l2.21-.66c-2.09-3.01-3.72-6.1-5.23-9.46-.81,2.84-1.46,5.64-1.2,8.55.1,1.15,2.21,2.16,4.22,1.57ZM150.6,133.65l2.11-.42,2.3-.39,3.12-6.01.54-.95-.68.22c.35-.35.83-.61,1.03-1.01l.55-1.14-2,2.2-1.28,1.25-1.16,1.12-2.76,2.08-.23.6-.33-.27c-.06-.05-.11.31-.15.39l-1.06,2.33ZM99.07,127.11c2.42.94,2.94.32,4.95-.53,1.61-.68,3.11-1.45,4.51-2.54l-6.7,2.37v.42s-1.41,0-1.41,0c-.41,0-.91.1-1.36.27ZM40.81,130.57l.02-1.45.14-4.83-3.64,2.86.44,1.14,3.04,2.27ZM88.47,126.99l-1.38-.79-3.29-1.76-3.76-.12c.8.59,1.55,1.31,2.49,1.62l1.82.6,1.77.49c.73.2,1.56-.01,2.35-.04ZM156,132.62l5.25-.97-.73-7.01c-.55.22-.92.64-1.07,1.23l-3.45,6.76ZM171.9,128.16c.34-1.14.69-2.02.68-3.22l-2.05,3.78c.44-.11.93-.31,1.37-.56ZM34.6,128.21c.41.1.7-.08,1.04-.5l-2.45-2.18c-.12-.11-.3-.32-.42-.33-.52-.02-1.44.52-1.35,1.16l.47,3.33c1.08-.25,1.86-.84,2.71-1.48ZM22.74,128.7l-1.7-2.65.09,3.96,1.61-1.31ZM176.18,132.9c1.27-1.29,1.03-2.48,1.26-3.99l.42-2.71-.82.41-.63,2.41-.42,1.21.2,2.67ZM184.3,131.26l.11-1c-.13,0-.31.03-.28-.01l.2-.26c.22-1.26.25-2.52.12-3.78l-.83,4.09-.1.61c.18-.02.32-.05.38,0l.41.36ZM25.71,130.21c.03-.21.04-.63-.02-.81l-.59-1.78c-.39.25-.25.45-.14.72l.75,1.86ZM91.43,128.52l-.67-.44-1.91.15,2.58.29ZM37.94,143.64l3.41-2.54,1.31-1c-2.09-3.65-3.9-7.25-5.44-11.09l-1.06-.82-3.93,3.49,1.48,8.22,1.21,1.02,3.02,2.71ZM31.05,129.74l-.18-1.42c-.37.51-.41,1.23.18,1.42ZM182.93,128.73l-1.11,2.69c.65.2.95-1.55,1.11-2.69ZM120.73,134.55l3.61-2.24,3.72-2.43c.41-.29.76-.59,1.08-1.06l-3.77,1.86-8.97,4.68c.96.04,1.68-.2,2.56-.39l1.78-.42ZM172.35,128.75l-.75,2.58c.55-.51.88-1.81.75-2.58ZM144.01,134.85l2.76-1.61-.94-4.29-8.96,7.27,7.14-1.37ZM170.78,137.14l2.21-1.72c.34-.11.56-.37.75-.7.27-.43.53-.93.6-1.45.19-1.46.24-2.84.08-4.37l-2.77,3.99-.83,1.64c.09.35.11.62.06.93-.09.57-.14,1.05-.11,1.67ZM24.4,132.21c.1-.05.48-.03.59-.04.08,0,.01-.31-.06-.34l-.31-.13-.2-.5-1.26-1.92-1.81,1.48c.03.34.03.97.22,1.2l1.61,2c.17-.68.71-1.49,1.23-1.74ZM170.36,132.3c.46-.94.76-1.86,1.05-2.93l-1.2.45.14,2.48ZM29.94,132.99l1.51-1.28-.24-1.15c-.76.11-1.19-.26-1.43-1.01l-1.11,3.23c-.06.18-.33.52-.25.68l.28.57,1.24-1.04ZM32.1,131l1.41-1.29-1.52.67.11.63ZM129.12,137.54c1.27-.81,2.42-1.59,3.18-2.8.96-1.53,1.57-3.2,1.69-4.94l-4.12,4.19-5.32,4.51,4.56-.96ZM164.92,142.1l2.92-5.81.37-.71,1.07-5.36-1.82,3.05c-2.15,3.86-4.1,7.67-5.68,11.93l1.31-.13c.77-.93,1.28-1.86,1.83-2.97ZM161.8,143.26l3.71-7.72,2.45-4.76-3.43,1.85c-.99.53-1.88,1.21-2.63,2.07l-.1,8.57ZM150.03,133.76l1.08-2.31-3.45,2.28c.03.12.15.4.23.46l2.14-.43ZM162.27,133.89l2.89-2.28-2.25.5c-.19.05-.4.31-.4.5l-.25,1.28ZM169.44,131.89l-.5,2.68c.83-.42.71-1.47.5-2.68ZM176.22,143.91l-.33,4.09,1.74-1.81,1.46-2.16-.04.83,1.07-1.13c.35-.37.59-.76.8-1.26,1.4-3.36,2.61-6.7,3.26-10.35l-1.09.05-1.84,4.38-.75,2.5c-.2.69-.38,1.35.09,2.06l.67-.71-.11,1c-.01.1-.11.31-.19.37-.42.3-1.5-.81-1.65-2.09l-3.06,4.22ZM30.06,136.28l2.66,2.63-1.19-6.59-2.09,2.01c-.05.05-.15.22-.17.27s.22.16.24.21l.55,1.47ZM180.43,135.63l1.57-3.22-.73.2-.84,3.02ZM151.22,141.89l.94,1.48,2.13-2.2c.14-.14.24-.27.38-.34l2.03-2.19c1.74-1.88,3.3-3.87,4.55-6.12l-5.75,1.07-1.02,1.82c.95,1.29-.72,3.21-1.99,4.33.07.25-.04.49-.25.13l-.52.87-.51,1.14ZM185.37,134.98c.35-.82.66-1.83-.02-2.67l-2.2,7.57c.69-.8.92-1.81,1.31-2.75l.91-2.15ZM26.81,135.73c.03-.9-1.25-2.16-2.13-2.8-.59.43-.9,1.13-.85,1.8l1.77,1.96,1.21-.96ZM176.45,141.75l2.76-3.89c.07-1.6.38-3.09.89-4.67l-2.46,1.33-1.18,7.23ZM153.84,135.07l.69-1.28-4.28.74-1.03,2.33c1.39-.95,3.17-2.14,4.62-1.79ZM13.08,137.01l3.37-3.06-2.13.51c-.95.09-1.77-.05-2.66-.45l1.41,2.99ZM18.21,143.82c.4-.25.32-.55.24-.9l-.81-3.89c-.24-1.15-.13-3.38.07-4.92l-4.14,3.77,2.13,3.19c.32-.45.54-.74.94-.97l-.69,1.3,2.27,2.42ZM148.56,136.64l1.02-2.02-1.56.33.54,1.69ZM118.3,136.22l1.92-1.3-3.07.86,1.16.44ZM125.92,156.25l-.04,1.27,3.34.31,9.82-5.64,4.1-3.04c-4.16.6-7.88,1.96-11.76,3.34,3.91-1.89,8.1-3.08,12.43-3.84l1.63-4.28,2.73-6.91-.8-2.34-4.85,1.77-5.49,2.81-3.28,1.66c-.78.4-1.52.78-2.39.98-.36.08-.9-.23-.95-.52-.07-.4.12-.71.33-1.19l-3.2,2.26-1.29.78c-.23,1.37-.71,2.57-1.33,3.85-1.55,3.24-3.45,6.22-5.48,9.22l6.12.73c.01-.49.13-.89.34-1.19ZM154.39,146.95l3.15-.82,3.56-.83c.29-3.38.51-6.69.35-10.16l-3.06,4.6-3.47,4.84-1.01,1.44.47.92ZM152.03,138.56l1.67-3.09c-.8-.02-1.58.23-2.18.55l.52,2.54ZM59.4,136.92l.9-1.26-1.29.78.39.48ZM131.99,140.84l10.05-5.04-6.09,1.12-2.2,1.9c-.68.59-1.34,1.24-1.76,2.02ZM28.9,137.52l-.85-1.62s-.26-.02-.25.03l.05.31,1.01,2.9c.13.39.28.71.68.68-.4-.87-.53-1.39-.64-2.3ZM154.12,137.33c.2-.52.37-.96.22-1.51l-2.01,3.71c.93-.54,1.22-1.42,1.78-2.2ZM175.25,141.63c.25-.95.13-1.96.13-2.86v-2.92c-.31.06-.4.23-.47.51l-1.98,7.29-1.4,4.08,1.72-1.94c.88-1.24,1.6-2.64,2-4.16ZM101.89,144.62l3.11-.75c1.3-.31,2.4-1.15,3.54-1.83l3.7-2.21.75-.45,4.48-2.66-1.37-.55-2.46.63c-1.29.47-2.42,1.31-3.57,2.04l-2.67,1.67,2.62-.46.06.08-3.6,1.07c-.99.47-1.91,1.2-2.76,1.9l-1.82,1.51ZM151.83,138.84l-.2-.92c-.14-.63-.19-1.14-.52-1.76-.83.42-1.41.94-2.06,1.64l1.59,3.18,1.2-2.15ZM23.24,138.62c.09.04.42-.12.43-.23s-.06-.31-.12-.42l-.88-1.5c-.31.37-.33.82-.11,1.15l.68,1ZM27.52,138.46l-.47-1.89-.8.82,1.27,1.08ZM20.91,139.46l-.63-2.76c-.05.01-.28.16-.35.23-.06.06.01.26.05.36l.93,2.17ZM169.02,144.8l-1.26,4.4-.89,3.37,2.65-2.83,1.24-3.06c1.3-3.21,2.3-6.43,3-9.91l-3.35,4.98-.9,1.54c-.12.21-.2.57-.28.91l2.22-.46c.11.24-.14.5-.42.57l-2.01.5ZM129.37,140.58l2.96-2.09,1.24-1.07-1.83.3c-.34.06-.75.73-.94,1.02l-1.44,1.84ZM170.5,139.98l1.66-2.53c-.97.44-2.06,1.82-1.66,2.53ZM19.39,142.29l.99-1.35-1.47-3.32c-.28.23-.31.56-.24.89l.73,3.79ZM104.16,154.5l15.47-7.85c.26-.37.57-.53,1.01-.56l4.79-2.94c.25-.15.31-.68.77-.42,1.37-.97,2.64-2.02,3.63-3.37l.93-1.26c.16.02.32-.04.43-.23-.67-.01-1.33.11-1.94.42-2.31,1.2-3.99.63-6.25,1.38-.33.14-.75.48-1.08.72l-11.14,7.87-8.77,5.62c.73.29,1.41.45,2.15.63ZM118.34,139.51l1.54-1.4c-.08-.1-.48-.23-.62-.13l-2.69,1.94c.58.15,1.26.05,1.76-.41ZM169.3,137.88l-.97,1.73c.71-.47,1.07-.92.97-1.73ZM90.06,145.04c.14-.03.44-.25.56-.33l8.4-2.18,6.06-1.43,4.44-2.8-6.92,1.57c-7.38,1.68-14.65,3.44-22.06,4.75.71.24,1.35.39,2.04.44l5.53.38,1.95-.4ZM147.96,144.67c.88-1.01,1.68-2,2.31-3.09l-1.71-3.14-1.17,2.85-2.39,6.41c1.17-.95,2-1.94,2.95-3.02ZM33.21,140.67l-2.07-1.85,1.36,2.59.71-.74ZM169.98,140.81l.27-1.59c-.32.1-.28.37-.32.6l-.23,1.24s.28-.21.28-.25ZM62.63,142.25l-3.38-2.79c.09.44.32,1.13.67,1.4.81.62,1.72,1.03,2.71,1.39ZM154.39,143.6l.87-1.21,1.75-2.95-2.28,2.3-.34,1.86ZM28.42,141.32c-.54-.63-1.4-1.03-2.09-1.51.94,1.53,1.88,2.95,3.24,4.17-.28-.95-.61-1.91-1.15-2.66ZM111.98,141.74l2.22-1.53c-.58.06-1.03.28-1.5.57l-5.82,3.49,2.36-.55,2.75-1.97ZM113.71,141.9l2.91-1.38-.89-.02c-.77.43-1.45.82-2.02,1.4ZM166.96,144.58l1.43-1.91c.32-.69.4-1.47.58-2.26l-1.93,2.06-1.07,2.21.99-.1ZM42.27,145.68l.74-4.98-4.25,3.42,3.51,1.56ZM28.53,145.03l-1.13-1.28-2.6-2.74c.07,1.75,1.87,3.31,3.23,4.4.17-.03.46-.26.5-.38ZM73.12,144.43c.66.15,1.48-.04,2.16-.04l-4.51-1.49-5.55-1.73c.85.69,1.66,1.25,2.62,1.78l1.38.49,1.71.47,2.19.52ZM44.28,146.3l2.49.39-3.35-5.26-.66,4.46,1.53.41ZM36.63,143.8l-1.97-1.83c.45,1.11.78,1.76,1.97,1.83ZM99.78,145.24l3.96-3.26-7,1.88-6.86,1.94c3.25.61,6.81.12,9.9-.56ZM8.9,166.9l1.85-1.98c.6-5.65,2.37-10.65,5.04-15.65l1.93-4.49-2.43-2.6-7.86,14.49c-1.29,2.61-2.4,5.16-3.29,7.92-.51,1.57-1.34,4.97-.5,5.52,1.16.76,4.06-1.93,5.27-3.22ZM153.29,145.07c.54-1.03.74-1.78.93-2.75l-1.66,1.68.73,1.07ZM151.7,143.92l-.93-1.47c-.24.91-.45,1.71-.38,2.75l1.3-1.28ZM23.97,148.4l-.76-2.16c-.1-.49-.25-1.07-.51-1.5l-1.33-2.19-1.33,1.77.67,1.73,1.53,1.16,1.73,1.19ZM26.64,146.95l-1.52-2.63-1.19-1.61.8,2.49,1.27,2.43.64-.68ZM112.59,145.66l.1.12,3.47-2.53c-.71.04-1.16.51-1.63.93l-1.94,1.48ZM147.76,147.87l2.17-2.03c-.05-.19-.21-.59-.18-.76l.28-1.76-1.37,1.62-3.08,3.3h1.23c.24,0,.77-.23.95-.37ZM33.26,147.09c.09-.03.22-.29.19-.4l-.66-2.05-.97-.8-.7.6.85,1.64c.13.25,1.04,1.09,1.29,1.01ZM118.8,156.65c2-2.98,3.73-5.85,5.26-8.95l1.37-3.54-5.83,3.23c-2.77,2.54-5.29,5.33-7.69,8.32l6.89.94ZM151.38,147.28l1.45-1.65-.77-1.1-1.42,1.44.74,1.31ZM178.99,145.87c.36-.3.62-.77.83-1.23l-1.33,1.36c-.26.26-.43.51-.64.85l1.13-.97ZM163.51,151.77l2.05-1.63c.28-.22.43-.37.91-.34l.81-2.49.55-2.28-2.65,3.09c0,.35-.21.56-.55.62-1.04,1.34-1.92,2.69-2.68,4.28l1.56-1.23ZM109.57,146.51l1.14-1.04-2.39.93c-.22.52-.53.83-.93,1.28.84-.2,1.53-.6,2.18-1.18ZM41.99,148.74l-1.94-1.73-1.21-1.1-1.64-.16c1.17,1.99,2.51,3.69,3.99,5.42.1.12.28.24.39.27.09.02.3-.18.3-.3l.1-2.38ZM17.91,157.03l3.27-3.34c.59-.6,1.08-1.32,1.58-2.05-.97-1.39-1.88-2.75-2.58-4.29-.27-.59-.45-1-1.16-1.38l-1.86,2.86c-.43.66-.74,1.3-.95,2.07-.51,1.89-1.35,5.24.21,6.11.32.18,1.21.3,1.48.02ZM162.26,146.14l-.75.05-.23,1.17.98-1.22ZM42.2,146.54l-1.46-.2,1.38,1.23.08-1.03ZM150.71,147.99c.14-.02.39-.39.32-.51l-.69-1.2-2.11,1.98,2.47-.27ZM156.9,150.86l3-2.24.73-2.17-3.2.76c-.78.19-1.47.54-2.24.97l1.71,2.68ZM70.34,146.73l-2.22-.12c1.18.46,2.35.67,3.55.78-.41-.29-.93-.65-1.33-.67ZM47.32,150.22l1.7-.18.24-.03c.05,0,.07-.14.03-.17l-.16-.16-6.48-3.03-.14,1.25,3.1,2.59,1.7-.27ZM28.27,148.24l.64-.76-.73-.57-.48.43.58.9ZM105.68,148.29l1-1.12-5.74,2.06c1.7-.02,3.18-.46,4.74-.94ZM47.41,147.45l-1.47-.09,2.13,1.02-.65-.92ZM173.3,147.29l-2.19,2.44c1.03-.38,1.8-1.4,2.19-2.44ZM174.16,148.89l.22-1.52-1.16,1.57.95-.05ZM77.66,147.57l-1.21.05c.97.24,1.89.21,2.8.12l-1.59-.17ZM29.52,149.8l1.36-1.08-1.44-.95-.84.94.92,1.09ZM26.68,149.18l.89-.7-.34-.65-.79.8.24.55ZM161.41,150.95l1.22-2.9c-.42.16-.92.5-1.24.82l.02,2.08ZM24.25,149.89l-2.4-1.63c.44,1.01.95,1.74,1.61,2.63l.79-1ZM155.37,151.73l.98-.51-1.77-2.85-1.58.88-1.28,4.38,3.66-1.9ZM111.29,155.61l2.78-3.23,3.61-3.94-9.91,4.98-2.5,1.34,3.24.51,2.78.34ZM146.3,149.22c.15-.05.38-.39.49-.67h-1.3c-.69,0-1.21.59-1.21,1.34l2.01-.67ZM142.52,155.78l1.89-1.84,4.28-3.78c.59-.53,1.13-1.01,1.66-1.66l-2.9.52-1.87,2.35-2.35,3.08-2.07,2.39c.5-.28.94-.65,1.36-1.05ZM40.08,151.63l-1.62-1.49-1.64-1.52,1.07,1.88,1.59,1.21.6-.08ZM89.72,149.34l-.07-.12-2.15-.28-5,.02c.95.2,1.83.24,2.76.27l4.47.11ZM34.65,152.48l-1.36-1.98c-.46-.66-1.29-1.01-1.93-1.5l-1.76.97,1.98,2.25c1.06.27,2.12.38,3.08.26ZM28.74,150.1l-.82-1.17-.72.95c-.14.19.33.69.56.69.3,0,.56-.16.98-.47ZM44.35,150.76l-1.98-1.73-.13,2.25,2.11-.52ZM159.54,154.19l1.37-1.75c.14-.18.04-.67.08-.88.14-.83.47-1.7.1-2.54-.29,1.25-.53,2.23-1.19,3.2-.13.19-.16.73-.24.94l-.59,1.53.48-.5ZM160.08,151.07c.36-.56.57-1.05.7-1.69-.25.08-.49.34-.53.54l-.18,1.15ZM170.27,152.17c-.23.22-.32.4-.5.74.54-.21.8-.41,1.2-.7l2.79-2.04c.23-.17.32-.58.16-.77l-1.14.25-1.28,1.84-.12-.41-1.11,1.09ZM146.76,156.59l1.66-1.17c.68-.48,1.36-.84,2.17-1.07.69-1.58,1.23-3.16,1.65-4.76l-1.31.65c-.83,1.27-1.72,2.47-2.79,3.58l-3.08,3.18-.97,1.23c1.03-.47,1.77-1,2.67-1.64ZM142.21,154.63l3.85-4.88-1.97.5-1.88,4.38ZM100.35,153.1l2.58-1.73c.6-.4,1.07-.93,1.34-1.59l-6.26.77c.21.23.4.46.51.72.36.8.97,1.5,1.83,1.83ZM55.19,151.85l1.73-1.35c-1.64-.42-3.21-.46-5-.27l3.27,1.62ZM29.86,151.61l-.89-1.22-.5.6,1.39.61ZM135.43,158.2l3.76.2.72-1.01c1.17-2.24,2.19-4.43,3.12-6.83l-1.9,1.09-10.64,6.25,4.93.3ZM175.51,152.3c.44-.58.77-1.06,1.08-1.76l-.86.9c-.2.21-.32.48-.22.86ZM50.48,154.2l1.83-.66-2.4-2.95-1.29.19c.15.22.32.46.36.62l.51,1.94c.08.3.69.67.99.85ZM54.03,152.86c.17-.06.46-.35.58-.47l-3.73-1.78,2.12,2.63,1.02-.38ZM24.89,152.63l.99-.55-.6-1.26-1.12,1,.73.81ZM158.76,151.04l-.19-.09-1.24.82.12.27,1.31-1ZM162.01,156.73l3.43-3,.85-2.87-3.86,3.04-1.73,1.41-.52,1c.41.39.39.67.24,1.34.58-.26,1.13-.52,1.59-.92ZM47.98,152.35c.23-.51.27-.84.14-1.27l-1.58.21,1.44,1.06ZM37.44,151.98l-1.29-.85.35.74c.08.17.57.16.94.12ZM45.59,155c.49.36,1.02.6,1.58.49.05-.74.24-1.34.55-2.06l-2.49-1.87-3.03.69,1.62,1.43,1.77,1.31ZM170.18,158.29l.84-.75c.49-.44,1.09-.91,1.32-1.54l.65-1.78-.65.58,1.28-3.2-1.94,1.33c-.75.51-1.55.98-2.38,1.3l-.41,1.53c-.25.94-.59,1.63-1.3,2.55l2.6-.02ZM37.77,159.27c-2.33-1.9-4.49-3.91-6.54-6.12l-2.52-.66c.57.93,1.18,1.71,1.97,2.43,2.22,2.04,4.59,3.81,7.18,5.36,0-.43-.03-.69-.09-1.01ZM145.23,155.28c1.02-.76,1.72-1.7,2.35-2.84-.81.44-1.24,1.17-1.71,1.88l-.64.96ZM24.01,153.22l-.63-.71-1.73,2.44,2.35-1.72ZM62.84,162.15c1.31-1.66,2.78-2.91,4.54-3.85l-12.05-5.6-1.51,1.6c1.14,1.55,2.25,2.94,3.55,4.25l5.46,3.6ZM152.34,157.42c.25-.07.76.1.89.29s.18.51.24.86c.11.58,1.77-.66,2.2-1.42l1.77-3.19-.42-1.12-1.6.42-3.28,2.52-1.34.85.1-.51c-.33.05-.31.29-.44.53l-.8,1.51,2.69-.72ZM27.49,155.06l-1.13-2.11-.67.48,1.8,1.63ZM17.21,157.93c-1.16-.08-1.78-.61-2.13-1.53-.36-1.07-.24-2.14-.2-3.39l-1.64,4.06c-.77,2.3-1.31,4.57-1.72,7.02l5.69-6.16ZM41.87,154.19l-1.28-.72-.84.05.46,1.01,1.61.86.05-1.2ZM36.8,155.53c-.19-.68-.81-1.38-1.15-1.92l-2.76-.02,4.57,4.3-.67-2.36ZM49.31,154.64l-1.16-.89-.32,1.25,1.48-.36ZM77.82,161.57l8.23,2.97,2.61-1.51-6.26-3.24-8.26-4.74c-.73-.42-1.55-.7-2.36-.79-.69-.08-1.23.47-1.2,1.13.03.55.19,1.14.33,1.65l.83.07-.62.39.85,1.79,5.84,2.27ZM102.68,154.96c.34.07.68,0,.87-.26l-1.37-.37c-.12-.03-.35-.03-.45,0s-.16.36-.1.39l1.05.23ZM142.67,157.21l1.73-1.36,1-1.44-1.89,1.77c-.34.32-.76.6-.84,1.03ZM43.62,155.83l-1.29-1.41-.12,1.09c.38.4.83.54,1.41.32ZM40.13,156.79l-.72-1.47-.99-.46c-.02.36-.07.93.06,1.16.91,1.52,1.76,2.97,3.06,4.35-.32-1.25-.85-2.42-1.41-3.58ZM102.6,155.27l-1.2-.46-.93,1.6,2.13-1.15ZM54.93,156.99l-1.55-2.06-.55.78,2.11,1.28ZM50.35,157.59l.49-.8-.92-1.61-2.05.55h-1.04s3.51,1.86,3.51,1.86ZM29.99,157.21l.2-.04-1.24-1.92-.06.18,1.1,1.77ZM150.15,155.5l-.05-.29-1.77,1.11c.71-.16,1.19-.42,1.81-.82ZM100.53,167.86l3.85-4.32,5.74-6.59-2.69-.49-3.86-.92-3.66,1.97-2.26,4.6-1.69,3.31,4.58,2.43ZM164.52,157.57l1.69-1.59-1.12.48c-.27.12-.51.74-.57,1.11ZM173.73,158.06l.26-2.12-1.89,2.12h1.63ZM41.76,156.52l-.7-.31.55,1.3.14-1ZM59.02,161.48l-2.18-2.24-4.55-2.72c-.22.21-.45.53-.48.71l.38,1.17,6.84,3.07ZM46.17,164.72l2.14-4.07-1.29-.77-2.26-1.7-2.5-1.41.02,2.08c.17,1.29.95,2.32,1.49,3.42.32.64.67.91,1.2,1.38l1.19,1.07ZM148.59,158.35l.73-1.44-3.22,1.55,2.49-.11ZM112.01,165.66l4.05-5.25,1.85-2.54-7.13-.84-4.24,4.94-5.36,6.05c2.39-.21,4.54-.44,6.74-.96l4.09-1.4ZM140.59,158.36c.74-.2,1.02-.69,1.29-1.17-.54.36-1,.74-1.29,1.17ZM162.92,158.49l.86-1.32c-.89.32-1.41.78-2.06,1.33.41.05.88.05,1.2,0ZM165.88,158.42l.52-1.36-.94.83-.8.55,1.23-.02ZM38.15,163.34l-.21-1.91-6.09-4.08,2.74,3.28,3.55,2.71ZM49.78,158.34l-2.4-1.05,1.97,1.71.43-.66ZM95.39,165.09l4.25-7.4-8.91,4.98,4.66,2.41ZM126.75,159.04l-.63-.46-7.52-.64-5.58,7.33,5.48-2.29,8.25-3.93ZM152.68,158.74c-.01-.15-.09-.46-.15-.45l-1.63.3,1.78.15ZM75.86,167.02c.22.12.65.1.84.04l-3.98-4.91-1.44-2.19-2.8-1.2c-.57-.05-1.27.41-1.73.74-1.28.89-2.34,1.86-3.28,3.08.23.21.6.51.85.59,4.51.24,7.66,1.65,11.55,3.84ZM158.09,196.84c1.44.52,3.94-2.15,5.07-3.69,2.89-3.94,5.62-10.64,6.77-15.38l1.67-6.89,2.01-12.14-2.23.11c-1.98,2.58-4.2,4.85-6.69,6.9l-1.48,4.35-3.23,9.26-1.37,4.21c-.79,2.41-1.4,4.8-1.7,7.34-.23,1.9-.2,5.43,1.18,5.94ZM51.9,160.74l-.25-1.46-1.04-.41-.47.75,1.76,1.13ZM136.34,160.82c.68-.43,1.26-.87,1.88-1.51l-9.34-.47-1.02.49c1.96,1.26,3.91,2.18,5.99,3.06l2.48-1.57ZM169.13,159.01l-1.86.04-.85,1.88,2.71-1.92ZM152.39,168.71l5.1-2.52,1.78-.98,3.16-1.8,1.83-2.74c.26-.39.3-.93.46-1.47l-1.12.05-1.65,1.52c-2.26,1.89-4.63,3.54-7.06,5.2l-2.34,1.59-.04-.29c-.29.11-.84.29-1.08.53l-2.09,2.15,3.04-1.25ZM155.73,164.07c.91-.44,1.57-.93,2.26-1.49l3.93-3.17c-.49-.08-.81.07-1.15.27l-1.59.95c-.4.5-.98.71-1.46,1.08-.82.62-1.46,1.46-1.98,2.36ZM143.4,163.3c.15-.44.43-.65.85-.75l2.22-.51,1.45-2.5h-4.12c-.59.23-1.58.64-2.04,1.11l-2.61,2.64h2.42s1.82,0,1.82,0ZM149.43,161.69c1.25-.32,2.34-1.1,3.02-2.21l-3.16.02-1.62,2.27,1.77-.09ZM38.38,166.66l-4.78-5.27-2.35-1.8,1.21,1.87c1.81,2.82,3.77,5.46,6.12,7.87l-.2-2.66ZM131.45,163.77l1.81-1.03-5.84-3.21-13.19,6-2.06.85,8.25-1.39,11.03-1.23ZM59.52,164.1c.35.15,1-.13,1.37-.3l-5.97-3.01-2.47-1.13.31,1.49c.97.5,1.94,1.13,3,1.41.41.11.61.22.98.37l2.8,1.16ZM40.22,161.63c-.23-.51-.51-.78-.84-1.08l-.94-.8.12.96,1.66.91ZM81.77,167.16l3.27-2.01-6.42-2.38-5.83-2.21,2.78,3.8,2.3,2.68,3.9.13ZM165.34,163.84c1.13-1.02,2.13-1.94,3.02-3.04l-2.62,1.73-.4,1.32ZM164.39,162.22c.77-.1.88-.77.9-1.32l-.9,1.32ZM49.92,164.71l2.64-1.26-3.38-2.25-2.13,4.18c.2.22.49.44.71.48l2.17-1.14ZM41.79,164.85l-.7-1.59-2.51-1.43.18,1.98,3.12,1.99c0-.32-.02-.76-.1-.95ZM156.68,162.13c-.66.3-1.07.81-1.27,1.35.57-.4.98-.84,1.27-1.35ZM148.54,165.59c.74-.4,1.15-.84,1.64-1.3l1.65-1.58c-.52-.14-.77.15-1.07.48l-1.17,1.23-1.05,1.18ZM138.69,163.76c-.2.02-.52.46-.61.64l3.3,1.45,3.8-1.76.58-1-1.12.18.53.26-1.15.11c-.62-.14-1.17-.2-1.84-.14l-3.48.26ZM162.99,165.58c.7-.06.86-.56,1.03-1.07l.42-1.26-.81,1.39-.64.94ZM94.3,167l.46-.8-5.32-2.78-2.54,1.43,7.41,2.15ZM162.62,165.95c0-.88.56-1.51,1.22-2.13-.67-.04-.75.64-1.04,1.03l-1.48,1.98,1.3-.88ZM63.29,164.07l2.24,1.21c-.59-.59-1.65-1.43-2.24-1.21ZM74.66,167.21c-1.79-.93-3.44-1.79-5.28-2.2l-3.47-.78,5.03,3.08c.31.19.93.22,1.29.18l2.44-.28ZM131.84,168.68l2.56-2.83,1.5-1.67c-.61.02-.96.28-1.43.54l-3.45,1.96-4.97,2.66,5.79-.66ZM152.95,165.12l.62-1.01-1.64,1.1,1.01-.09ZM45.29,166.43l-.99-1.29c-.31-.4-.95-.57-1.45-.83.11.26.27.68.42.87l1.58,2.04.43-.79ZM119.97,169.64l1.76-.57,2.03-.97,1.71-.83,4.65-2.73-5,.48-13.7,2.31-2.59,3.22,7.87-.63,3.27-.29ZM145,167.39c1.17-.69,2.09-1.48,2.77-2.48-.46.02-.65-.07-.8-.34l-1.52.72-1.19,1.8.75.3ZM52,166.04l.95-.42-.27-1-4.1,1.87.68.55,2.73-1.01ZM63.97,165.62l-1.7-.97c-.04.11-.11.47-.02.52l.41.2c.39.19.84.27,1.32.26ZM135.48,167.84l5.02-1.65-2.96-1.34-1.45,1.4-.61,1.6ZM59.47,168.15l-1.39-.98-1.5.98-1.05-.36.15-.91.45.75,1.34-.9-2.64-1.7-.7.37c.59,1.79,1.45,3.43,2.58,4.92h1.42s-1.09.41-1.09.41l2.3,2.15c.04-1.26.15-2.37.48-3.51-.18-.15-.42-.32-.46-.48-.03-.14.05-.47.1-.74ZM145.26,173.52l-.91.9,2.16-.69c4.44-1.42,8.71-3.18,12.72-5.57l2.28-3.17-10.63,5.28-3.18,1.39-1.68,1.62c-.17.16-.43.24-.75.25ZM42.26,168.91l-.16-1.8-3.21-2.01v.72s3.37,3.09,3.37,3.09ZM93.49,168.42l.32-.62-7.92-2.38-3.12,1.87,4.77.64,5.95.48ZM151.04,167c.7-.34,1.14-1,1.57-1.61-.55-.05-1.03.05-1.47.34l-3.17,2.07c-.02.24.41.51.65.39l2.43-1.18ZM53.46,169.65l.55.04,1.4.88c-.96-1.51-1.73-3.02-2.34-4.69l-1.46,1.03-1.58.59,3.43,2.16ZM64.36,168.27l-.24-.8-3.29-1.29c-.52-.2-.92-.36-1.35.24l2.48,1.68,2.39.17ZM97.84,168.03c.29.14.49.24.8.21l-3.27-1.73-.28.65c1.03.29,1.84.44,2.75.87ZM137.34,171.15c1.73-.6,3.33-1.41,4.86-2.28l.89-1.5-1.14-.57-5.86,2.77-1.56.74c-.19.63-.29,1.15-.31,1.92l3.12-1.08ZM41.38,169.46l-2.31-2.1.4,3.1,1.91-1ZM105.64,170.73l2.48-.13,2.5-3.11-3.86.74-3.34,1.29,2.23,1.22ZM54.12,171.4l-3.17-1.95-1.89-1.24c-.32-.21-.63-.35-1.04-.29,1.15,1.31,2.29,2.53,3.67,3.57.78.59,1.83.82,2.75,1.1.76.23,1.44.55,2.27.4-.83-.71-1.7-1.05-2.58-1.59ZM78.39,169.05c-.21-.34-.45-.55-.75-.78l-1.54-.32-2.08.16,4.37.95ZM80.26,168.02l-1.51-.09.6.73.91-.64ZM92.3,170.84l.77-1.58-2.77-.13-8.86-1.01-1.64,1.02c.21.14.45.27.65.3l5.88.74,5.96.66ZM146.12,171.4c1.11-.7,2.04-1.49,2.91-2.35-.38.08-.84.24-1.11.18l-1.57-.3c-.49.24-1.3.52-1.7.89l-2.18,2.04,3.64-.45ZM51.42,173.14l-2.51-2.14c-.87-.74-1.92-1.25-2.96-1.73l-.61-.28-.69,1.72,2.66,1.67c2.05,1.14,4.13,2.06,6.34,2.82l-2.22-2.07ZM71.43,174.23l3.93-2.98-6.35-2.06-1.07.1c-.42.64-.86,1.13-1.48,1.71.79.78,1.74,1.44,2.73,2.03l2.24,1.21ZM98.84,169.67l-.92-.44-4,.05-.74,1.6c1.51.22,2.83.3,4.27.24l1.4-1.44ZM64.98,170.09c-.09-.43-.16-.73-.3-.72l-.76.04,1.07.68ZM77.49,169.83l-1.9-.31c.36.51.66.58,1.15.81l.75-.5ZM130.91,170.76c.73-.07,1.43-.46,1.79-1.25-.09,0-.52.05-.64.17l-1.15,1.08ZM61.4,173.68l3.06-2.31-2.67-1.69-1.14.26c-.23,1.16-.3,2.27-.29,3.43l1.05.31ZM118.38,174.06c2.8-.27,5.24-.89,7.78-1.63l2.21-.67,2.13-1.85-5.19.62-1.62.16-3.36,2.06-1.95,1.31ZM42.98,171.73c-.77-.62-.29-1.41-.92-1.63l-1.89,1.01,2.24,2.21.56-1.59ZM80.84,171.36l-1.06-1.12-1.38-.21-.78.53,3.22.8ZM137.83,180.3l-2.51,1.68,4.24-.02h2.92s2,.01,2,.01l3.37-2.31c2.55-1.88,4.83-3.93,6.99-6.25l2.74-3.19-7,3.02-7.94,2.53-.71.61-2.44,2.37.23.27-1.89,1.28ZM102.09,170.9l-1.2-.59-2.12.78,3.33-.19ZM92.03,171.81l-8.44-1.05-1.27-.05-1.05-.27,1.39,1.27,1.29.26c1.97.26,3.9.31,5.89.24.73-.03,1.47,0,2.19-.41ZM141.25,171.9c.84-.41,1.18-.89,1.71-1.46l-1.11.34-.61,1.12ZM119.72,171.6l1.62-.77c-.49-.14-.93-.12-1.31.03l-3.74,1.57c-.33.14-.65.32-.89.55l4.32-1.38ZM113.63,173.09l1.42-1.05,2.35-1.15-9.02.63c-.29.02-.52.18-.61.46l2.89,1.98c.98-.34,2.14-.26,2.97-.87ZM133.19,172.51l.18-1.65-1.09.43-1.14,1.55,2.05-.33ZM80.25,177.76l3.33.04-3.27-2.76-4.12-3.53-4.11,3.09,5.05,2.31c1.04.18,2.01.85,3.11.86ZM140.18,171.46l-1.62.62c.92.01,1.63.01,1.62-.62ZM106.3,172.48c-.62-.31-1.07-.72-1.69-.77l1.48,1.11c.07.05.42.04.38-.03l-.16-.31ZM52.09,180.12l4.21-2.85c-.35-.34-.74-.51-1.26-.58-3.85-1.04-7.4-2.68-10.78-4.96l-.87,2.35,3.96,3.19c1.55,1.07,3.05,2.03,4.74,2.85ZM96.46,173.03l-1.84,1.42,2.09.21,7.92.5,1.27-1.68-2.2-1.72-2.78.1c-1.1.04-2.21.21-3.2.5l-.08-.38-.51.56,3.14,1.87c-.07.29-.41.37-.66.25l-3.15-1.61ZM69.63,175.6l-2.43-2.17-1.78-1.4-2.55,2.01,6.76,1.56ZM139.53,174.83l5.06-2.65-2.67.34-2.39,2.32ZM88.08,177.6l-5.24-4.47-4.12-.86c2.03,1.96,4.07,3.79,6.35,5.45l3.01-.13ZM95.75,172.75l-.83-.38-2.54.49-.37,1.08c1.76.7,2.32-.07,3.74-1.19ZM56.58,173.46c-1.36-.11-2.3-.39-3.54-.73.81.78,1.68,1.33,2.6,1.92l1.57.9-.63-2.08ZM140.01,173.82l1.12-1.09c-.1-.07-.5.01-.63.17l-1.47,1.86c.47-.2.63-.6.98-.93ZM116.67,174.15l1.89-1.34-3.71,1.2c.65.13,1.24.16,1.82.14ZM133.43,177.96l3.59-1.51c-.04-.15-.13-.6-.08-.74l2.34-2.86-4.65.68-3.47.72-.9-.03-4.57,5.89,7.74-2.15ZM91.22,173.9l.26-.98-2.79.32,2.54.66ZM108.41,174.43c.14.1.69-.07.78-.16l-1.97-1.22c-.07-.04-.29-.16-.32-.09l-.14.31,1.65,1.16ZM126.12,173.29l-2.23.58c.86.09,1.7-.03,2.23-.58ZM59.37,175.17c.1-.06.29-.37.22-.44l-.32-.33c-.6-.61-1.31-.95-2.23-.85l.48,1.62c.07.25.45.85.69.7l1.16-.7ZM98.05,176.14l-5.44-.67c-.45.24-.94.2-1.22-.23l-6.67-1.56,4.42,3.83,6.2-.84,2.71-.53ZM143.93,173.64l-2.73,1.47c1.11-.1,2.18-.56,2.73-1.47ZM107.47,174.76l-1.19-1.02-1.09,1.41,2.27-.39ZM122.14,180.92l2.29-.49c1.73-1.95,3.34-3.92,4.84-6.13l-3.51.5c-2.42,1.31-4.9,2.31-7.49,3.24l-2.35.53c1.97.94,4.03,1.71,6.21,2.35ZM72.17,177.78c-.77-.8-1.74-1.13-2.81-1.32l-7.68-1.74,3.24,2.43,3.84.45,3.42.17ZM113.38,174.95l-1.66-.17.52.46c.47-.08.76-.13,1.14-.28ZM116.92,177.17c2.02-.51,3.85-1.2,5.71-2.09l-4.13.29-2.38.27-1.41,1.1c.26.51,1.73.55,2.2.43ZM44.38,183.59c.97-.11,1.9-.29,2.71-.73l4-2.12c-3-1.59-5.55-3.4-8.06-5.62l-.87,4.12c-.2.96-.05,1.97.17,2.89.31.94.96,1.46,2.04,1.46ZM76.95,177.83l-5.33-2.38,2.25,2.35,3.08.03ZM62.46,176.81l-1.83-1.34.19,1.2,1.64.14ZM112.72,177.05l-.05-.25-.68-.49c-.23-.17-.53-.19-.76-.04l1.49.78ZM133.76,181.95l3.13-2.04c1.7-1.1,3.21-2.35,4.66-3.83l-9.76,3.67-4.93,2.14,6.89.07ZM97.92,179.7l4.16-1.34,1.49-1.7c-.14.62-.48.88-.88,1.49l2.77-.98,2.6-.79-2.81.19-1.95-.03-4.96.94-7.5,1.25,2.1,1.43,1.77.13c.42.03.75.18,1.15.05l2.06-.63ZM104,180.69l1.12-.27,4.28-1.03,2.58-1.85-1.88-1.07-3.45.9c-.36.1-.63.23-.97.36l-3.66,1.42-1.52,1.97,3.48-.43ZM66.05,179.51l-1.91-1.54-2.98-.31.4.83c1.41.56,2.85,1.25,4.48,1.02ZM67.63,184.73l-1.66-1.04c-.54-.34-1.03-.57-1.68-.79l.23.37-.08.1-1.65-1.44-5.57-3.98-3.99,2.73,4.77,1.84c2.04.72,4.05,1.22,6.2,1.5l1.38.18-1.09-.88c.98.33,1.69,1.65,3.13,1.4ZM113.52,178.39c-.28-.21-.52-.34-.74-.4l-1.06.79,1.81-.4ZM74.39,181.46c-.19-.76-.42-1.33-.81-1.85l-1.43-.03c-.12,0-.41-.2-.39-.32l.12-.51-3.97-.26c-.27-.02-.62.35-.5.69l1.69-.47c.03.39-.29.69-.75.94,1.52,1.08,3.18,1.91,5.01,2.36l1.04-.55ZM91.43,180.07l-1.65-1.22-2.44.27,1.44.69,2.65.25ZM114.81,181.25c-.82.81-1.9,1.02-2.85,1.62l8.64-1.68-3.01-1.16-2.86-1.14-4.85,1.2-4.54,2.95c1.49.1,2.99.24,4.48-.01,1.77-.3,3.26-1.21,5-1.77ZM81.72,182.87l9.07-1.21-3.35-1.31-4.47-.84-3.13.1-4.74.04c.48,1.08.73,2.03-.09,2.82,2.17.56,4.37.72,6.71.41ZM99.92,181.15l1.3-1.69-4.97,1.6c1.22.33,2.47.25,3.66.09ZM65.06,182.24c.03-.77.17-1.23.48-1.81-1.06.11-1.95-.11-2.99-.46l1.13,1.33,1.37.94ZM72.56,182.97c-1.96-.6-3.59-1.53-5.2-2.73l-1.17.13-.48,1.15c-.15.35,0,.79.4.97,1.97.88,4.64,1.65,6.45.48ZM125.79,181.41l2.26-.97-3.01.61c-.17.03-.4.29-.52.46.45.11.86.08,1.28-.1ZM103.77,182.93l3.85-2.4-7.18,1.4c-.41-.07-.71.16-.83.55l4.16.44ZM93.04,181.08l-1.6-.27c.44.25.98.67,1.6.27ZM94.23,199.12c.96.18,1.92.09,2.85-.12,5.3-1.2,11.36-4.61,15.74-7.87l5.38-4.37c1.78-1.44,3.23-3.06,4.77-4.81l-.73-.29-6.17,1.14c-2.04.68-4.08.94-6.23,1l-5.07,1.34-8.3,1.98c-1.42,2.31-2.63,4.72-3.45,7.33-.61,1.98-.86,4.3,1.2,4.67ZM71.72,186.23l3.18.96c3.02.7,6,.88,9.08.53l6.21-.69,6.29-1.03,1.99-2.96-2.45-.46-3.17-.44c-3.64.76-7.22,1.37-10.95,1.68-2.48.21-4.83.18-7.23-.38-.47-.11-.8-.05-1.11.32l1.4-.04c-1.32.61-2.66.92-4.12,1l-1.97.37,2.86,1.14ZM123.27,190.54c-.55.45-.9.86-1.32,1.42,1.03,0,1.78-.18,2.67-.48,3.71-1.24,7.23-2.78,10.75-4.53l8.47-4.64-3.79-.16-1.33.06-3.91.07-2.37,1.58c.27.14.51.32.53.48s-.34.43-.52.39l-.95-.19c-2.83,1.88-5.58,3.81-8.24,5.99ZM133.13,182.36l-4.8.07,3.09,1.11,1.71-1.18ZM102.34,183.61l-3.33-.46-1.7,2.65c1.95-.59,3.52-1.35,5.03-2.18ZM105.95,184.12c.34-.07.68-.18,1-.36h-2.76c-.9.21-1.75.82-2.52,1.26l4.29-.9Z"/>
      <path d="M8.43,25.04l-.46,1.25c0-.84.14-1.51.37-2.3.52.34.2.74.09,1.06Z"/>
      <path d="M69.75,86c-1,1.54-2.21,2.78-3.93,2.09-.62-.25-.94-.83-1.25-1.54-.77-1.78-.19-3.95,1.62-4.81,1.07-.51,2.11.1,2.93.75,1.15.9,1.49,2.19.63,3.5ZM67.69,83.15c-.21-.15-.59-.3-.89-.27-.23.02-.53.32-.72.58l1.61-.32Z"/>
      <path d="M117.62,79.57c-.13,1.74-1.71,2.98-3.31,3.04-.64.03-1.27-.29-1.57-.66-.42-.54-.66-1.13-.45-1.79.24-.36.33-.67.08-1.07.16-.85.94-1.7,1.92-1.65.82.05,1.63.38,2.39.77.36.18.96.85.92,1.36Z"/>
    </g>
  </g>
</svg>