<?xml version="1.0" encoding="UTF-8"?>
<svg id="Layer_2" data-name="Layer 2" xmlns="http://www.w3.org/2000/svg" viewBox="0 0 205.04 200">
  <g id="Layer_1-2" data-name="Layer 1">
    <g>
      <path d="M156.86,183.49l-3.86,2.44-6.64,3.79-2.95,1.35-4.5,1.82-5.52,1.48-4.24.91c-1.56.37-3.07.67-4.66.46-2.79.6-5.52.56-8.36.81l-6.94.96c-2.61.36-5.08.86-7.71,1l-2.8.16-2.74-.04-4.15.15-3.15.18c-2.5.38-4.88.71-7.43.79-2.72.08-5.41.46-8.13.09l-4.93-.67c-.9-.12-1.79-.08-2.7.05-3.33.48-5.04-1.4-7.26-3.23l-1.17-.96c-2.04-1.18-3.72-2.57-5.43-4.17l-4.15-3.86-5.15-4.14c-1.1-.89-2.13-1.74-3.08-2.79l-2.52-2.77-3.03-3.72c-2.96-3.62-5.19-7.59-7.17-11.86l-3.76-8.09-3.41-7.32c-1.1-2.36-1.94-4.67-2.57-7.19l-1.17-4.66-.82-3.47c-.55-1.61-.54-3.16-.67-4.85-.26-3.37-.99-6.59-1.62-9.89l-.28-3.25-.14-3.99-.04-3.03c-.03-2.63.53-4.97,1.04-7.52.57-2.85.82-5.69,1.14-8.57.21-1.89.6-3.57,1.3-5.34l2.61-6.67,1.8-4.61-2.27-2.08-1.76-1.69c-2.19-2.1-4.14-4.32-6.06-6.65l-1.79-2.51c-1.56-2.19-2.85-4.44-4.02-6.86l-.7-1.45c-.57-1.19-1.25-2.24-1.62-3.52l-.79-2.8c-.31-1.08-.54-2.11-.62-3.25l-.15-2.15c-.09-1.27-.12-2.48.15-3.73.22-1,.23-1.95.23-2.99.01-1.67.49-3.24.95-4.84,1.69-5.85,2.91-8.13,6.53-12.94,1.66-2.2,3.58-4.08,5.49-6.08,1.33-1.4,2.59-2.72,4.06-3.95s3.07-2.07,4.68-3.05c2.16-1.32,4.43-2.17,6.97-2.47,1.98-.23,3.88-.32,5.87-.11,3.01.31,5.44-.38,7.23-.07,1.08.19,2.17.41,3.19.79s1.97,1.08,2.99,1.57l5.1,2.49c1.13.55,1.97,1.43,2.7,2.47l4.56,6.44c.84,1.19,1.83,2.17,2.61,3.4,1.56,2.47,2.67,5.06,3.66,7.8l1.63,4.53c.51,1.42,1.23,2.72,1.95,4.14.59-.5,1.15-.76,1.83-.47.56.24,1.04.69,1.03,1.55,2.07-.13,3.99-.61,5.93-1.3l5.05-1.8,4.48-1.1c2.33-.38,4.65-.67,7.01-.73,2.09-.05,3.96-.33,6.03-.53l7.09-.67c1.6-.15,3.17.08,4.78.05,1.85-.03,3.58-.05,5.4.34,2.12.45,4.21.67,6.36.9l5.56.6c2.96.32,5.85.55,8.74,1.32,3.43.91,6.57,2.3,9.9,3.51l12.19,4.41,2.93,1.09.35.13c.07.03.09-.34.09-.41-.15-1.83.03-3.52.62-5.24,1.09-4.03,3.21-7.51,6.25-10.33l5.57-5.16,2.3-1.88c3.16-2.28,6.87-3.78,10.85-3.71l2.97.22c.78.06,1.3.48,1.88.94s1.61.69,2.1,1.3l2.05,2.54c.78.96,1.32,2.05,1.88,3.14l2.25,4.45c.63,1.25.73,2.6.87,4,.25,2.65-.05,5.19-1.05,7.69l-3.63,7.64-2.98,5.62-2.94,5.5c-.84,1.57-2.09,2.69-3.4,3.93-.17.16-.13.46-.03.68l1.53,3.37,1.99,4.7c1.96,4.62,3.93,15.92,3.5,20.83l-.39,4.43-.67,5.79-1.14,10.18-1.16,7.42c-.49,3.12-1.16,6.04-1.9,9.1l-1.95,8.08c-.66,2.73-1.74,5.19-3.08,7.66-1.11,2.04-1.97,4.06-2.78,6.24-.92,2.49-2.02,4.79-3.37,7.06l-1.81,3.06-2.44,3.02-7.56,9.01c-1.47,1.75-3.12,3.12-4.81,4.64l-5.34,4.81-2.69,2.17ZM73.85,197.21l.47.1c.74.15,1.46.04,2.2.01l3.24-.12,3.91-.22,4.52-.62,3.48-.17c1.52-.08,3.03-.48,4.57-.3,1.19.14,2.33.11,3.52.04l4.5-.28c1.56-.1,3.04-.56,4.59-.78l3.41-.47,4.55-.5,3.76-.23,3.72-.43,2.56-.12,4.39-.91,2.83-.68c1.23-.3,2.31-.52,3.47-.98l5.23-2.08,3.93-1.96,4.15-2.3,2.89-1.94c1.48-.75,2.61-1.66,3.85-2.77l7.77-6.95,4.49-4.96,3.06-3.53,3.33-4.1c.92-1.13,1.68-2.2,2.41-3.47,1.54-2.71,2.86-5.41,3.95-8.34l2.31-5.13c1.81-3.41,3.11-6.89,3.93-10.67l.97-4.46,1.13-4.44,1.41-8.17.73-4.53.65-6.97.73-5.27.67-7.65-.13-5.28-.91-5.84c-.73-4.66-2.18-8.98-4.21-13.21l-2.42-5.06c-.79-1.65-2.02-2.98-3.19-4.38l-2.16-2.58-2.57-2.85c-1.32-1.27-2.7-2.42-4.29-3.31-.51.17-.98.25-1.48,0-.31-.16-.58-.65-.75-1.1-.75-.43-1.69-.85-2.34-1.45-.69-.64-1.36-.57-2.16-.88l-6.1-2.35-13.32-4.85-6.84-2.61c-1.58-.6-3.11-1.12-4.81-1.33l-6.99-.87-4.74-.52c-2.35-.26-4.63-.47-6.95-.94-1.61-.33-3.13-.24-4.76-.29l-3.87-.11-8.03.73-5.85.54-6.7.71c-3.29.54-6.3,1.69-9.4,2.83-2.56.94-5.05,1.52-7.8,1.44-.38-.01-.96-.21-1.31-.31-.66.07-1.24.15-1.82-.23-.46-.31-.61-.86-.87-1.4l-1.71-3.41-.76-1.93-1.73-4.87c-1-2.82-2.2-5.47-4.03-7.86l-2.97-3.88c-1.26-1.65-2.23-3.43-3.57-5.03-1.43-1.73-5.13-2.76-7.38-4.08-1.73-1.01-3.62-1.79-5.68-1.6s-3.99.31-6.06.14c-3.76-.32-7.02.02-10.25,1.98-1.56.95-3.1,1.79-4.53,2.92s-2.51,2.42-3.71,3.72l-3.43,3.74c-1.34,1.46-2.41,3.09-3.6,4.69-1.32,1.78-2.37,3.62-3.14,5.73-.95,2.6-1.81,5.23-2.12,7.99-.16,1.39-.05,2.74-.35,4.12-.22.98-.17,1.93-.07,2.96.32,3.45.95,6.84,2.53,9.92l1.55,3.02c.74,1.8,1.72,3.29,2.83,4.9,2.62,3.81,5.54,7.35,8.89,10.52l2.12,2.23,2.82-3.57c1.31-1.66,2.37-3.37,3.36-5.24l2.43-4.57c.03-.05.17-.27.11-.27h-.34c-1.98-.77-3.79-1.86-5.44-3.17-.96-.69-1.6-1.54-2.31-2.45-2.57-3.28-4.44-6.27-4.65-10.62-.16-3.31.82-6.41,2.46-9.25l2.46-4.27c2.36-4.1,5.55-6.99,10.37-7.67,2.77-.39,6.5,1.13,8.64,2.83l2.88,2.28c1.39,1.1,2.72,2.2,3.91,3.53.57.63.79,1.57,1.08,2.36.75,2.07,1.54,4.06,2.12,6.2.21.77-.81,1.26-1.19,1.62l-.84.78-3.48,3.82-2.25,2.19-3.82,3.62c-1.18,1.12-1.94,2.53-2.87,3.86l-4.68,6.75-2.28,4.17-2.08,3.21-4.17,5.54c-.9,1.2-1.49,2.48-1.99,3.9-1.08,3.09-2.16,6.1-3.48,9.09-.44.99-.55,1.85-.69,2.93l-.73,5.7c-.16,2.5-.67,4.79-1.15,7.24-.34,1.69-.37,3.49-.36,5.22l.02,3.6.25,2.84c.07.79-.05,1.57.11,2.33l.78,3.82.6,3.58.32,4.01c.09,1.14.32,2.34.6,3.47l2.01,8.13.53,2.35,1.42,3.31,4.27,9.02,3.38,7.2c1.8,3.82,3.86,7.37,6.4,10.76l4.23,5.21c1.97,2.43,4.4,4.24,6.87,6.14l2.1,1.63,2.98,2.88,2.87,2.42c.94.96,1.93,1.65,3.06,2.39l5.43,3.57c.88.58,1.76.91,2.81.9l2.87-.02c1.67-.01,3.28.33,4.93.68ZM192.02,31.37c.29,2.73.16,5.13-.47,7.7-.97,3.94-2.62,7.52-4.81,10.92l-1.98,3.09,1.8,2.24,2.92,3.86,1.83-1.86,3-5.32,6.64-12.91c1.51-3.38,1.97-6.98,1.07-10.55l-1.6-3.36-.62-1.29-1.26-2.57c-.92-.91-1.62-1.77-2.31-2.86l-2.45-1.4-1.77-.21c-.89-.1-1.57-.25-2.41-.06l-2.82.64c-2.12.48-4.09,1.58-5.73,2.98l-3.17,2.71-1.86,1.73c-2,1.86-3.91,3.72-5.36,6.08-1.35,2.19-2.38,4.62-2.64,7.18l-.24,2.41c-.05.5.16,1.26.37,1.72.29.18.99.42,1.32.35,1.75-.47,2.17.86,3.57,1.56.35-2.45.68-4.62,1.66-6.77,1.34-2.94,3.47-5.31,6.04-7.27,2.49-1.03,5.07-1.88,7.72-2.01,2.06-.09,3.36,1.36,3.56,3.27ZM38.35,46.31l5.96-5.96c.89-.89,1.46-2.09,2.66-2.63.29-.13,1.08-.36.94-.8l-.77-2.42-.88-2.54c-.36-1.05-.75-1.96-1.64-2.7l-4.84-4c-1.51-1.25-4.5-2.79-6.37-2.68-3.08.18-5.98,1.78-7.58,4.44l-3.75,6.26c-1.31,2.19-2.02,4.58-2.09,7.22-.08,3.26,1.33,6.27,3.25,8.85,1.64,2.2,3.52,4.12,6.05,5.25.68.3,1.5.42,1.8,1.26l3.12-4.44.78-1.2c.97-1.5,2.05-2.62,3.35-3.91ZM183.04,50.99c3.1-4.4,5.58-9.1,6.42-14.55.27-1.75.35-5.27-.22-5.76-.16-.14-.66-.33-.87-.28l-4.88,1.18c-2.45.6-5.68,4.54-6.68,7.2-.79,2.1-1.16,4.28-1.18,6.52,2.68,1.21,5.41,3.33,7.4,5.69Z"/>
      <path d="M120.63,177.3c-1.2,1.11-2.61,1.46-4.23,1.4-1.89-.06-3.56-.61-5.01-1.89l-3.57-3.13-3.02-2.83-2.08,3.29c-.96,1.52-2.63,2.37-4.44,2.33-4.05-.33-6.74-3.08-9.62-5.52l-5.73-4.86c-.69-.58-1.18-1.16-1.7-1.91-.21-.3-.86-.79-.56-1.21l.49-.68c.62-.86,2.14-.66,2.82.15l1.32,1.57c1.2,1.43,2.6,2.62,4.02,3.83l4.02,3.43c1.8,1.54,5.2,3.65,6.51,1.7l2.29-3.41,1.57-2.11c-.23-2.2-.05-4.41.04-6.66l.06-1.57-.09-4.01.09-2.01.05-2,.72-5.52c-.89-.62-1.29-1.36-1.69-2.32-.2-.48-1.02-.9-1.5-1.2-1.98-.02-3.63-.89-4.99-2.28-2.02-2.06-3.72-.9-4.33-3.98l-.42-2.13c-2.36-1.93-3.04-4.97-2.07-7.82.64-1.86,1.74-3.38,3-4.87.98-1.15,2.05-2.04,3.65-2.24,1.28-.16,1.91-1.5,3.87-1.15l2.28-1.13c2.32-1.16,4.69-1.95,7.3-2.04,1.32-.04,2.44.26,3.6.91s4.02-.84,7.42.6c1.46.62,1.47,2.21,3.65,3.06,1.56.61,2.6,1.96,2.7,3.72.09,1.64-.31,3.29-.58,4.95-.3,1.84.52,2.48-.76,4.24-.65.89-.71,1.88-.82,2.95-.06.62-.73,1.13-1.04,1.63-.78,1.24-1.34,2.59-2.47,3.55l-3.54,3.01c-.76.65-1.67.72-2.58.46-.97-.28-2.75,0-3.16.82-.55,1.08-1.36,1.58-2.49,1.85-.74.18-1.38.5-2.25.51-.31,2.09-.82,4.24-.72,6.41l.22,4.86-.05,2.58v1.84c-.51,1.91.66,3.67-.54,5.75l6.9,6.37c1.19,1.1,2.62,1.54,4.29,1.29.69-.1,1.41-.72,1.96-1.24l4.19-3.95c1.12-1.06,1.79-2.2,2.47-3.57l1.89-3.81c.48-.97.42-1.93.38-2.95-.03-.81.97-1.26,1.58-1.26.83,0,1.47.49,1.76,1.33.56,1.64-.96,4.34-1.83,6.03l-1.61,3.13c-.4.77-.95,1.53-1.58,2.11l-2.16,2-3.85,3.57ZM118.37,139.23c1.37-.88,2.3-2.15,2.92-3.63-.63.51-.91,1.19-1.41,1.79l-1.51,1.84Z"/>
      <path d="M73,112.68l-6.67-.43c-1.53-.1-3.04-1.1-4.09-2.13l-3.4-3.34-2.86-2.72c-1.44-1.37-2.43-3-3.46-4.7l-2.74-4.55-2.03-3.28c-.34-1.21-.87-2.42-.95-3.68-.07-1.19-.08-2.27-.39-3.44.14-3.21,1.31-6.17,3.05-8.83l.79-1.21c1-1.53,2-2.88,3.29-4.17l3.21-3.23,3.08-2.27c.46-.34.73-1.13,1.37-1.46,1.97-.99,4.18-1.49,6.36-.91l5.52,1.46c2.88.54,5.65,1.1,8.43,2.03,1.07.36,1.98,1.03,2.86,1.7.96.74,1.55,1.7,2.1,2.78l2.31,4.54,1.14,2c1.91,3.34,2.85,7.5,2.39,11.32l-.02,2.99-.48,5.29c-.24,2.63-.89,5.12-1.91,7.52-.63,1.49-1.54,2.67-2.8,3.67-1.56,1.24-3.38,1.93-5.27,2.59l-4.14,1.43c-1.46.51-3.04,1.16-4.7,1.05ZM76.89,109.28l3.95-1.36c1.52-.53,3.01-1.02,4.28-2,1.02-.78,1.78-1.72,2.25-2.92.94-2.4,1.56-4.85,1.7-7.44l.46-8.58c.04-.82.09-1.55-.04-2.35-.33-1.95-.56-3.93-1.52-5.68l-2.09-3.78-1.83-3.61-.55-1.15c-.78-1.19-2-1.94-3.33-2.39-2.56-.87-5.13-1.28-7.79-1.82l-5.62-1.5c-1.83-.49-3.38.54-4.82,1.69-1.76,1.41-3.61,2.63-5.25,4.19s-2.85,3.42-4.17,5.28c-1.78,2.51-3.02,5.27-3.17,8.41l.26,2.29c.21,1.87.58,3.81,1.58,5.43l3.02,4.86,2.22,3.52c.66,1.04,1.53,1.97,2.43,2.83l3.64,3.52c1.58,1.52,2.66,3.02,5,3.16l5.33.33c1.4.09,2.8-.48,4.09-.93Z"/>
      <path d="M151.62,100.38c-1.81,1.23-3.82,2.18-6.03,2.18-3.04,0-7.08-1.9-8.71-4.29-2.34-3.43-1.59-8.77-.47-12.73.53-1.86,1.48-3.34,2.65-4.81l1.65-2.07c.35-.44.95-.66,1.47-.81,1.51-.54,2.99-.66,4.57-.3,1.55-.36,3.17-.23,4.5.62l1.87,1.58c1.5,1.27,2.72,2.8,3.93,4.35.47.6.9,1.4,1.01,2.14.59,4.14.16,7.52-2.52,10.81-1.09,1.34-2.43,2.31-3.91,3.32ZM155.54,90.18c.32-4.55-.58-4.65-3.36-7.76-.72-.8-1.48-1.47-2.35-2.12-.51-.39-1.3-.43-1.93-.45l-3.07-.12c-.67-.03-1.8.23-2.33.71-2.94,2.65-4.03,6.25-4.4,10.11-.2,2.16-.1,5.21,1.24,6.7,1.52,1.7,3.66,2.85,5.97,2.95,1.14.05,2.3-.38,3.28-.91,3.75-2.05,6.62-4.67,6.93-9.11Z"/>
      <path d="M69.62,94.74c-.94.76-2.1.91-3.1.34-.57-.32-1.04-.92-1.44-1.39-1.65-.89-2.85-2.24-3.39-4.08-.66-2.24.72-4.56,2.64-5.98.32-2.49,2.42-2.29,3.92-3.74,1.33-1.28,4.06-1.39,5.33-.3,1.1.94,1.47,2.33,1.76,3.69,1.01.97,2.15,3.29,2.16,4.55,0,1.13-.71,2.12-1.61,2.66-.49.97-1.24,1.6-2.27,1.71-1.02,1.3-2.32,2.28-3.99,2.54ZM72.52,81.91c-.51-.91-1.5-.85-2.05-.46.9.15,1.53,1.04,2.05.46Z"/>
      <path d="M145.69,95.93c-1.43-.07-2.39-1.15-2.86-2.33l-.57-1.45c-.33-.83-.77-1.83-.83-2.7-.12-1.93,1.25-3.06,2.89-3.5,2.7-.72,5.26.69,5.87,3.49.44,2.01-.62,3.41-1.88,4.97-.63.79-1.46,1.57-2.62,1.51Z"/>
    </g>
  </g>
</svg>